G04 DipTrace 3.1.0.0*
G04 BottomMask.gbr*
%MOIN*%
G04 #@! TF.FileFunction,Soldermask,Bot*
G04 #@! TF.Part,Single*
%ADD32R,0.066929X0.066929*%
%ADD33C,0.066929*%
%ADD66C,0.11811*%
%ADD70C,0.047244*%
%ADD99C,0.057874*%
%ADD101C,0.057874*%
%ADD103R,0.047244X0.047244*%
%ADD105C,0.070866*%
%ADD106C,0.055118*%
%ADD118R,0.059055X0.066929*%
%ADD122C,0.074803*%
%ADD123R,0.074803X0.074803*%
%ADD124R,0.066929X0.059055*%
%ADD126R,0.165354X0.165354*%
%ADD128R,0.208661X0.208661*%
%ADD130O,0.125984X0.098425*%
%FSLAX26Y26*%
G04*
G70*
G90*
G75*
G01*
G04 BotMask*
%LPD*%
D130*
X984252Y984252D3*
Y787402D3*
Y590551D3*
D128*
X2460106Y649606D3*
D126*
Y1153543D3*
D128*
Y1657480D3*
D124*
X1161417Y1456693D3*
Y1531496D3*
X1043307Y1456693D3*
Y1531496D3*
D123*
X866142Y1476378D3*
D122*
Y1771654D3*
D124*
X3897638Y1377953D3*
Y1452756D3*
X3484252Y1377953D3*
Y1303150D3*
D32*
X1181102Y1200787D3*
D33*
X783465D3*
D32*
X629921D3*
D33*
Y803150D3*
D66*
X492126Y1377953D3*
X4232283D3*
Y1929134D3*
Y826772D3*
X492126Y1929134D3*
Y826772D3*
D32*
X1968504Y1084252D3*
D33*
Y984252D3*
D32*
X1181102Y1358268D3*
D33*
X1281102D3*
X1381102D3*
D106*
X1275984Y1791339D3*
X1274409Y2011811D3*
D105*
X1360630Y1901575D3*
D32*
X2145669Y610236D3*
D33*
Y710236D3*
D32*
X1397638Y787402D3*
D33*
X1297638D3*
D32*
X1841339Y472441D3*
D33*
X1741339D3*
D32*
X4153543Y1515748D3*
D33*
Y1615748D3*
Y1715748D3*
Y1815748D3*
D32*
X2047244Y472441D3*
D33*
X2147244D3*
X2247244D3*
X2347244D3*
X2447244D3*
X2547244D3*
X2647244D3*
X2747244D3*
X2847244D3*
X2947244D3*
X3047244D3*
X3147244D3*
D32*
X2047244Y1811024D3*
D33*
X2147244D3*
X2247244D3*
X2347244D3*
X2447244D3*
X2547244D3*
X2647244D3*
X2747244D3*
X2847244D3*
X2947244D3*
X3047244D3*
X3147244D3*
D103*
X4055118Y1522047D3*
Y1422047D3*
Y1322047D3*
Y1222047D3*
Y1122047D3*
D101*
X1299213Y708661D3*
D99*
Y1008661D3*
D101*
X1200787Y452756D3*
D99*
Y752756D3*
D118*
X1769685Y1120079D3*
X1844488D3*
X1771654Y1003937D3*
X1846457D3*
X1771654Y885827D3*
X1846457D3*
D124*
X1594488Y1397638D3*
Y1472441D3*
X1476378Y1397638D3*
Y1472441D3*
X1653543Y1244094D3*
Y1318898D3*
X1909449Y1539370D3*
Y1614173D3*
D118*
X1356299Y1218504D3*
X1281496D3*
D124*
X1769685Y1316929D3*
Y1242126D3*
D118*
X1594488Y669291D3*
X1519685D3*
X1592520Y789370D3*
X1517717D3*
D124*
X3661417Y1732283D3*
Y1807087D3*
X3779528Y1732283D3*
Y1807087D3*
X3897638Y1200787D3*
Y1125984D3*
D101*
X1921654Y1424803D3*
D99*
Y1724803D3*
D70*
X2027559Y1988189D3*
Y2066929D3*
Y2145669D3*
D103*
Y2224409D3*
D70*
X2362205Y1988189D3*
Y2066929D3*
Y2145669D3*
D103*
Y2224409D3*
D70*
X2696850Y1988189D3*
Y2066929D3*
Y2145669D3*
D103*
Y2224409D3*
D70*
X3031496Y1988189D3*
Y2066929D3*
Y2145669D3*
D103*
Y2224409D3*
D70*
X3366142Y2204724D3*
X3444882D3*
X3523622D3*
D103*
X3602362D3*
M02*
