G04 DipTrace 3.1.0.0*
G04 Top.gbr*
%MOIN*%
G04 #@! TF.FileFunction,Copper,L1,Top*
G04 #@! TF.Part,Single*
G04 #@! TA.AperFunction,CopperBalancing*
%ADD10C,0.01*%
G04 #@! TA.AperFunction,Conductor*
%ADD14C,0.03*%
%ADD15C,0.009764*%
%ADD16C,0.015*%
%ADD17C,0.007*%
G04 #@! TA.AperFunction,ViaPad*
%ADD18C,0.031496*%
G04 #@! TA.AperFunction,Conductor*
%ADD19C,0.012*%
%ADD20C,0.011811*%
%ADD21C,0.04*%
%ADD22C,0.02*%
%ADD23C,0.017*%
G04 #@! TA.AperFunction,CopperBalancing*
%ADD24C,0.025*%
G04 #@! TA.AperFunction,ComponentPad*
%ADD27O,0.11811X0.090551*%
%ADD31R,0.059055X0.051181*%
G04 #@! TA.AperFunction,ComponentPad*
%ADD32R,0.066929X0.066929*%
%ADD33C,0.066929*%
%ADD34R,0.106299X0.062992*%
%ADD35R,0.051181X0.059055*%
G04 #@! TA.AperFunction,ComponentPad*
%ADD36R,0.059055X0.059055*%
%ADD37C,0.059055*%
%ADD38R,0.070866X0.062992*%
%ADD39R,0.03937X0.137795*%
%ADD40R,0.059055X0.133858*%
%ADD42R,0.07874X0.015748*%
G04 #@! TA.AperFunction,ComponentPad*
%ADD43C,0.047244*%
%ADD44C,0.062992*%
%ADD45R,0.03937X0.03937*%
%ADD46C,0.05*%
%ADD47C,0.05*%
%ADD48R,0.066929X0.031496*%
%ADD50O,0.011811X0.062992*%
%ADD51O,0.062992X0.011811*%
%ADD52R,0.105512X0.105512*%
%ADD54R,0.084646X0.037402*%
%ADD55R,0.084646X0.127953*%
%ADD58R,0.043307X0.009764*%
%ADD59R,0.060236X0.086614*%
G04 #@! TA.AperFunction,ComponentPad*
%ADD60C,0.03937*%
%ADD61R,0.089528X0.035433*%
%ADD62R,0.035433X0.089528*%
%ADD63R,0.043307X0.041339*%
%ADD64R,0.088583X0.043307*%
%FSLAX26Y26*%
G04*
G70*
G90*
G75*
G01*
G04 Top*
%LPD*%
X1791339Y677165D2*
D14*
X2019685D1*
X2112598D1*
X2145669Y710236D1*
X2125984D1*
Y866142D1*
X2244094D1*
X2362205D1*
X2500000Y807087D2*
D15*
X2470846D1*
D16*
X2421260D1*
X2362205Y866142D1*
X1841339Y472441D2*
Y498819D1*
X2019685Y677165D1*
X2696850Y1988189D2*
D17*
X2770079D1*
X2947244Y1811024D1*
X2847244D2*
X2814961D1*
X2657480Y1968504D1*
Y2027559D1*
X2696850Y2066929D1*
X3425197Y807087D2*
D18*
X3543307D1*
X3602362D1*
G03X3622047Y846457I-9843J29528D01*
G01*
X3621850Y914370D1*
X1555118Y1212598D2*
D17*
Y1157856D1*
X1515354Y1118092D1*
X1610236Y1157480D2*
X1554743D1*
X2716535Y590551D2*
Y503150D1*
X2747244Y472441D1*
X3366142Y2204724D2*
X3307087D1*
X3208661Y2106299D1*
Y1771654D1*
X3169291Y1732283D1*
X3228346D2*
Y2086614D1*
X3248031Y2106299D1*
X3346457D1*
X3444882Y2204724D1*
X2027559Y1988189D2*
X2070079D1*
X2247244Y1811024D1*
X2027559Y2066929D2*
X2091339D1*
X2347244Y1811024D1*
X1200787Y752756D2*
D19*
Y748031D1*
X1240157Y708661D1*
X1299213D1*
X1496063Y1023622D2*
D20*
Y986126D1*
D19*
Y964567D1*
X1456693Y925197D1*
Y728346D1*
X1909449Y885827D2*
X1846457D1*
Y1003937D2*
X1909449D1*
Y1122047D2*
X1846457D1*
X1610236Y1078740D2*
D20*
Y1066835D1*
D19*
Y1047244D1*
X1771654Y885827D1*
X1610236Y1098425D2*
D20*
X1647732D1*
D19*
X1696850D1*
X1732283Y1062992D1*
Y1043307D1*
X1771654Y1003937D1*
X1968504Y984252D2*
Y964567D1*
X1948819Y944882D1*
X1830709D1*
X1771654Y1003937D1*
X1610236Y1118110D2*
D20*
X1647732D1*
D19*
X1767717D1*
X1771654Y1122047D1*
X1968504Y1084252D2*
X1911024D1*
X1889764Y1062992D1*
X1830709D1*
X1771654Y1122047D1*
X1535433Y1212598D2*
D17*
Y1259843D1*
X1555118Y1279528D1*
X1515748Y1318898D2*
Y1212598D1*
X2791339Y590551D2*
X2933071D1*
X4036614Y1179134D2*
X4230315D1*
X4232283Y1177165D1*
X4036614Y1179134D2*
X3816929D1*
X3799213Y1161417D1*
X1594488Y1003937D2*
X1574803Y1023622D1*
X1555118D1*
X4036614Y1129134D2*
X4166142D1*
X4192913Y1102362D1*
X4036614Y1079134D2*
X4137402D1*
X4153543Y1062992D1*
X1421260Y1137795D2*
X1381890D1*
X1358268Y1161417D1*
X1610236Y1137795D2*
D20*
X1647732D1*
D19*
X1669291D1*
X1712598Y1181102D1*
X1791339D1*
X1850394Y1240157D1*
X1535433Y1023622D2*
D17*
Y964567D1*
X1574803Y925197D1*
X1677165Y669291D2*
X1594488D1*
X1592520Y671260D1*
X1515748Y925197D2*
Y1023622D1*
X1592520Y789370D2*
Y848425D1*
X1515748Y925197D1*
X2500000Y846457D2*
X2468504D1*
X2464567Y850394D1*
Y897638D1*
X2440945Y921260D1*
Y1039370D1*
X2438976Y1041339D1*
X2629921Y866142D2*
D15*
Y878524D1*
D16*
Y1015748D1*
X2637795Y1023622D1*
X984252Y984252D2*
D21*
X885827D1*
X826772Y925197D1*
X767717D1*
X2629921Y787402D2*
D17*
Y755906D1*
X2677165Y708661D1*
X2952756D2*
X2874016D1*
Y783465D2*
Y905512D1*
X2629921Y807087D2*
X2657480D1*
X2677165Y787402D1*
X2952756D2*
X2877953D1*
X2874016Y783465D1*
Y980315D2*
Y1102362D1*
X2629921Y826772D2*
X2696850D1*
X2716535Y807087D1*
X2952756Y905512D2*
Y944882D1*
X2913386Y984252D1*
X2877953D1*
X2874016Y980315D1*
X2500000Y826772D2*
D15*
X2473346D1*
D10*
X2456693D1*
X2433071Y850394D1*
X767717Y1035433D2*
D21*
Y1185039D1*
X783465Y1200787D1*
X629921D2*
X783465D1*
X1181102D2*
Y1358268D1*
X866142Y1476378D2*
Y1417323D1*
X925197Y1358268D1*
X1181102D1*
X3307087Y1629134D2*
D17*
X3144882D1*
X3110236Y1594488D1*
Y1555118D1*
X3307087Y1679134D2*
X3057087D1*
X2992126Y1614173D1*
Y1555118D1*
X4036614Y1879134D2*
X4124803D1*
X4153543Y1850394D1*
Y1815748D1*
Y1715748D2*
Y1732283D1*
X4114173Y1771654D1*
Y1811024D1*
X4094488Y1830709D1*
X4038189D1*
X4036614Y1829134D1*
X4153543Y1615748D2*
X4151969D1*
X4114173Y1653543D1*
Y1751969D1*
X4094488Y1771654D1*
X4044094D1*
X4036614Y1779134D1*
X4153543Y1515748D2*
X4133858D1*
X4094488Y1555118D1*
Y1712598D1*
X4074803Y1732283D1*
X4039764D1*
X4036614Y1729134D1*
X3779528Y1850394D2*
Y2007874D1*
X3877953Y2106299D1*
Y2169291D1*
X3759843D2*
Y2125984D1*
X3661417Y2027559D1*
Y1850394D1*
X3307087Y1279134D2*
X3739764D1*
X3779528Y1318898D1*
X3307087Y1329134D2*
X3651969D1*
X3661417Y1338583D1*
X1397638Y787402D2*
D18*
Y1003937D1*
X1417323Y1023622D1*
X1454724D1*
D20*
X1476378D1*
X1421260Y1078740D2*
Y1057087D1*
D18*
Y1027559D1*
X1417323Y1023622D1*
X1397638Y787402D2*
Y629921D1*
X1456693Y570866D1*
X1515748D1*
X1741339Y472441D2*
D16*
Y536614D1*
X1791339Y586614D1*
X1515748Y570866D2*
D14*
X1633858D1*
X1775591D1*
X1791339Y586614D1*
X2362205Y1988189D2*
D17*
Y1896063D1*
X2447244Y1811024D1*
X2747244D2*
Y1839370D1*
X2362205Y2224409D1*
X2547244Y1811024D2*
Y1881890D1*
X2362205Y2066929D1*
X2647244Y1811024D2*
Y1860630D1*
X2362205Y2145669D1*
X3031496Y1988189D2*
Y1926772D1*
X3147244Y1811024D1*
X3047244D2*
Y1854331D1*
X2972441Y1929134D1*
Y2007874D1*
X3031496Y2066929D1*
X2992126Y1480315D2*
Y1417323D1*
Y1299213D2*
Y433071D1*
X3011811Y413386D1*
X3129921D1*
X3149606Y433071D1*
Y470079D1*
X3147244Y472441D1*
X3110236Y1480315D2*
Y1417323D1*
Y1299213D2*
Y535433D1*
X3047244Y472441D1*
X1476378Y1212598D2*
D20*
X1484959D1*
X1496063D1*
X1484959D2*
D23*
Y1347164D1*
X1496063Y1358268D1*
X1653543D1*
X1692913Y1397638D1*
Y1515748D1*
X1421260Y1157480D2*
D17*
Y1185039D1*
X1437008Y1200787D1*
X1464567D1*
X1476378Y1212598D1*
X1421260Y1098425D2*
D10*
Y1108248D1*
Y1118110D1*
Y1108248D2*
D22*
X1344469D1*
X1299213Y1062992D1*
Y1008661D1*
D18*
Y788976D1*
X1297638Y787402D1*
X1517717Y671260D2*
Y789370D1*
Y671260D2*
D17*
X1458661D1*
X1456693Y669291D1*
X2047244Y472441D2*
D24*
X2147244D1*
Y608661D1*
D23*
X2145669Y610236D1*
X2027559Y2145669D2*
D16*
X2283465D1*
X2303150Y2165354D1*
Y2263780D1*
X2322835Y2283465D1*
X2618110D1*
X2637795Y2263780D1*
Y2165354D1*
X2657480Y2145669D1*
X2696850D1*
X3031496D1*
X3129921D1*
X3287402Y2303150D1*
X3503937D1*
X3523622Y2283465D1*
Y2204724D1*
X2629921Y846457D2*
D15*
X2659075D1*
D16*
X2736220D1*
X2755906Y826772D1*
D24*
Y669291D1*
X2736220Y649606D1*
X2657480D1*
X2618110Y610236D1*
X2145669D1*
X3307087Y1379134D2*
D16*
X3478701D1*
X3484774D1*
X3798031D1*
X3897638Y1279528D1*
X4036614Y1279134D2*
X3897638Y1279528D1*
X3307087Y1379134D2*
D24*
X2776772D1*
X2755906Y1358268D1*
Y826772D1*
X3484252Y1476378D2*
Y1384685D1*
X3478701Y1379134D1*
X3523622Y2204724D2*
Y1417982D1*
X3484774Y1379134D1*
X2753937Y1316929D2*
D17*
Y1356299D1*
X2755906Y1358268D1*
X2856299Y1379921D2*
X3306299D1*
X3307087Y1379134D1*
X1279528Y1850394D2*
D16*
X1338583D1*
X1377953Y1811024D1*
Y1673228D1*
Y1555118D1*
Y1361417D1*
X1381102Y1358268D1*
X1318898Y1673228D2*
D20*
X1377953D1*
X1318898Y1555118D2*
X1377953D1*
D18*
X3169291Y1732283D3*
X3228346D3*
X1456693Y728346D3*
X1909449Y885827D3*
Y1003937D3*
Y1122047D3*
X1555118Y1279528D3*
X1515748Y1318898D3*
X2933071Y590551D3*
X3799213Y1161417D3*
X1594488Y1003937D3*
X4192913Y1102362D3*
X4153543Y1062992D3*
X1358268Y1161417D3*
X1850394Y1240157D3*
X1574803Y925197D3*
X1677165Y669291D3*
X1515748Y925197D3*
D3*
X2677165Y708661D3*
X2952756D3*
X2677165Y787402D3*
X2952756D3*
X2716535Y807087D3*
X2952756Y905512D3*
X2433071Y850394D3*
X3779528Y1850394D3*
X3661417D3*
X3779528Y1318898D3*
X3661417Y1338583D3*
X2992126Y1417323D3*
Y1299213D3*
X3110236Y1417323D3*
Y1299213D3*
X1456693Y669291D3*
X3897638Y1279528D3*
D3*
X3484252Y1476378D3*
X3464567Y759843D3*
X3543307D3*
X3622047D3*
X3700787Y838583D3*
X3858268Y759843D3*
X3779528D3*
X3937008D3*
X4015748D3*
X4094488D3*
X3858268Y838583D3*
X3937008D3*
X4015748D3*
X4094488D3*
X3779528D3*
X3700787Y759843D3*
X3543307Y866142D3*
X3464567D3*
X3937008Y1023622D3*
X3858268D3*
X3779528D3*
X3858268Y944882D3*
X3700787Y1023622D3*
X3464567Y944882D3*
X3622047Y1023622D3*
X3937008Y944882D3*
X3543307Y1023622D3*
X3385827D3*
X3464567D3*
Y669291D3*
Y590551D3*
X3307087D3*
X3385827Y669291D3*
X3307087D3*
X3228346D3*
X3385827Y590551D3*
X3228346Y748031D3*
Y866142D3*
Y944882D3*
X3346457D3*
X1496063Y433071D3*
Y1137795D3*
X1535433D3*
Y1098425D3*
X1496063D3*
X2106299Y1043307D3*
X4035433Y1988189D3*
X3307087D3*
X3818898Y2322835D3*
X3948819Y1322835D3*
X1417323Y1279528D3*
X1948819Y472441D3*
X2283465Y688976D3*
Y787402D3*
X2566142Y848031D3*
X1614173Y433071D3*
X2565748Y805118D3*
X2283465Y551181D3*
X3051181Y1220472D3*
Y551181D3*
X2618110Y531496D3*
X2874016Y1240157D3*
X1870079Y767717D3*
X1614173Y1653543D3*
X2224409Y1043307D3*
X2283465D3*
X2460630Y1150787D3*
X2165354Y1043307D3*
X1535433Y1555118D3*
X1712598Y767717D3*
X2637795Y1240157D3*
X2834646Y531496D3*
X1358268Y1043307D3*
X1594488Y1200787D3*
X2500000Y944882D3*
X1221079Y2299836D2*
D24*
X2288638D1*
X2652280D2*
X3233510D1*
X3555894D2*
X3896987D1*
X1221079Y2274967D2*
X2268570D1*
X2672398D2*
X3208657D1*
X3560092D2*
X3701332D1*
X1221079Y2250098D2*
X1978871D1*
X2076255D2*
X2266664D1*
X2745542D2*
X2982827D1*
X3080160D2*
X3183803D1*
X3284898D2*
X3355043D1*
X3377186D2*
X3433803D1*
X3455941D2*
X3487123D1*
X3651059D2*
X3701332D1*
X1221079Y2225230D2*
X1978871D1*
X2076255D2*
X2266664D1*
X2410874D2*
X2601332D1*
X2745542D2*
X2982827D1*
X3080160D2*
X3158950D1*
X3260043D2*
X3282680D1*
X3651059D2*
X3701332D1*
X1221079Y2200361D2*
X1978871D1*
X2076255D2*
X2266664D1*
X2431138D2*
X2601332D1*
X2745542D2*
X2982827D1*
X3080160D2*
X3134047D1*
X3235190D2*
X3257827D1*
X3651059D2*
X3701332D1*
X1221079Y2175492D2*
X1989810D1*
X2456039D2*
X2601332D1*
X3210287D2*
X3232974D1*
X3651059D2*
X3701332D1*
X1221079Y2150623D2*
X1979164D1*
X2480894D2*
X2604654D1*
X3185434D2*
X3208071D1*
X3297886D2*
X3345864D1*
X3435678D2*
X3482143D1*
X3565122D2*
X3701332D1*
X1221079Y2125755D2*
X1983412D1*
X2505747D2*
X2626822D1*
X3160580D2*
X3183364D1*
X3410825D2*
X3482143D1*
X3565122D2*
X3701332D1*
X1221079Y2100886D2*
X1993764D1*
X2061362D2*
X2328432D1*
X2530650D2*
X2663051D1*
X2730650D2*
X2997719D1*
X3065268D2*
X3176186D1*
X3385923D2*
X3482143D1*
X3565122D2*
X3689858D1*
X3779623D2*
X3827651D1*
X1221079Y2076017D2*
X1979799D1*
X2127134D2*
X2314419D1*
X2555503D2*
X2649087D1*
X2744614D2*
X2983706D1*
X3079282D2*
X3176186D1*
X3262631D2*
X3482143D1*
X3565122D2*
X3664955D1*
X3754770D2*
X3802798D1*
X1221079Y2051148D2*
X1241567D1*
X1307260D2*
X1981655D1*
X2152035D2*
X2316323D1*
X2580356D2*
X2636196D1*
X2742759D2*
X2970815D1*
X3077378D2*
X3176186D1*
X3260825D2*
X3482143D1*
X3565122D2*
X3640102D1*
X3729916D2*
X3777895D1*
X3867710D2*
X3896987D1*
X1323423Y2026280D2*
X1998940D1*
X2056186D2*
X2087075D1*
X2176890D2*
X2333608D1*
X2605210D2*
X2625014D1*
X2725474D2*
X2946255D1*
X3060092D2*
X3176186D1*
X3260825D2*
X3482143D1*
X3565122D2*
X3628920D1*
X3705014D2*
X3753383D1*
X3842807D2*
X3896987D1*
X1324302Y2001411D2*
X1980825D1*
X2101743D2*
X2111983D1*
X2201743D2*
X2315444D1*
X2801743D2*
X2939955D1*
X3078256D2*
X3176186D1*
X3260825D2*
X3482143D1*
X3565122D2*
X3628920D1*
X3693882D2*
X3747035D1*
X3817954D2*
X3896987D1*
X595054Y1976542D2*
X1211147D1*
X1347886D2*
X1980386D1*
X2126646D2*
X2136808D1*
X2226646D2*
X2315004D1*
X2826646D2*
X2939955D1*
X3078696D2*
X3176186D1*
X3260825D2*
X3482143D1*
X3565122D2*
X3628920D1*
X3693882D2*
X3747035D1*
X3811996D2*
X4129360D1*
X603354Y1951673D2*
X1211147D1*
X1388950D2*
X1996791D1*
X2151499D2*
X2161698D1*
X2251499D2*
X2329702D1*
X2394663D2*
X2432583D1*
X2727622D2*
X2761684D1*
X2851499D2*
X2939955D1*
X3063999D2*
X3176186D1*
X3380844D2*
X3482143D1*
X3565122D2*
X3628920D1*
X3693882D2*
X3747035D1*
X3811996D2*
X3962856D1*
X4110386D2*
X4121005D1*
X605650Y1926804D2*
X1211147D1*
X1407310D2*
X2086587D1*
X2176352D2*
X2186588D1*
X2276352D2*
X2329702D1*
X2394663D2*
X2457436D1*
X2744076D2*
X2786587D1*
X2876352D2*
X2940054D1*
X3076352D2*
X3176186D1*
X3380844D2*
X3482143D1*
X3565122D2*
X3628920D1*
X3693882D2*
X3747035D1*
X3811996D2*
X3962856D1*
X4110386D2*
X4118728D1*
X602280Y1901936D2*
X1211147D1*
X1409311D2*
X2111440D1*
X2201206D2*
X2211398D1*
X2301206D2*
X2329702D1*
X2401206D2*
X2482290D1*
X2768930D2*
X2811440D1*
X2901206D2*
X2954751D1*
X3101206D2*
X3176186D1*
X3380844D2*
X3482143D1*
X3565122D2*
X3628920D1*
X3693882D2*
X3747035D1*
X3811996D2*
X3962856D1*
X592710Y1877067D2*
X1211147D1*
X1407504D2*
X2136294D1*
X2226108D2*
X2236295D1*
X2326108D2*
X2336530D1*
X2426108D2*
X2507192D1*
X2793832D2*
X2836294D1*
X2926108D2*
X2979604D1*
X3126108D2*
X3176186D1*
X3380844D2*
X3482143D1*
X3565122D2*
X3626186D1*
X3696664D2*
X3744252D1*
X3814780D2*
X3962856D1*
X574692Y1852198D2*
X1211147D1*
X1389975D2*
X1988735D1*
X2487730D2*
X2506752D1*
X2587730D2*
X2606752D1*
X2987730D2*
X3004458D1*
X3380844D2*
X3482143D1*
X3565122D2*
X3616714D1*
X3706138D2*
X3734828D1*
X3824252D2*
X3962856D1*
X433701Y1827329D2*
X445230D1*
X538999D2*
X841371D1*
X890903D2*
X1211147D1*
X1410287D2*
X1463051D1*
X1580112D2*
X1726822D1*
X1843882D2*
X1988735D1*
X3380844D2*
X3482143D1*
X3565122D2*
X3623550D1*
X3699302D2*
X3741664D1*
X3817416D2*
X3962856D1*
X4279184D2*
X4290702D1*
X433701Y1802461D2*
X812222D1*
X920102D2*
X1226235D1*
X1325766D2*
X1335972D1*
X1414438D2*
X1463051D1*
X1580112D2*
X1726822D1*
X1843882D2*
X1988735D1*
X3380844D2*
X3482143D1*
X3565122D2*
X3962856D1*
X4210483D2*
X4290688D1*
X433701Y1777592D2*
X803970D1*
X928306D2*
X1226822D1*
X1325180D2*
X1341470D1*
X1414438D2*
X1463051D1*
X1580112D2*
X1726822D1*
X1843882D2*
X1988735D1*
X3380844D2*
X3482143D1*
X3565122D2*
X3962856D1*
X4197055D2*
X4290688D1*
X433701Y1752723D2*
X806752D1*
X925522D2*
X1242251D1*
X1309702D2*
X1341470D1*
X1414438D2*
X1463051D1*
X1580112D2*
X1726822D1*
X1843882D2*
X1875894D1*
X1967416D2*
X3129848D1*
X3380844D2*
X3482143D1*
X3565122D2*
X3962856D1*
X4198130D2*
X4290688D1*
X433701Y1727854D2*
X822719D1*
X909604D2*
X1189516D1*
X1414438D2*
X1463051D1*
X1580112D2*
X1726822D1*
X1843882D2*
X1867739D1*
X1975571D2*
X3124770D1*
X3380844D2*
X3482143D1*
X3565122D2*
X3962856D1*
X4210727D2*
X4290688D1*
X433701Y1702986D2*
X1189516D1*
X1414438D2*
X1463051D1*
X1580112D2*
X1726822D1*
X1843882D2*
X1872524D1*
X1970786D2*
X3036440D1*
X3380844D2*
X3482143D1*
X3565122D2*
X3962856D1*
X4210580D2*
X4290688D1*
X433701Y1678117D2*
X1189516D1*
X1414438D2*
X1463051D1*
X1580112D2*
X1726822D1*
X1843882D2*
X1897427D1*
X1945883D2*
X3011196D1*
X3380844D2*
X3482143D1*
X3565122D2*
X3962856D1*
X4197543D2*
X4290688D1*
X433701Y1653248D2*
X1189516D1*
X1414438D2*
X1463051D1*
X1580112D2*
X1726822D1*
X1843882D2*
X2986294D1*
X3380844D2*
X3482143D1*
X3565122D2*
X3962856D1*
X4197642D2*
X4290688D1*
X433701Y1628379D2*
X1189516D1*
X1414438D2*
X2963247D1*
X3051206D2*
X3099234D1*
X3380844D2*
X3482143D1*
X3565122D2*
X3962856D1*
X4210630D2*
X4290688D1*
X433701Y1603510D2*
X1189516D1*
X1414438D2*
X1565492D1*
X1741587D2*
X2933608D1*
X3380844D2*
X3482143D1*
X3565122D2*
X3962856D1*
X4210727D2*
X4290688D1*
X433701Y1578642D2*
X1189516D1*
X1414438D2*
X1565492D1*
X1741587D2*
X2933608D1*
X3168735D2*
X3233315D1*
X3380844D2*
X3482143D1*
X3565122D2*
X3962856D1*
X4198031D2*
X4290688D1*
X433701Y1553773D2*
X1189516D1*
X1414438D2*
X1565492D1*
X1741587D2*
X2933608D1*
X3168735D2*
X3233315D1*
X3380844D2*
X3482143D1*
X3565122D2*
X3962856D1*
X4212046D2*
X4290688D1*
X433701Y1528904D2*
X803676D1*
X928598D2*
X1189516D1*
X1414438D2*
X1565492D1*
X1741587D2*
X2933608D1*
X3168735D2*
X3233315D1*
X3380844D2*
X3482143D1*
X3565122D2*
X3962856D1*
X4212046D2*
X4290688D1*
X433701Y1504035D2*
X803676D1*
X928598D2*
X1189516D1*
X1414438D2*
X1565492D1*
X1741587D2*
X2797768D1*
X2914828D2*
X2933608D1*
X3168735D2*
X3233315D1*
X3380844D2*
X3449819D1*
X3565122D2*
X3962856D1*
X4212046D2*
X4290688D1*
X433701Y1479167D2*
X443911D1*
X540318D2*
X803676D1*
X928598D2*
X1341470D1*
X1414438D2*
X1565492D1*
X1741587D2*
X2797768D1*
X2914828D2*
X2933608D1*
X3168735D2*
X3233315D1*
X3380844D2*
X3439614D1*
X3565122D2*
X3962856D1*
X4280503D2*
X4290680D1*
X575278Y1454298D2*
X803676D1*
X928598D2*
X1341470D1*
X1414438D2*
X1565492D1*
X1741587D2*
X1876967D1*
X1966343D2*
X2797768D1*
X2914828D2*
X2933608D1*
X3168735D2*
X3233315D1*
X3380844D2*
X3442787D1*
X3565122D2*
X3962856D1*
X4110386D2*
X4149135D1*
X593051Y1429429D2*
X803676D1*
X928598D2*
X1341470D1*
X1414438D2*
X1565492D1*
X1741587D2*
X1867886D1*
X1975424D2*
X2797768D1*
X2914828D2*
X2933608D1*
X3168735D2*
X3233315D1*
X3380844D2*
X3442787D1*
X3565122D2*
X3962856D1*
X4110386D2*
X4131362D1*
X602427Y1404560D2*
X818959D1*
X1315171D2*
X1341470D1*
X1415171D2*
X1647866D1*
X1730406D2*
X1871791D1*
X1971518D2*
X2744594D1*
X3823080D2*
X3962856D1*
X4110386D2*
X4122007D1*
X605650Y1379692D2*
X835562D1*
X1435386D2*
X1465542D1*
X1725424D2*
X1894350D1*
X1948959D2*
X2720864D1*
X3848031D2*
X3962856D1*
X4110386D2*
X4118728D1*
X603256Y1354823D2*
X860415D1*
X1439535D2*
X1448348D1*
X1702084D2*
X2624575D1*
X3872886D2*
X3962856D1*
X4110386D2*
X4121188D1*
X594760Y1329954D2*
X885268D1*
X1431919D2*
X1447475D1*
X1676596D2*
X2624575D1*
X2914828D2*
X2960659D1*
X3023618D2*
X3078774D1*
X3141684D2*
X3233315D1*
X3705259D2*
X3736244D1*
X3897787D2*
X3962856D1*
X4110386D2*
X4129654D1*
X578451Y1305085D2*
X1122573D1*
X1239634D2*
X1261000D1*
X1301206D2*
X1361000D1*
X1401206D2*
X1447475D1*
X1591244D2*
X2624575D1*
X2808530D2*
X2947818D1*
X3036459D2*
X3065883D1*
X3154575D2*
X3233315D1*
X4110386D2*
X4145962D1*
X547348Y1280217D2*
X1132143D1*
X1230063D2*
X1447475D1*
X1599839D2*
X1834487D1*
X1866294D2*
X2624575D1*
X2808530D2*
X2951919D1*
X3032358D2*
X3069986D1*
X3150474D2*
X3233315D1*
X3799008D2*
X3846402D1*
X4110386D2*
X4177066D1*
X433701Y1255348D2*
X571402D1*
X688462D2*
X768276D1*
X798667D2*
X1122573D1*
X1239634D2*
X1446402D1*
X1592270D2*
X1808462D1*
X1892319D2*
X2714419D1*
X2797398D2*
X2959634D1*
X3024594D2*
X3077748D1*
X3142710D2*
X3233315D1*
X3760531D2*
X3860512D1*
X4110386D2*
X4290688D1*
X433701Y1230479D2*
X571402D1*
X833482D2*
X1122573D1*
X1239634D2*
X1430386D1*
X1590024D2*
X1792299D1*
X1894028D2*
X2714419D1*
X2797398D2*
X2959634D1*
X3024594D2*
X3077748D1*
X3142710D2*
X3233315D1*
X3380844D2*
X3962856D1*
X4110386D2*
X4290688D1*
X433701Y1205610D2*
X571402D1*
X841782D2*
X1122573D1*
X1239634D2*
X1396938D1*
X1590024D2*
X1688783D1*
X1877182D2*
X2714419D1*
X2797398D2*
X2815504D1*
X2932554D2*
X2959634D1*
X3024594D2*
X3077748D1*
X3142710D2*
X3233315D1*
X3380844D2*
X3800356D1*
X433701Y1180741D2*
X571402D1*
X838266D2*
X1122573D1*
X1239634D2*
X1318227D1*
X1839390D2*
X2555678D1*
X2797398D2*
X2815504D1*
X2932554D2*
X2959634D1*
X3024594D2*
X3077748D1*
X3142710D2*
X3233315D1*
X3380844D2*
X3759146D1*
X433701Y1155873D2*
X571402D1*
X819467D2*
X1122573D1*
X1239634D2*
X1313882D1*
X1937241D2*
X2555678D1*
X2797398D2*
X2815504D1*
X2932554D2*
X2959634D1*
X3024594D2*
X3077748D1*
X3142710D2*
X3233315D1*
X3380844D2*
X3754848D1*
X433701Y1131004D2*
X718715D1*
X816684D2*
X1313150D1*
X2027035D2*
X2555678D1*
X2797398D2*
X2815504D1*
X2932554D2*
X2959634D1*
X3024594D2*
X3077748D1*
X3142710D2*
X3233315D1*
X3380844D2*
X3767398D1*
X3831039D2*
X3962856D1*
X4226450D2*
X4290688D1*
X433701Y1106135D2*
X718715D1*
X816684D2*
X1288247D1*
X2027035D2*
X2555678D1*
X2797398D2*
X2815504D1*
X2932554D2*
X2959634D1*
X3024594D2*
X3077748D1*
X3142710D2*
X3233315D1*
X3380844D2*
X3962856D1*
X4237486D2*
X4290688D1*
X433701Y1081266D2*
X703286D1*
X832163D2*
X1265151D1*
X2027035D2*
X2309584D1*
X2493539D2*
X2555630D1*
X2797398D2*
X2815504D1*
X2932554D2*
X2959634D1*
X3024594D2*
X3077748D1*
X3142710D2*
X3233315D1*
X3380844D2*
X3962856D1*
X433701Y1056398D2*
X703286D1*
X832163D2*
X1260219D1*
X1346714D2*
X1369692D1*
X1661802D2*
X1690444D1*
X2027035D2*
X2309584D1*
X2493539D2*
X2555630D1*
X2797398D2*
X2815504D1*
X2932554D2*
X2959634D1*
X3024594D2*
X3077748D1*
X3142710D2*
X3233315D1*
X3380844D2*
X3962856D1*
X433701Y1031529D2*
X703286D1*
X832163D2*
X913979D1*
X1054526D2*
X1250600D1*
X1347836D2*
X1363143D1*
X1674399D2*
X1699526D1*
X2027035D2*
X2309584D1*
X2493539D2*
X2555630D1*
X2797398D2*
X2815504D1*
X2932554D2*
X2959634D1*
X3024594D2*
X3077748D1*
X3142710D2*
X3233315D1*
X3380844D2*
X3962856D1*
X4110386D2*
X4122827D1*
X433701Y1006660D2*
X703286D1*
X832163D2*
X840022D1*
X1068735D2*
X1245278D1*
X1699252D2*
X1717055D1*
X2022348D2*
X2309584D1*
X2493539D2*
X2555630D1*
X2797398D2*
X2815504D1*
X2935825D2*
X2959634D1*
X3024594D2*
X3077748D1*
X3142710D2*
X3233315D1*
X3380844D2*
X3962856D1*
X4110386D2*
X4169839D1*
X433701Y981791D2*
X703286D1*
X1072251D2*
X1252798D1*
X2026987D2*
X2067446D1*
X2473423D2*
X2555630D1*
X2797398D2*
X2815504D1*
X3024594D2*
X3077748D1*
X3142710D2*
X3233315D1*
X3380844D2*
X3475160D1*
X3868539D2*
X3962856D1*
X4110386D2*
X4290688D1*
X433701Y956923D2*
X703286D1*
X1066879D2*
X1254507D1*
X1343930D2*
X1352921D1*
X1605210D2*
X1652114D1*
X2019907D2*
X2067446D1*
X2473423D2*
X2593423D1*
X2666391D2*
X2714419D1*
X2797398D2*
X2815504D1*
X3024594D2*
X3077748D1*
X3142710D2*
X3233315D1*
X3380844D2*
X3475160D1*
X3868539D2*
X3962856D1*
X4110386D2*
X4290688D1*
X433701Y932054D2*
X454262D1*
X529966D2*
X703286D1*
X901840D2*
X918715D1*
X1049790D2*
X1254507D1*
X1343930D2*
X1352921D1*
X1618979D2*
X1677016D1*
X1991343D2*
X2067446D1*
X2475034D2*
X2593423D1*
X2666391D2*
X2714419D1*
X2797398D2*
X2815504D1*
X3024594D2*
X3077748D1*
X3142710D2*
X3475160D1*
X3868539D2*
X4194448D1*
X4270151D2*
X4290688D1*
X571226Y907185D2*
X703286D1*
X876987D2*
X1254507D1*
X1343930D2*
X1352921D1*
X1615512D2*
X1701870D1*
X1948374D2*
X2067446D1*
X2495492D2*
X2593423D1*
X2666391D2*
X2714419D1*
X2797398D2*
X2815504D1*
X3024594D2*
X3077748D1*
X3142710D2*
X3292836D1*
X3439438D2*
X3475160D1*
X3868539D2*
X4153188D1*
X590806Y882316D2*
X703286D1*
X847202D2*
X1254507D1*
X1343930D2*
X1352921D1*
X1491684D2*
X1513735D1*
X1603550D2*
X1717055D1*
X1954038D2*
X2067446D1*
X2680551D2*
X2714419D1*
X2797398D2*
X2815504D1*
X3024594D2*
X3077748D1*
X3142710D2*
X3292836D1*
X3439438D2*
X3475160D1*
X3868539D2*
X4133608D1*
X601352Y857448D2*
X613604D1*
X646226D2*
X952358D1*
X1016147D2*
X1254507D1*
X1343930D2*
X1352921D1*
X1491684D2*
X1538588D1*
X1623618D2*
X1717055D1*
X1943247D2*
X2067446D1*
X2797398D2*
X2815504D1*
X2932554D2*
X2959634D1*
X3024594D2*
X3077748D1*
X3142710D2*
X3292836D1*
X3439438D2*
X3475160D1*
X3868539D2*
X4123062D1*
X680112Y832579D2*
X912222D1*
X1056283D2*
X1254507D1*
X1647104D2*
X1717055D1*
X1901059D2*
X2067446D1*
X2797398D2*
X2815504D1*
X2932554D2*
X2959634D1*
X3024594D2*
X3077748D1*
X3142710D2*
X3256459D1*
X3668247D2*
X4118862D1*
X688266Y807710D2*
X899135D1*
X1069370D2*
X1242934D1*
X1647104D2*
X1720034D1*
X1862631D2*
X2081996D1*
X2169955D2*
X2370083D1*
X2797398D2*
X2815504D1*
X3024594D2*
X3077748D1*
X3142710D2*
X3256459D1*
X3662387D2*
X4120375D1*
X684654Y782841D2*
X896352D1*
X1072154D2*
X1156508D1*
X1647104D2*
X1720034D1*
X1862631D2*
X2081996D1*
X2169955D2*
X2394936D1*
X2797398D2*
X2815504D1*
X3024594D2*
X3077748D1*
X3142710D2*
X3256459D1*
X3644858D2*
X4127798D1*
X827378Y757972D2*
X902504D1*
X1066000D2*
X1147084D1*
X1647104D2*
X1720034D1*
X1862631D2*
X1948354D1*
X2177475D2*
X2449331D1*
X2797398D2*
X2815504D1*
X3024594D2*
X3077748D1*
X3142710D2*
X3292836D1*
X3439438D2*
X3503286D1*
X827378Y733104D2*
X921059D1*
X1047446D2*
X1150698D1*
X1562436D2*
X1720034D1*
X1862631D2*
X1948354D1*
X2199302D2*
X2607827D1*
X2797398D2*
X2815504D1*
X3024594D2*
X3077748D1*
X3142710D2*
X3292836D1*
X3439438D2*
X3503286D1*
X827378Y708235D2*
X1172427D1*
X1647104D2*
X1658341D1*
X1696030D2*
X1720034D1*
X2204135D2*
X2632436D1*
X2797398D2*
X2815504D1*
X3024594D2*
X3077748D1*
X3142710D2*
X3292836D1*
X3439438D2*
X3503286D1*
X827378Y683366D2*
X1217299D1*
X2197348D2*
X2635512D1*
X2797398D2*
X2815504D1*
X3024594D2*
X3077748D1*
X3142710D2*
X3503286D1*
X827378Y658497D2*
X944887D1*
X1023618D2*
X1285073D1*
X1313315D2*
X1352895D1*
X2204184D2*
X2608755D1*
X2795883D2*
X2815492D1*
X2932554D2*
X2959634D1*
X3024594D2*
X3077748D1*
X3142710D2*
X3503286D1*
X827378Y633629D2*
X910562D1*
X1057944D2*
X1352895D1*
X1702280D2*
X1720034D1*
X1862631D2*
X1925600D1*
X2845932D2*
X2959634D1*
X3024594D2*
X3077748D1*
X3142710D2*
X3503286D1*
X827378Y608760D2*
X898550D1*
X1069955D2*
X1358608D1*
X1862631D2*
X1900747D1*
X3024594D2*
X3077748D1*
X3142710D2*
X3503286D1*
X827378Y583891D2*
X896499D1*
X1072007D2*
X1381459D1*
X1862631D2*
X1875861D1*
X1976987D2*
X2087172D1*
X2649399D2*
X2661986D1*
X3024594D2*
X3077748D1*
X3142710D2*
X3503286D1*
X827378Y559022D2*
X903482D1*
X1065024D2*
X1406314D1*
X1952084D2*
X2087172D1*
X2204184D2*
X2661978D1*
X2845932D2*
X2902455D1*
X3024594D2*
X3077748D1*
X3142710D2*
X3503286D1*
X827378Y534154D2*
X923598D1*
X1044907D2*
X1433315D1*
X1927231D2*
X2105776D1*
X2188706D2*
X2684047D1*
X2749008D2*
X2959634D1*
X3024594D2*
X3064076D1*
X3142710D2*
X3503286D1*
X827378Y509285D2*
X1457241D1*
X1902378D2*
X1988735D1*
X2191928D2*
X2202554D1*
X2291928D2*
X2302554D1*
X2391928D2*
X2402554D1*
X2491928D2*
X2502554D1*
X2591928D2*
X2602554D1*
X2791928D2*
X2802554D1*
X2891928D2*
X2902554D1*
X3191928D2*
X3503286D1*
X827378Y484416D2*
X1157680D1*
X1243882D2*
X1457241D1*
X1899839D2*
X1988735D1*
X3204478D2*
X3503286D1*
X827378Y459547D2*
X1147231D1*
X1254331D2*
X1457241D1*
X1899839D2*
X1988735D1*
X3204282D2*
X3503286D1*
X841343Y434678D2*
X1150063D1*
X1251499D2*
X1697475D1*
X1899839D2*
X1988735D1*
X3191147D2*
X3489370D1*
X970495Y912486D2*
X959245Y913367D1*
X948295Y915997D1*
X937891Y920307D1*
X928289Y926190D1*
X919724Y933504D1*
X915804Y937764D1*
X905101Y937760D1*
X856966Y889844D1*
X851064Y885555D1*
X844563Y882244D1*
X837625Y879990D1*
X830034Y878833D1*
X829642Y867209D1*
X705791D1*
Y1093421D1*
X721270D1*
X721224Y1154329D1*
X685955Y1154295D1*
X685941Y1144768D1*
X573902D1*
Y1256807D1*
X685941D1*
Y1247285D1*
X752236Y1247280D1*
X758033Y1250701D1*
X766154Y1254066D1*
X774701Y1256117D1*
X783465Y1256807D1*
X792228Y1256117D1*
X800776Y1254066D1*
X808896Y1250701D1*
X816392Y1246109D1*
X823076Y1240399D1*
X828786Y1233715D1*
X833378Y1226219D1*
X836743Y1218098D1*
X838794Y1209551D1*
X839484Y1200787D1*
X838794Y1192024D1*
X836743Y1183476D1*
X833378Y1175356D1*
X828786Y1167860D1*
X823076Y1161176D1*
X816392Y1155466D1*
X814206Y1154007D1*
X814209Y1093388D1*
X829642Y1093421D1*
Y993762D1*
X855633Y1019605D1*
X861534Y1023894D1*
X868035Y1027205D1*
X874974Y1029459D1*
X882178Y1030601D1*
X915759Y1030744D1*
X923864Y1038824D1*
X932974Y1045444D1*
X943008Y1050556D1*
X953719Y1054037D1*
X964841Y1055798D1*
X998031Y1055971D1*
X1009259Y1055136D1*
X1020209Y1052507D1*
X1030613Y1048197D1*
X1040215Y1042314D1*
X1048780Y1035000D1*
X1056093Y1026436D1*
X1061976Y1016833D1*
X1066286Y1006429D1*
X1068916Y995479D1*
X1069799Y984252D1*
X1068916Y973025D1*
X1066286Y962075D1*
X1061976Y951671D1*
X1056093Y942068D1*
X1048780Y933504D1*
X1040215Y926190D1*
X1030613Y920307D1*
X1020209Y915997D1*
X1009259Y913367D1*
X998031Y912484D1*
X970472Y912533D1*
X970495Y715635D2*
X959245Y716517D1*
X948295Y719147D1*
X937891Y723457D1*
X928289Y729340D1*
X919724Y736654D1*
X912411Y745218D1*
X906528Y754820D1*
X902218Y765224D1*
X899588Y776175D1*
X898705Y787402D1*
X899588Y798629D1*
X902218Y809579D1*
X906528Y819983D1*
X912411Y829585D1*
X919724Y838150D1*
X928289Y845463D1*
X937891Y851346D1*
X948295Y855656D1*
X959245Y858286D1*
X970472Y859169D1*
X1003663Y858948D1*
X1014785Y857186D1*
X1025496Y853706D1*
X1035530Y848593D1*
X1044640Y841974D1*
X1052604Y834010D1*
X1059223Y824900D1*
X1064336Y814866D1*
X1067816Y804155D1*
X1069577Y793033D1*
Y781770D1*
X1067816Y770648D1*
X1064336Y759937D1*
X1059223Y749903D1*
X1052604Y740793D1*
X1044640Y732829D1*
X1035530Y726210D1*
X1025496Y721097D1*
X1014785Y717617D1*
X1003663Y715856D1*
X970472Y715682D1*
X970480Y518787D2*
X960735Y519448D1*
X950954Y521488D1*
X941551Y524869D1*
X932709Y529522D1*
X924598Y535358D1*
X917378Y542265D1*
X911186Y550108D1*
X906143Y558734D1*
X902348Y567976D1*
X899873Y577656D1*
X898766Y587587D1*
X899050Y597575D1*
X900717Y607427D1*
X903738Y616951D1*
X908050Y625965D1*
X913573Y634291D1*
X920201Y641769D1*
X927801Y648255D1*
X936228Y653622D1*
X945320Y657768D1*
X954900Y660609D1*
X964781Y662093D1*
X980472Y662319D1*
X1004824Y661997D1*
X1014681Y660361D1*
X1024215Y657371D1*
X1033243Y653088D1*
X1041587Y647592D1*
X1049087Y640990D1*
X1055597Y633409D1*
X1060992Y624999D1*
X1065165Y615920D1*
X1068038Y606350D1*
X1069554Y596474D1*
X1069756Y588051D1*
X1068714Y578114D1*
X1066301Y568417D1*
X1062566Y559151D1*
X1057579Y550492D1*
X1051438Y542610D1*
X1044261Y535657D1*
X1036189Y529768D1*
X1027378Y525058D1*
X1017997Y521617D1*
X1008230Y519512D1*
X998031Y518783D1*
X970472Y518793D1*
X818685Y1536335D2*
X926098D1*
Y1423110D1*
X944488Y1404726D1*
X1125050Y1404760D1*
X1125083Y1414287D1*
X1237122D1*
Y1392949D1*
X1241491Y1397879D1*
X1248175Y1403589D1*
X1255671Y1408181D1*
X1263791Y1411546D1*
X1272339Y1413597D1*
X1281102Y1414287D1*
X1289866Y1413597D1*
X1298413Y1411546D1*
X1306534Y1408181D1*
X1314030Y1403589D1*
X1320714Y1397879D1*
X1326424Y1391196D1*
X1331096Y1383529D1*
X1335781Y1391196D1*
X1341491Y1397879D1*
X1343976Y1400177D1*
X1343961Y1499064D1*
X1192012Y1499098D1*
Y1611138D1*
X1296177Y1611129D1*
Y1617209D1*
X1192012D1*
Y1729248D1*
X1344012D1*
X1343961Y1797008D1*
X1324879Y1816025D1*
X1318388Y1816028D1*
X1320982Y1810432D1*
X1323093Y1803243D1*
X1324064Y1795814D1*
X1323870Y1784379D1*
X1322516Y1777010D1*
X1320035Y1769941D1*
X1316487Y1763341D1*
X1311958Y1757373D1*
X1306559Y1752178D1*
X1300419Y1747886D1*
X1293686Y1744597D1*
X1286525Y1742392D1*
X1279109Y1741325D1*
X1271617Y1741423D1*
X1264231Y1742681D1*
X1257130Y1745070D1*
X1250486Y1748531D1*
X1244458Y1752982D1*
X1239194Y1758314D1*
X1234822Y1764398D1*
X1231445Y1771087D1*
X1229148Y1778218D1*
X1227984Y1785619D1*
Y1797050D1*
X1229146Y1804451D1*
X1231442Y1811583D1*
X1233537Y1816024D1*
X1213665Y1816028D1*
Y1987122D1*
X1231957D1*
X1228982Y1993895D1*
X1227058Y2001136D1*
X1226280Y2009848D1*
X1226668Y2020008D1*
X1228213Y2027340D1*
X1230875Y2034343D1*
X1234593Y2040848D1*
X1239276Y2046697D1*
X1244807Y2051749D1*
X1251058Y2055883D1*
X1257873Y2058996D1*
X1265088Y2061014D1*
X1272529Y2061888D1*
X1280016Y2061597D1*
X1287366Y2060148D1*
X1294404Y2057577D1*
X1300957Y2053945D1*
X1306867Y2049340D1*
X1311991Y2043873D1*
X1316205Y2037678D1*
X1319407Y2030904D1*
X1321518Y2023715D1*
X1322490Y2016286D1*
X1322295Y2004852D1*
X1320941Y1997483D1*
X1318461Y1990413D1*
X1316843Y1987129D1*
X1345390Y1987122D1*
Y1956975D1*
X1353059Y1958938D1*
X1360525Y1959563D1*
X1367993Y1958972D1*
X1375268Y1957181D1*
X1382157Y1954238D1*
X1388480Y1950219D1*
X1394070Y1945231D1*
X1398780Y1939404D1*
X1402484Y1932894D1*
X1405088Y1925869D1*
X1406521Y1918514D1*
X1406807Y1905886D1*
X1406537Y1884773D1*
X1405126Y1877416D1*
X1402543Y1870383D1*
X1398858Y1863861D1*
X1394165Y1858020D1*
X1388592Y1853014D1*
X1385896Y1851130D1*
X1403801Y1833100D1*
X1406936Y1828785D1*
X1409357Y1824031D1*
X1411005Y1818959D1*
X1411840Y1813690D1*
X1411945Y1711024D1*
Y1405070D1*
X1417484Y1400865D1*
X1423699Y1394650D1*
X1428867Y1387538D1*
X1432858Y1379706D1*
X1435575Y1371345D1*
X1436949Y1362663D1*
Y1353873D1*
X1435575Y1345190D1*
X1432858Y1336829D1*
X1428867Y1328997D1*
X1423699Y1321886D1*
X1417484Y1315671D1*
X1410373Y1310503D1*
X1402541Y1306512D1*
X1394180Y1303795D1*
X1385497Y1302421D1*
X1376707D1*
X1368025Y1303795D1*
X1359664Y1306512D1*
X1351832Y1310503D1*
X1344720Y1315671D1*
X1338505Y1321886D1*
X1333337Y1328997D1*
X1331016Y1332836D1*
X1326424Y1325340D1*
X1320714Y1318656D1*
X1314030Y1312946D1*
X1306534Y1308354D1*
X1298413Y1304990D1*
X1289866Y1302938D1*
X1281102Y1302248D1*
X1272339Y1302938D1*
X1263791Y1304990D1*
X1255671Y1308354D1*
X1248175Y1312946D1*
X1241491Y1318656D1*
X1237133Y1323626D1*
X1237122Y1302248D1*
X1227601D1*
X1227594Y1256852D1*
X1237122Y1256807D1*
Y1144768D1*
X1125083D1*
Y1256807D1*
X1134605D1*
X1134610Y1302203D1*
X1125083Y1302248D1*
Y1311769D1*
X921549Y1311919D1*
X914344Y1313060D1*
X907406Y1315315D1*
X900904Y1318626D1*
X895003Y1322915D1*
X856966Y1360748D1*
X830789Y1387129D1*
X826500Y1393030D1*
X823189Y1399531D1*
X820934Y1406470D1*
X819778Y1414060D1*
X813598Y1416421D1*
X806185D1*
Y1536335D1*
X818685D1*
X926046Y1769155D2*
X925266Y1761699D1*
X923563Y1754402D1*
X920962Y1747371D1*
X917504Y1740722D1*
X913243Y1734555D1*
X908247Y1728969D1*
X902592Y1724049D1*
X896367Y1719874D1*
X889672Y1716507D1*
X882608Y1714003D1*
X875286Y1712398D1*
X867822Y1711720D1*
X860331Y1711979D1*
X852930Y1713171D1*
X845738Y1715276D1*
X838864Y1718262D1*
X832415Y1722083D1*
X826493Y1726677D1*
X821192Y1731976D1*
X816593Y1737894D1*
X812768Y1744340D1*
X809777Y1751213D1*
X807667Y1758404D1*
X806471Y1765803D1*
X806207Y1773294D1*
X806881Y1780759D1*
X808479Y1788081D1*
X810979Y1795147D1*
X814341Y1801845D1*
X818513Y1808072D1*
X823429Y1813731D1*
X829013Y1818731D1*
X835176Y1822995D1*
X841824Y1826457D1*
X848852Y1829063D1*
X856150Y1830772D1*
X863604Y1831556D1*
X871097Y1831406D1*
X878513Y1830320D1*
X885736Y1828318D1*
X892652Y1825430D1*
X899155Y1821703D1*
X905142Y1817193D1*
X910518Y1811971D1*
X915202Y1806119D1*
X919118Y1799730D1*
X922207Y1792900D1*
X924420Y1785740D1*
X925722Y1778358D1*
X926046Y1769155D1*
X2181957Y918224D2*
X2182004Y907627D1*
X2188075Y908862D1*
Y993028D1*
X2300114D1*
Y907627D1*
X2306185Y908862D1*
Y993028D1*
X2312093D1*
X2312091Y1097358D1*
X2491059D1*
Y985319D1*
X2470894D1*
X2470991Y933629D1*
X2487373Y917117D1*
X2491290Y911255D1*
X2493731Y904639D1*
X2494554Y897518D1*
X2548146Y897516D1*
X2548350Y896571D1*
X2581778D1*
X2581776Y897516D1*
X2595984D1*
X2595929Y965682D1*
X2558154Y965634D1*
Y1191846D1*
X2716929D1*
X2716913Y1260903D1*
X2627051Y1260909D1*
Y1372949D1*
X2719882Y1373189D1*
X2722659Y1378640D1*
X2726256Y1383591D1*
X2751449Y1408783D1*
X2756399Y1412381D1*
X2761850Y1415157D1*
X2767669Y1417049D1*
X2773713Y1418005D1*
X2800259Y1418126D1*
X2800280Y1506807D1*
X2912319D1*
Y1418088D1*
X2949867Y1418126D1*
X2951052Y1427184D1*
X2951352Y1428244D1*
X2936106Y1428232D1*
Y1607201D1*
X2962131D1*
X2962503Y1618865D1*
X2964417Y1625651D1*
X2967862Y1631802D1*
X2970919Y1635381D1*
X3037609Y1701940D1*
X3043470Y1705857D1*
X3050085Y1708298D1*
X3057087Y1709126D1*
X3057427Y1709113D1*
X3133991Y1709126D1*
X3130266Y1716119D1*
X3128218Y1722423D1*
X3127181Y1728970D1*
Y1735597D1*
X3128218Y1742144D1*
X3130266Y1748448D1*
X3133276Y1754354D1*
X3134665Y1756433D1*
X3125806Y1759268D1*
X3117974Y1763259D1*
X3110862Y1768427D1*
X3104647Y1774642D1*
X3099479Y1781753D1*
X3097157Y1785592D1*
X3092566Y1778096D1*
X3086856Y1771412D1*
X3080172Y1765702D1*
X3072676Y1761110D1*
X3064555Y1757745D1*
X3056008Y1755694D1*
X3047244Y1755004D1*
X3038480Y1755694D1*
X3029933Y1757745D1*
X3021812Y1761110D1*
X3014316Y1765702D1*
X3007633Y1771412D1*
X3001923Y1778096D1*
X2997251Y1785762D1*
X2992566Y1778096D1*
X2986856Y1771412D1*
X2980172Y1765702D1*
X2972676Y1761110D1*
X2964555Y1757745D1*
X2956008Y1755694D1*
X2947244Y1755004D1*
X2938480Y1755694D1*
X2929933Y1757745D1*
X2921812Y1761110D1*
X2914316Y1765702D1*
X2907633Y1771412D1*
X2901923Y1778096D1*
X2897251Y1785762D1*
X2892566Y1778096D1*
X2886856Y1771412D1*
X2880172Y1765702D1*
X2872676Y1761110D1*
X2864555Y1757745D1*
X2856008Y1755694D1*
X2847244Y1755004D1*
X2838480Y1755694D1*
X2829933Y1757745D1*
X2821812Y1761110D1*
X2814316Y1765702D1*
X2807633Y1771412D1*
X2801923Y1778096D1*
X2797251Y1785762D1*
X2792566Y1778096D1*
X2786856Y1771412D1*
X2780172Y1765702D1*
X2772676Y1761110D1*
X2764555Y1757745D1*
X2756008Y1755694D1*
X2747244Y1755004D1*
X2738480Y1755694D1*
X2729933Y1757745D1*
X2721812Y1761110D1*
X2714316Y1765702D1*
X2707633Y1771412D1*
X2701923Y1778096D1*
X2697251Y1785762D1*
X2692566Y1778096D1*
X2686856Y1771412D1*
X2680172Y1765702D1*
X2672676Y1761110D1*
X2664555Y1757745D1*
X2656008Y1755694D1*
X2647244Y1755004D1*
X2638480Y1755694D1*
X2629933Y1757745D1*
X2621812Y1761110D1*
X2614316Y1765702D1*
X2607633Y1771412D1*
X2601923Y1778096D1*
X2597251Y1785762D1*
X2592566Y1778096D1*
X2586856Y1771412D1*
X2580172Y1765702D1*
X2572676Y1761110D1*
X2564555Y1757745D1*
X2556008Y1755694D1*
X2547244Y1755004D1*
X2538480Y1755694D1*
X2529933Y1757745D1*
X2521812Y1761110D1*
X2514316Y1765702D1*
X2507633Y1771412D1*
X2501923Y1778096D1*
X2497251Y1785762D1*
X2492566Y1778096D1*
X2486856Y1771412D1*
X2480172Y1765702D1*
X2472676Y1761110D1*
X2464555Y1757745D1*
X2456008Y1755694D1*
X2447244Y1755004D1*
X2438480Y1755694D1*
X2429933Y1757745D1*
X2421812Y1761110D1*
X2414316Y1765702D1*
X2407633Y1771412D1*
X2401923Y1778096D1*
X2397251Y1785762D1*
X2392566Y1778096D1*
X2386856Y1771412D1*
X2380172Y1765702D1*
X2372676Y1761110D1*
X2364555Y1757745D1*
X2356008Y1755694D1*
X2347244Y1755004D1*
X2338480Y1755694D1*
X2329933Y1757745D1*
X2321812Y1761110D1*
X2314316Y1765702D1*
X2307633Y1771412D1*
X2301923Y1778096D1*
X2297251Y1785762D1*
X2292566Y1778096D1*
X2286856Y1771412D1*
X2280172Y1765702D1*
X2272676Y1761110D1*
X2264555Y1757745D1*
X2256008Y1755694D1*
X2247244Y1755004D1*
X2238480Y1755694D1*
X2229933Y1757745D1*
X2221812Y1761110D1*
X2214316Y1765702D1*
X2207633Y1771412D1*
X2201923Y1778096D1*
X2197251Y1785762D1*
X2192681Y1778257D1*
X2187900Y1772484D1*
X2182392Y1767403D1*
X2176256Y1763101D1*
X2169600Y1759657D1*
X2162543Y1757134D1*
X2155213Y1755573D1*
X2147740Y1755007D1*
X2140257Y1755441D1*
X2132902Y1756871D1*
X2125801Y1759270D1*
X2119085Y1762596D1*
X2112873Y1766787D1*
X2107276Y1771772D1*
X2103268Y1776344D1*
X2103264Y1755004D1*
X1991224D1*
Y1867043D1*
X2103264D1*
Y1845724D1*
X2109448Y1852371D1*
X2115304Y1857046D1*
X2121734Y1860898D1*
X2128619Y1863857D1*
X2135837Y1865870D1*
X2143261Y1866902D1*
X2148853Y1867010D1*
X2060211Y1955537D1*
X2054701Y1950831D1*
X2048524Y1947045D1*
X2041828Y1944272D1*
X2034782Y1942580D1*
X2027559Y1942012D1*
X2020336Y1942580D1*
X2013290Y1944272D1*
X2006594Y1947045D1*
X2000417Y1950831D1*
X1994907Y1955537D1*
X1990201Y1961047D1*
X1986415Y1967224D1*
X1983642Y1973920D1*
X1981950Y1980966D1*
X1981382Y1988189D1*
X1981950Y1995412D1*
X1983642Y2002458D1*
X1986415Y2009154D1*
X1990201Y2015331D1*
X1994907Y2020841D1*
X2000417Y2025547D1*
X2003420Y2027554D1*
X1997570Y2031816D1*
X1992446Y2036940D1*
X1988186Y2042802D1*
X1984896Y2049259D1*
X1982657Y2056150D1*
X1981524Y2063306D1*
Y2070552D1*
X1982657Y2077709D1*
X1984896Y2084600D1*
X1988186Y2091056D1*
X1992446Y2096919D1*
X1997570Y2102042D1*
X2003420Y2106294D1*
X1997570Y2110556D1*
X1992446Y2115680D1*
X1988186Y2121542D1*
X1984896Y2127999D1*
X1982657Y2134890D1*
X1981524Y2142046D1*
Y2149293D1*
X1982657Y2156449D1*
X1984896Y2163340D1*
X1988186Y2169797D1*
X1992446Y2175659D1*
X1994820Y2178228D1*
X1981382Y2178232D1*
Y2270587D1*
X2073736D1*
Y2179639D1*
X2269210Y2179661D1*
X2269262Y2266446D1*
X2270097Y2271715D1*
X2271745Y2276787D1*
X2274167Y2281541D1*
X2277302Y2285856D1*
X2300759Y2309312D1*
X2305073Y2312448D1*
X2309827Y2314869D1*
X2314899Y2316517D1*
X2320168Y2317352D1*
X2422835Y2317457D1*
X2620777Y2317352D1*
X2626046Y2316517D1*
X2631118Y2314869D1*
X2635871Y2312448D1*
X2640186Y2309312D1*
X2663643Y2285856D1*
X2666778Y2281541D1*
X2669199Y2276787D1*
X2670924Y2271336D1*
X2673173Y2270587D1*
X2743028D1*
Y2179639D1*
X2985278Y2179661D1*
X2985319Y2270587D1*
X3077673D1*
Y2179639D1*
X3115823Y2179661D1*
X3260912Y2324732D1*
X1235996Y2324705D1*
X1218602Y2307302D1*
X1218449Y2000604D1*
X1217240Y1996885D1*
X1214941Y1993720D1*
X1211777Y1991421D1*
X1208058Y1990213D1*
X1193602Y1990059D1*
X584959D1*
X591077Y1979552D1*
X594728Y1971634D1*
X597747Y1963453D1*
X600114Y1955059D1*
X601815Y1946507D1*
X602840Y1937848D1*
X603182Y1929134D1*
X602840Y1920420D1*
X601815Y1911761D1*
X600114Y1903209D1*
X597747Y1894815D1*
X594728Y1886634D1*
X591077Y1878715D1*
X586818Y1871108D1*
X581972Y1863857D1*
X576573Y1857008D1*
X570655Y1850605D1*
X564252Y1844686D1*
X557403Y1839287D1*
X550152Y1834442D1*
X542545Y1830182D1*
X534626Y1826531D1*
X526445Y1823513D1*
X518051Y1821146D1*
X509499Y1819445D1*
X500840Y1818420D1*
X492126Y1818077D1*
X483412Y1818420D1*
X474753Y1819445D1*
X466201Y1821146D1*
X457807Y1823513D1*
X449626Y1826531D1*
X441707Y1830182D1*
X431182Y1836392D1*
X431201Y1470785D1*
X441707Y1476904D1*
X449626Y1480555D1*
X457807Y1483573D1*
X466201Y1485941D1*
X474753Y1487642D1*
X483412Y1488667D1*
X492126Y1489009D1*
X500840Y1488667D1*
X509499Y1487642D1*
X518051Y1485941D1*
X526445Y1483573D1*
X534626Y1480555D1*
X542545Y1476904D1*
X550152Y1472644D1*
X557403Y1467799D1*
X564252Y1462400D1*
X570655Y1456482D1*
X576573Y1450079D1*
X581972Y1443230D1*
X586818Y1435979D1*
X591077Y1428371D1*
X594728Y1420453D1*
X597747Y1412272D1*
X600114Y1403878D1*
X601815Y1395325D1*
X602840Y1386667D1*
X603182Y1377953D1*
X602840Y1369239D1*
X601815Y1360580D1*
X600114Y1352028D1*
X597747Y1343634D1*
X594728Y1335453D1*
X591077Y1327534D1*
X586818Y1319927D1*
X581972Y1312676D1*
X576573Y1305827D1*
X570655Y1299424D1*
X564252Y1293505D1*
X557403Y1288106D1*
X550152Y1283261D1*
X542545Y1279001D1*
X534626Y1275350D1*
X526445Y1272332D1*
X518051Y1269965D1*
X509499Y1268264D1*
X500840Y1267239D1*
X492126Y1266896D1*
X483412Y1267239D1*
X474753Y1268264D1*
X466201Y1269965D1*
X457807Y1272332D1*
X449626Y1275350D1*
X441707Y1279001D1*
X431182Y1285211D1*
X431201Y919613D1*
X441707Y925723D1*
X449626Y929374D1*
X457807Y932392D1*
X466201Y934760D1*
X474753Y936461D1*
X483412Y937486D1*
X492126Y937828D1*
X500840Y937486D1*
X509499Y936461D1*
X518051Y934760D1*
X526445Y932392D1*
X534626Y929374D1*
X542545Y925723D1*
X550152Y921463D1*
X557403Y916618D1*
X564252Y911219D1*
X570655Y905301D1*
X576573Y898898D1*
X581972Y892049D1*
X586818Y884798D1*
X591077Y877190D1*
X594728Y869272D1*
X597747Y861091D1*
X600492Y850793D1*
X606661Y854112D1*
X613672Y856761D1*
X620974Y858450D1*
X628434Y859150D1*
X635923Y858846D1*
X643304Y857547D1*
X650445Y855274D1*
X657219Y852068D1*
X663505Y847987D1*
X669189Y843102D1*
X674171Y837504D1*
X678361Y831290D1*
X681684Y824572D1*
X684080Y817471D1*
X685507Y810114D1*
X685885Y800651D1*
X685051Y793202D1*
X683230Y785933D1*
X680454Y778971D1*
X676774Y772442D1*
X671686Y765833D1*
X814357Y765693D1*
X818076Y764484D1*
X821240Y762185D1*
X823539Y759021D1*
X824748Y755302D1*
X824902Y740846D1*
Y448580D1*
X842304Y431201D1*
X1154071D1*
X1151260Y438671D1*
X1149739Y446008D1*
X1149301Y453488D1*
X1149951Y460954D1*
X1151680Y468245D1*
X1154448Y475209D1*
X1158198Y481697D1*
X1162849Y487571D1*
X1168303Y492709D1*
X1174446Y497000D1*
X1181147Y500356D1*
X1188264Y502702D1*
X1195646Y503991D1*
X1203135Y504194D1*
X1210576Y503308D1*
X1217810Y501353D1*
X1224684Y498367D1*
X1231050Y494416D1*
X1236777Y489583D1*
X1241740Y483970D1*
X1245837Y477696D1*
X1248979Y470892D1*
X1251102Y463706D1*
X1252159Y456287D1*
X1252037Y447764D1*
X1250770Y440378D1*
X1248444Y433255D1*
X1247539Y431189D1*
X1703387Y431201D1*
X1698741Y436059D1*
X1693573Y443171D1*
X1689878Y450303D1*
Y443980D1*
X1577839D1*
Y528980D1*
X1571768Y529345D1*
X1571719Y518783D1*
X1577839D1*
Y529381D1*
X1571768Y528146D1*
Y443980D1*
X1459728D1*
Y528638D1*
X1450085Y529146D1*
X1443640Y530693D1*
X1437516Y533230D1*
X1431865Y536693D1*
X1426824Y540997D1*
X1365518Y602488D1*
X1361622Y607850D1*
X1358613Y613757D1*
X1356564Y620060D1*
X1355528Y626608D1*
X1355398Y692421D1*
Y731337D1*
X1345428Y731382D1*
X1348185Y724573D1*
X1350071Y716717D1*
X1350705Y708661D1*
X1350071Y700606D1*
X1348185Y692749D1*
X1345092Y685285D1*
X1340870Y678395D1*
X1335623Y672251D1*
X1329479Y667004D1*
X1322589Y662782D1*
X1315125Y659689D1*
X1307268Y657803D1*
X1299213Y657169D1*
X1291157Y657803D1*
X1283301Y659689D1*
X1275836Y662782D1*
X1268946Y667004D1*
X1262802Y672251D1*
X1259304Y676175D1*
X1237608Y676269D1*
X1230117Y677760D1*
X1223180Y680957D1*
X1217182Y685686D1*
X1216959Y685928D1*
X1201610Y701257D1*
X1192732Y701898D1*
X1184875Y703783D1*
X1177411Y706877D1*
X1170521Y711098D1*
X1164377Y716345D1*
X1159130Y722490D1*
X1154908Y729379D1*
X1151815Y736844D1*
X1149929Y744701D1*
X1149295Y752756D1*
X1149929Y760811D1*
X1151815Y768668D1*
X1154908Y776133D1*
X1159130Y783022D1*
X1164377Y789167D1*
X1170521Y794413D1*
X1177411Y798635D1*
X1184875Y801728D1*
X1192732Y803614D1*
X1200787Y804248D1*
X1208843Y803614D1*
X1216699Y801728D1*
X1224164Y798635D1*
X1231054Y794413D1*
X1237198Y789167D1*
X1241732Y783928D1*
X1241791Y791797D1*
X1243165Y800479D1*
X1245882Y808840D1*
X1249873Y816672D1*
X1255041Y823783D1*
X1256988Y825891D1*
X1256972Y979260D1*
X1253333Y985285D1*
X1250240Y992749D1*
X1248354Y1000606D1*
X1247720Y1008661D1*
X1248354Y1016717D1*
X1250240Y1024573D1*
X1253333Y1032038D1*
X1257555Y1038928D1*
X1262727Y1044991D1*
X1262833Y1065856D1*
X1263728Y1071510D1*
X1265499Y1076957D1*
X1268098Y1082059D1*
X1271463Y1086692D1*
X1318664Y1134052D1*
X1323196Y1137888D1*
X1319243Y1145253D1*
X1317194Y1151556D1*
X1316157Y1158104D1*
Y1164731D1*
X1317194Y1171278D1*
X1319243Y1177581D1*
X1322252Y1183488D1*
X1326148Y1188850D1*
X1330835Y1193537D1*
X1336197Y1197433D1*
X1342104Y1200442D1*
X1348407Y1202491D1*
X1354954Y1203528D1*
X1361581D1*
X1368129Y1202491D1*
X1374432Y1200442D1*
X1380339Y1197433D1*
X1385701Y1193537D1*
X1389921Y1189354D1*
X1391636Y1189731D1*
X1393551Y1196517D1*
X1396996Y1202668D1*
X1400052Y1206247D1*
X1417529Y1223593D1*
X1423391Y1227510D1*
X1430007Y1229951D1*
X1437008Y1230780D1*
X1437348Y1230766D1*
X1443991Y1230780D1*
X1444080Y1240731D1*
X1445566Y1248201D1*
X1448755Y1255117D1*
X1449986Y1256959D1*
X1450075Y1349909D1*
X1450934Y1355333D1*
X1452631Y1360555D1*
X1455123Y1365448D1*
X1458350Y1369890D1*
X1471320Y1383010D1*
X1475495Y1386577D1*
X1480177Y1389446D1*
X1485249Y1391547D1*
X1490589Y1392829D1*
X1496063Y1393260D1*
X1639080D1*
X1657906Y1412117D1*
X1657850Y1420358D1*
X1567996D1*
Y1611138D1*
X1739091D1*
Y1420358D1*
X1727909D1*
X1727798Y1394892D1*
X1726938Y1389469D1*
X1725241Y1384247D1*
X1722749Y1379354D1*
X1719522Y1374912D1*
X1678286Y1333525D1*
X1674112Y1329958D1*
X1669429Y1327089D1*
X1664357Y1324988D1*
X1659017Y1323706D1*
X1653543Y1323276D1*
X1557791D1*
X1557879Y1321681D1*
X1564979Y1320601D1*
X1571282Y1318552D1*
X1577189Y1315543D1*
X1582551Y1311647D1*
X1587238Y1306961D1*
X1591134Y1301598D1*
X1594143Y1295692D1*
X1596192Y1289388D1*
X1597228Y1282841D1*
Y1276214D1*
X1596192Y1269667D1*
X1594143Y1263364D1*
X1591134Y1257457D1*
X1587238Y1252094D1*
X1585294Y1249992D1*
X1586950Y1244214D1*
X1587516Y1238189D1*
Y1197339D1*
X1594602Y1197340D1*
X1594646Y1189878D1*
X1638155Y1189794D1*
X1645507Y1188398D1*
X1652341Y1185353D1*
X1658297Y1180820D1*
X1662049Y1176472D1*
X1691496Y1205810D1*
X1697848Y1210054D1*
X1705013Y1212697D1*
X1712598Y1213594D1*
X1712927Y1213581D1*
X1777882Y1213594D1*
X1808311Y1244025D1*
X1809320Y1250018D1*
X1811369Y1256322D1*
X1814378Y1262228D1*
X1818274Y1267591D1*
X1822961Y1272277D1*
X1828323Y1276173D1*
X1834230Y1279182D1*
X1840533Y1281231D1*
X1847080Y1282268D1*
X1853707D1*
X1860255Y1281231D1*
X1866558Y1279182D1*
X1872465Y1276173D1*
X1877827Y1272277D1*
X1882513Y1267591D1*
X1886409Y1262228D1*
X1889419Y1256322D1*
X1891467Y1250018D1*
X1892504Y1243471D1*
Y1236844D1*
X1891467Y1230297D1*
X1889419Y1223993D1*
X1886409Y1218087D1*
X1882513Y1212724D1*
X1877827Y1208038D1*
X1872465Y1204142D1*
X1866558Y1201133D1*
X1860255Y1199084D1*
X1854287Y1198115D1*
X1834251Y1178063D1*
X1898539Y1178067D1*
Y1162882D1*
X1906135Y1164157D1*
X1912762D1*
X1919310Y1163121D1*
X1925613Y1161072D1*
X1931520Y1158063D1*
X1936882Y1154167D1*
X1941568Y1149480D1*
X1945465Y1144118D1*
X1947525Y1140270D1*
X2024524Y1140272D1*
Y1028232D1*
X2003186D1*
X2008115Y1023864D1*
X2013825Y1017180D1*
X2018417Y1009684D1*
X2021782Y1001563D1*
X2023833Y993016D1*
X2024524Y984252D1*
X2023833Y975488D1*
X2021782Y966941D1*
X2018417Y958820D1*
X2013825Y951324D1*
X2008115Y944640D1*
X2001432Y938930D1*
X1993936Y934339D1*
X1985815Y930974D1*
X1979172Y929301D1*
X1969921Y920175D1*
X1963570Y915932D1*
X1956404Y913287D1*
X1948819Y912390D1*
X1948491Y912403D1*
X1942324Y912390D1*
X1947085Y905004D1*
X1949622Y898879D1*
X1951169Y892434D1*
X1951689Y885827D1*
X1951169Y879219D1*
X1949622Y872774D1*
X1947085Y866650D1*
X1943622Y860999D1*
X1939318Y855958D1*
X1934277Y851654D1*
X1928626Y848190D1*
X1922501Y845654D1*
X1916056Y844106D1*
X1909449Y843587D1*
X1902841Y844106D1*
X1898528Y845052D1*
X1898539Y829807D1*
X1719571D1*
Y891965D1*
X1630148Y981382D1*
X1626608Y976504D1*
X1621921Y971818D1*
X1616559Y967921D1*
X1610652Y964912D1*
X1604349Y962864D1*
X1595951Y961755D1*
X1602236Y957316D1*
X1606923Y952630D1*
X1610819Y947268D1*
X1613828Y941361D1*
X1615877Y935058D1*
X1616913Y928510D1*
Y921883D1*
X1615877Y915336D1*
X1613828Y909033D1*
X1610819Y903126D1*
X1606923Y897764D1*
X1602236Y893077D1*
X1595144Y888213D1*
X1615325Y867903D1*
X1619243Y862042D1*
X1621684Y855427D1*
X1622512Y848425D1*
X1622499Y848085D1*
X1622512Y845349D1*
X1644602Y845390D1*
Y733350D1*
X1559983D1*
X1565437Y727280D1*
X1644602D1*
Y699301D1*
X1649732Y701411D1*
X1655094Y705307D1*
X1661001Y708316D1*
X1667304Y710365D1*
X1673852Y711402D1*
X1680479D1*
X1687026Y710365D1*
X1693329Y708316D1*
X1699236Y705307D1*
X1704598Y701411D1*
X1709285Y696724D1*
X1713181Y691362D1*
X1716190Y685455D1*
X1718239Y679152D1*
X1719276Y672605D1*
Y665978D1*
X1718239Y659430D1*
X1716190Y653127D1*
X1713181Y647220D1*
X1709285Y641858D1*
X1704598Y637172D1*
X1699236Y633276D1*
X1693329Y630266D1*
X1687026Y628218D1*
X1680479Y627181D1*
X1673852D1*
X1667304Y628218D1*
X1661001Y630266D1*
X1655094Y633276D1*
X1649732Y637172D1*
X1647421Y639308D1*
X1644602Y627280D1*
X1644587Y622949D1*
X1689878D1*
Y612353D1*
X1722482Y612358D1*
X1722524Y631807D1*
X1860154D1*
Y565644D1*
X1930101Y635654D1*
X1860164Y635673D1*
X1860154Y631972D1*
X1722524D1*
Y722358D1*
X1860154D1*
X1852654Y722524D1*
X1722524D1*
Y812909D1*
X1860154D1*
X1860138Y718657D1*
X1950870Y718678D1*
Y767634D1*
X2084513D1*
X2084495Y814059D1*
X2069965D1*
Y993028D1*
X2182004D1*
Y908028D1*
X2188075Y907663D1*
X2188123Y918224D1*
X2182004Y824621D2*
Y814059D1*
X2167503D1*
X2167476Y761797D1*
X2174940Y758001D1*
X2182051Y752833D1*
X2188266Y746618D1*
X2193434Y739507D1*
X2197425Y731675D1*
X2200142Y723314D1*
X2201516Y714631D1*
Y705841D1*
X2200142Y697159D1*
X2197425Y688798D1*
X2193434Y680966D1*
X2188266Y673854D1*
X2182051Y667639D1*
X2180311Y666266D1*
X2201689Y666256D1*
Y649215D1*
X2601969Y649228D1*
X2632157Y679256D1*
X2637106Y682853D1*
X2640115Y684504D1*
X2641150Y686591D1*
X2638140Y692497D1*
X2636092Y698801D1*
X2635055Y705348D1*
X2634932Y708493D1*
X2607115Y736427D1*
X2603198Y742289D1*
X2600757Y748904D1*
X2599933Y756025D1*
X2581776Y756028D1*
X2581571Y756972D1*
X2548143D1*
X2548146Y756028D1*
X2451854D1*
Y773108D1*
X2418593Y773199D1*
X2413324Y774034D1*
X2408252Y775682D1*
X2403499Y778104D1*
X2399184Y781239D1*
X2366184Y814091D1*
X2306185Y814059D1*
Y824655D1*
X2300114Y818224D1*
Y814059D1*
X2188075D1*
Y824655D1*
X2716900Y965634D2*
X2663873D1*
X2663913Y897535D1*
X2678067Y897516D1*
Y880475D1*
X2716936Y880449D1*
X2716913Y965591D1*
X3824433Y2296177D2*
X3899521D1*
X3899508Y2307325D1*
X3882105Y2324705D1*
X3530398D1*
X3549470Y2305541D1*
X3552605Y2301226D1*
X3555026Y2296472D1*
X3556675Y2291400D1*
X3557509Y2286131D1*
X3557614Y2250896D1*
X3648539Y2250902D1*
Y2158547D1*
X3562592D1*
X3562493Y1414923D1*
X3562450Y1414554D1*
X3572274Y1413126D1*
X3800698Y1413021D1*
X3805967Y1412186D1*
X3811039Y1410538D1*
X3815793Y1408117D1*
X3820108Y1404982D1*
X3892778Y1332459D1*
X3904245Y1321248D1*
X3910690Y1319701D1*
X3916815Y1317164D1*
X3922802Y1313436D1*
X3965361Y1313328D1*
X3965358Y1573343D1*
Y1773343D1*
X3965407Y1923343D1*
X3965358Y1973343D1*
X4107870D1*
Y1909134D1*
X4123089Y1909126D1*
X4121570Y1920420D1*
X4121227Y1929134D1*
X4121570Y1937848D1*
X4122594Y1946507D1*
X4124295Y1955059D1*
X4126663Y1963453D1*
X4129681Y1971634D1*
X4133332Y1979552D1*
X4139542Y1990077D1*
X3910052Y1990213D1*
X3906333Y1991421D1*
X3903169Y1993720D1*
X3900870Y1996885D1*
X3899661Y2000604D1*
X3899508Y2015059D1*
Y2085420D1*
X3809520Y1995374D1*
Y1880091D1*
X3813701Y1875222D1*
X3817164Y1869571D1*
X3819701Y1863446D1*
X3821248Y1857001D1*
X3821768Y1850394D1*
X3821248Y1843786D1*
X3819701Y1837341D1*
X3817164Y1831217D1*
X3813701Y1825566D1*
X3809396Y1820525D1*
X3804356Y1816220D1*
X3798705Y1812757D1*
X3792580Y1810220D1*
X3786135Y1808673D1*
X3779528Y1808154D1*
X3772920Y1808673D1*
X3766475Y1810220D1*
X3760350Y1812757D1*
X3754699Y1816220D1*
X3749659Y1820525D1*
X3745354Y1825566D1*
X3741891Y1831217D1*
X3739354Y1837341D1*
X3737807Y1843786D1*
X3737287Y1850394D1*
X3737807Y1857001D1*
X3739354Y1863446D1*
X3741891Y1869571D1*
X3745354Y1875222D1*
X3749545Y1880138D1*
X3749627Y2010227D1*
X3751004Y2017142D1*
X3753955Y2023545D1*
X3758320Y2029081D1*
X3758570Y2029312D1*
X3846467Y2117228D1*
X3821933Y2117209D1*
Y2296177D1*
X3824433D1*
X3706323D2*
X3815862D1*
Y2117209D1*
X3788470D1*
X3786566Y2112367D1*
X3782648Y2106505D1*
X3691385Y2015110D1*
X3691409Y1880147D1*
X3695591Y1875222D1*
X3699054Y1869571D1*
X3701591Y1863446D1*
X3703138Y1857001D1*
X3703657Y1850394D1*
X3703138Y1843786D1*
X3701591Y1837341D1*
X3699054Y1831217D1*
X3695591Y1825566D1*
X3691286Y1820525D1*
X3686245Y1816220D1*
X3680594Y1812757D1*
X3674470Y1810220D1*
X3668025Y1808673D1*
X3661417Y1808154D1*
X3654810Y1808673D1*
X3648365Y1810220D1*
X3642240Y1812757D1*
X3636589Y1816220D1*
X3631549Y1820525D1*
X3627244Y1825566D1*
X3623781Y1831217D1*
X3621244Y1837341D1*
X3619697Y1843786D1*
X3619177Y1850394D1*
X3619697Y1857001D1*
X3621244Y1863446D1*
X3623781Y1869571D1*
X3627244Y1875222D1*
X3631434Y1880138D1*
X3631517Y2029912D1*
X3632894Y2036827D1*
X3635845Y2043230D1*
X3640210Y2048766D1*
X3640459Y2048997D1*
X3708676Y2117234D1*
X3703823Y2117209D1*
Y2296177D1*
X3706323D1*
X1719571Y983806D2*
Y1010075D1*
X1707576Y1022205D1*
X1703333Y1028556D1*
X1700689Y1035722D1*
X1699791Y1043307D1*
X1699804Y1043635D1*
X1699791Y1049567D1*
X1683378Y1065946D1*
X1665551Y1065933D1*
X1662037Y1059697D1*
X1656867Y1054105D1*
X1652469Y1050957D1*
X1719563Y983869D1*
X1741843Y1827563D2*
X1841382D1*
Y1640720D1*
X1729343D1*
Y1827563D1*
X1741843D1*
X1478063D2*
X1577602D1*
Y1640720D1*
X1465563D1*
Y1827563D1*
X1478063D1*
X2201689Y571285D2*
Y554217D1*
X2186210D1*
X2186236Y512617D1*
X2192566Y505369D1*
X2197238Y497702D1*
X2201923Y505369D1*
X2207633Y512052D1*
X2214316Y517762D1*
X2221812Y522354D1*
X2229933Y525719D1*
X2238480Y527770D1*
X2247244Y528461D1*
X2256008Y527770D1*
X2264555Y525719D1*
X2272676Y522354D1*
X2280172Y517762D1*
X2286856Y512052D1*
X2292566Y505369D1*
X2297238Y497702D1*
X2301923Y505369D1*
X2307633Y512052D1*
X2314316Y517762D1*
X2321812Y522354D1*
X2329933Y525719D1*
X2338480Y527770D1*
X2347244Y528461D1*
X2356008Y527770D1*
X2364555Y525719D1*
X2372676Y522354D1*
X2380172Y517762D1*
X2386856Y512052D1*
X2392566Y505369D1*
X2397238Y497702D1*
X2401923Y505369D1*
X2407633Y512052D1*
X2414316Y517762D1*
X2421812Y522354D1*
X2429933Y525719D1*
X2438480Y527770D1*
X2447244Y528461D1*
X2456008Y527770D1*
X2464555Y525719D1*
X2472676Y522354D1*
X2480172Y517762D1*
X2486856Y512052D1*
X2492566Y505369D1*
X2497238Y497702D1*
X2501923Y505369D1*
X2507633Y512052D1*
X2514316Y517762D1*
X2521812Y522354D1*
X2529933Y525719D1*
X2538480Y527770D1*
X2547244Y528461D1*
X2556008Y527770D1*
X2564555Y525719D1*
X2572676Y522354D1*
X2580172Y517762D1*
X2586856Y512052D1*
X2592566Y505369D1*
X2597238Y497702D1*
X2601923Y505369D1*
X2607633Y512052D1*
X2614316Y517762D1*
X2621812Y522354D1*
X2629933Y525719D1*
X2638480Y527770D1*
X2647244Y528461D1*
X2656008Y527770D1*
X2664555Y525719D1*
X2672676Y522354D1*
X2680172Y517762D1*
X2686566Y512322D1*
X2686543Y534546D1*
X2664453Y534531D1*
Y601475D1*
X2643433Y580587D1*
X2638484Y576990D1*
X2633031Y574213D1*
X2627213Y572322D1*
X2621169Y571365D1*
X2543110Y571244D1*
X2201655D1*
X2108281Y554217D2*
X2089650D1*
Y635710D1*
X2088500Y630134D1*
Y586697D1*
X1977319D1*
X1897362Y506770D1*
X1897358Y431146D1*
X1991180Y431201D1*
X1991224Y528461D1*
X2103264D1*
Y511420D1*
X2107633Y512052D1*
X2108276Y512648D1*
X2108252Y554228D1*
X1354118Y843421D2*
X1355437D1*
X1355528Y1007251D1*
X1356564Y1013798D1*
X1358613Y1020101D1*
X1361622Y1026008D1*
X1365518Y1031370D1*
X1379059Y1045096D1*
X1378741Y1051117D1*
X1372761Y1055832D1*
X1368046Y1061812D1*
X1364857Y1068728D1*
X1364049Y1071772D1*
X1352594Y1064766D1*
X1335711Y1047883D1*
X1338367Y1042102D1*
X1343117Y1035566D1*
X1346785Y1028366D1*
X1349282Y1020682D1*
X1350546Y1012701D1*
Y1004622D1*
X1349282Y996640D1*
X1346785Y988957D1*
X1343117Y981757D1*
X1341441Y979248D1*
X1341618Y843421D1*
X1354118D1*
X4188198Y1571768D2*
X4209563D1*
Y1486660D1*
X4223570Y1488667D1*
X4232283Y1489009D1*
X4240997Y1488667D1*
X4249656Y1487642D1*
X4258209Y1485941D1*
X4266602Y1483573D1*
X4274783Y1480555D1*
X4282702Y1476904D1*
X4293227Y1470694D1*
X4293209Y1836293D1*
X4282702Y1830182D1*
X4274783Y1826531D1*
X4266602Y1823513D1*
X4258209Y1821146D1*
X4249656Y1819445D1*
X4240997Y1818420D1*
X4232283Y1818077D1*
X4223570Y1818420D1*
X4209331Y1820555D1*
X4209390Y1811353D1*
X4208016Y1802671D1*
X4205299Y1794310D1*
X4201308Y1786478D1*
X4196140Y1779366D1*
X4189925Y1773151D1*
X4182814Y1767983D1*
X4178975Y1765661D1*
X4186471Y1761070D1*
X4193155Y1755360D1*
X4198865Y1748676D1*
X4203457Y1741180D1*
X4206822Y1733059D1*
X4208873Y1724512D1*
X4209563Y1715748D1*
X4208873Y1706984D1*
X4206822Y1698437D1*
X4203457Y1690316D1*
X4198865Y1682820D1*
X4193155Y1676136D1*
X4186471Y1670427D1*
X4178804Y1665755D1*
X4186471Y1661070D1*
X4193155Y1655360D1*
X4198865Y1648676D1*
X4203457Y1641180D1*
X4206822Y1633059D1*
X4208873Y1624512D1*
X4209563Y1615748D1*
X4208873Y1606984D1*
X4206822Y1598437D1*
X4203457Y1590316D1*
X4198865Y1582820D1*
X4193155Y1576136D1*
X4188157Y1571757D1*
X4157171Y1459728D2*
X4107823D1*
X4107870Y1260843D1*
Y1209134D1*
X4172307Y1209126D1*
X4172327Y1219406D1*
X4292240D1*
Y1134925D1*
X4219828D1*
X4225033Y1129795D1*
X4228929Y1124433D1*
X4231938Y1118526D1*
X4233987Y1112223D1*
X4235024Y1105676D1*
Y1099049D1*
X4233987Y1092501D1*
X4231640Y1085550D1*
X4292240Y1085547D1*
Y1001067D1*
X4172327D1*
Y1025159D1*
X4166596Y1022819D1*
X4160151Y1021272D1*
X4153543Y1020752D1*
X4146936Y1021272D1*
X4140491Y1022819D1*
X4134366Y1025356D1*
X4128715Y1028819D1*
X4123675Y1033123D1*
X4119370Y1038164D1*
X4115907Y1043815D1*
X4113661Y1049150D1*
X4107861Y1049142D1*
X4107870Y934925D1*
X3965358D1*
Y1149134D1*
X3839593Y1149142D1*
X3836849Y1142240D1*
X3833386Y1136589D1*
X3829081Y1131549D1*
X3824041Y1127244D1*
X3818390Y1123781D1*
X3812265Y1121244D1*
X3805820Y1119697D1*
X3799213Y1119177D1*
X3792605Y1119697D1*
X3786160Y1121244D1*
X3780035Y1123781D1*
X3774385Y1127244D1*
X3769344Y1131549D1*
X3765039Y1136589D1*
X3761576Y1142240D1*
X3759039Y1148365D1*
X3757492Y1154810D1*
X3756972Y1161417D1*
X3757492Y1168025D1*
X3759039Y1174470D1*
X3761576Y1180594D1*
X3765039Y1186245D1*
X3769344Y1191286D1*
X3774385Y1195591D1*
X3780035Y1199054D1*
X3786160Y1201591D1*
X3792605Y1203138D1*
X3799665Y1203639D1*
X3805451Y1206843D1*
X3812238Y1208757D1*
X3816929Y1209126D1*
X3965318D1*
X3965358Y1245365D1*
X3922466Y1245354D1*
X3916815Y1241891D1*
X3910690Y1239354D1*
X3904245Y1237807D1*
X3897638Y1237287D1*
X3891030Y1237807D1*
X3884585Y1239354D1*
X3878461Y1241891D1*
X3872810Y1245354D1*
X3867769Y1249659D1*
X3863465Y1254699D1*
X3860001Y1260350D1*
X3857465Y1266475D1*
X3855879Y1273241D1*
X3820465Y1308629D1*
X3818552Y1302734D1*
X3815543Y1296827D1*
X3811647Y1291465D1*
X3806961Y1286778D1*
X3801598Y1282882D1*
X3795692Y1279873D1*
X3789388Y1277824D1*
X3782841Y1276787D1*
X3779696Y1276664D1*
X3759243Y1256328D1*
X3753381Y1252411D1*
X3746765Y1249970D1*
X3739764Y1249142D1*
X3739424Y1249155D1*
X3378387Y1249142D1*
X3378343Y1148343D1*
Y984925D1*
Y934925D1*
X3235831D1*
X3235879Y1173343D1*
Y1273343D1*
X3235831Y1340150D1*
X3120710Y1340142D1*
X3126400Y1338238D1*
X3132307Y1335228D1*
X3137669Y1331332D1*
X3142356Y1326646D1*
X3146252Y1321283D1*
X3149261Y1315377D1*
X3151310Y1309073D1*
X3152346Y1302526D1*
Y1295899D1*
X3151310Y1289352D1*
X3149261Y1283049D1*
X3146252Y1277142D1*
X3142356Y1271780D1*
X3140219Y1269469D1*
X3140136Y533080D1*
X3139293Y528051D1*
X3151639Y528287D1*
X3160322Y526913D1*
X3168682Y524197D1*
X3176514Y520206D1*
X3183626Y515038D1*
X3189841Y508823D1*
X3195009Y501711D1*
X3199000Y493879D1*
X3201717Y485518D1*
X3203091Y476836D1*
Y468046D1*
X3201717Y459364D1*
X3199000Y451003D1*
X3195009Y443171D1*
X3189841Y436059D1*
X3185077Y431185D1*
X3488413Y431201D1*
X3505807Y448604D1*
X3505961Y755302D1*
X3507169Y759021D1*
X3509469Y762185D1*
X3512633Y764484D1*
X3513444Y764858D1*
X3512633Y764484D1*
X3513444Y764858D1*
X3473336Y764846D1*
X3473343Y759925D1*
X3436966D1*
X3436925Y699886D1*
X3295358D1*
X3295232Y759925D1*
X3258941D1*
Y854248D1*
X3295357D1*
X3295358Y914287D1*
X3436925D1*
Y854239D1*
X3473343Y854248D1*
Y849316D1*
X3477688Y849327D1*
X3477642Y985626D1*
X3866059D1*
Y843114D1*
X3665522D1*
X3665806Y834176D1*
X3665193Y827051D1*
X3664503Y822449D1*
X3661535Y811781D1*
X3657703Y802984D1*
X3652756Y794764D1*
X3646778Y787260D1*
X3639873Y780600D1*
X3632156Y774898D1*
X3623761Y770253D1*
X3615194Y766843D1*
X3611854Y765940D1*
X3968307Y765846D1*
X4139450D1*
X4133332Y776353D1*
X4129681Y784272D1*
X4126663Y792453D1*
X4124295Y800846D1*
X4122594Y809399D1*
X4121570Y818058D1*
X4121227Y826772D1*
X4121570Y835486D1*
X4122594Y844144D1*
X4124295Y852697D1*
X4126663Y861091D1*
X4129681Y869272D1*
X4133332Y877190D1*
X4137592Y884798D1*
X4142437Y892049D1*
X4147836Y898898D1*
X4153755Y905301D1*
X4160157Y911219D1*
X4167007Y916618D1*
X4174257Y921463D1*
X4181865Y925723D1*
X4189783Y929374D1*
X4197965Y932392D1*
X4206358Y934760D1*
X4214911Y936461D1*
X4223570Y937486D1*
X4232283Y937828D1*
X4240997Y937486D1*
X4249656Y936461D1*
X4258209Y934760D1*
X4266602Y932392D1*
X4274783Y929374D1*
X4282702Y925723D1*
X4293227Y919513D1*
X4293209Y1285121D1*
X4282702Y1279001D1*
X4274783Y1275350D1*
X4266602Y1272332D1*
X4258209Y1269965D1*
X4249656Y1268264D1*
X4240997Y1267239D1*
X4232283Y1266896D1*
X4223570Y1267239D1*
X4214911Y1268264D1*
X4206358Y1269965D1*
X4197965Y1272332D1*
X4189783Y1275350D1*
X4181865Y1279001D1*
X4174257Y1283261D1*
X4167007Y1288106D1*
X4160157Y1293505D1*
X4153755Y1299424D1*
X4147836Y1305827D1*
X4142437Y1312676D1*
X4137592Y1319927D1*
X4133332Y1327534D1*
X4129681Y1335453D1*
X4126663Y1343634D1*
X4124295Y1352028D1*
X4122594Y1360580D1*
X4121570Y1369239D1*
X4121227Y1377953D1*
X4121570Y1386667D1*
X4122594Y1395325D1*
X4124295Y1403878D1*
X4126663Y1412272D1*
X4129681Y1420453D1*
X4133332Y1428371D1*
X4137592Y1435979D1*
X4142437Y1443230D1*
X4147836Y1450079D1*
X4157282Y1459741D1*
X2746505Y528432D2*
X2756008Y527770D1*
X2764555Y525719D1*
X2772676Y522354D1*
X2780172Y517762D1*
X2786856Y512052D1*
X2792566Y505369D1*
X2797238Y497702D1*
X2801923Y505369D1*
X2807633Y512052D1*
X2814316Y517762D1*
X2821812Y522354D1*
X2829933Y525719D1*
X2838480Y527770D1*
X2847244Y528461D1*
X2856008Y527770D1*
X2864555Y525719D1*
X2872676Y522354D1*
X2880172Y517762D1*
X2886856Y512052D1*
X2892566Y505369D1*
X2897238Y497702D1*
X2901923Y505369D1*
X2907633Y512052D1*
X2914316Y517762D1*
X2921812Y522354D1*
X2929933Y525719D1*
X2938480Y527770D1*
X2947244Y528461D1*
X2956008Y527770D1*
X2962157Y526395D1*
X2962134Y559878D1*
X2955142Y554535D1*
X2949235Y551526D1*
X2942932Y549478D1*
X2936385Y548441D1*
X2929757D1*
X2923210Y549478D1*
X2916907Y551526D1*
X2911000Y554535D1*
X2905638Y558432D1*
X2903327Y560568D1*
X2843374Y560559D1*
X2843421Y534531D1*
X2746499D1*
X3022108Y522492D2*
X3029933Y525719D1*
X3038480Y527770D1*
X3047244Y528461D1*
X3056008Y527770D1*
X3059496Y527077D1*
X3080244Y547933D1*
Y1269466D1*
X3076063Y1274385D1*
X3072600Y1280035D1*
X3070063Y1286160D1*
X3068516Y1292605D1*
X3067996Y1299213D1*
X3068516Y1305820D1*
X3070063Y1312265D1*
X3072600Y1318390D1*
X3076063Y1324041D1*
X3080367Y1329081D1*
X3085408Y1333386D1*
X3091059Y1336849D1*
X3097184Y1339386D1*
X3099915Y1340156D1*
X3002546Y1340142D1*
X3008290Y1338238D1*
X3014197Y1335228D1*
X3019559Y1331332D1*
X3024245Y1326646D1*
X3028142Y1321283D1*
X3031151Y1315377D1*
X3033199Y1309073D1*
X3034236Y1302526D1*
Y1295899D1*
X3033199Y1289352D1*
X3031151Y1283049D1*
X3028142Y1277142D1*
X3024245Y1271780D1*
X3022109Y1269469D1*
X3022118Y522504D1*
X2234992Y1865660D2*
X2242849Y1866870D1*
X2248909Y1866978D1*
X2078839Y2036937D1*
X2062672Y2036940D1*
X2057549Y2031816D1*
X2051698Y2027564D1*
X2057549Y2023302D1*
X2062681Y2018168D1*
X2074770Y2017812D1*
X2081556Y2015898D1*
X2087707Y2012453D1*
X2091286Y2009396D1*
X2235021Y1865661D1*
X2334992Y1865660D2*
X2342849Y1866870D1*
X2348909Y1866978D1*
X2339399Y1876584D1*
X2335482Y1882446D1*
X2333041Y1889062D1*
X2332213Y1896063D1*
X2332226Y1896403D1*
X2332215Y1953076D1*
X2327092Y1958199D1*
X2322832Y1964062D1*
X2319542Y1970518D1*
X2317303Y1977409D1*
X2316169Y1984566D1*
Y1991812D1*
X2317303Y1998969D1*
X2319542Y2005860D1*
X2322832Y2012316D1*
X2327092Y2018178D1*
X2332215Y2023302D1*
X2338066Y2027554D1*
X2332215Y2031816D1*
X2327092Y2036940D1*
X2322832Y2042802D1*
X2319542Y2049259D1*
X2317303Y2056150D1*
X2316169Y2063306D1*
Y2070552D1*
X2317303Y2077709D1*
X2319542Y2084600D1*
X2322832Y2091056D1*
X2327092Y2096919D1*
X2332215Y2102042D1*
X2338066Y2106294D1*
X2332215Y2110556D1*
X2327092Y2115680D1*
X2322832Y2121542D1*
X2319542Y2127999D1*
X2318060Y2132203D1*
X2305541Y2119822D1*
X2301226Y2116686D1*
X2296472Y2114265D1*
X2291400Y2112617D1*
X2286131Y2111782D1*
X2183465Y2111677D1*
X2058806D1*
X2051698Y2106304D1*
X2057549Y2102042D1*
X2062681Y2096908D1*
X2093692Y2096829D1*
X2100606Y2095453D1*
X2107009Y2092501D1*
X2112546Y2088136D1*
X2112777Y2087887D1*
X2335001Y1865681D1*
X2340997Y1874856D1*
X2336633Y1880392D1*
X2333681Y1886795D1*
X2332304Y1893710D1*
X2332213Y1896063D1*
X2434992Y1865660D2*
X2442849Y1866870D1*
X2451639D1*
X2460322Y1865496D1*
X2468682Y1862780D1*
X2476514Y1858789D1*
X2483626Y1853621D1*
X2489841Y1847406D1*
X2495009Y1840294D1*
X2497331Y1836455D1*
X2501923Y1843951D1*
X2507633Y1850635D1*
X2514316Y1856345D1*
X2517274Y1858320D1*
X2517198Y1869521D1*
X2407507Y1979213D1*
X2404867Y1970518D1*
X2401577Y1964062D1*
X2397318Y1958199D1*
X2392184Y1953067D1*
X2392251Y1908432D1*
X2435030Y1865654D1*
X2577214Y1858320D2*
X2583626Y1853621D1*
X2589841Y1847406D1*
X2595009Y1840294D1*
X2597331Y1836455D1*
X2601923Y1843951D1*
X2607633Y1850635D1*
X2611416Y1854058D1*
X2576408Y1888891D1*
X2577236Y1881890D1*
Y1858306D1*
X2813034Y1855333D2*
X2817974Y1858789D1*
X2825806Y1862780D1*
X2834167Y1865496D1*
X2842849Y1866870D1*
X2848875Y1866979D1*
X2757579Y1958197D1*
X2731963Y1958199D1*
X2726840Y1953076D1*
X2720076Y1948311D1*
X2813031Y1855369D1*
X2934992Y1865660D2*
X2942849Y1866870D1*
X2951639D1*
X2960322Y1865496D1*
X2968682Y1862780D1*
X2976514Y1858789D1*
X2983626Y1853621D1*
X2989841Y1847406D1*
X2995009Y1840294D1*
X2997331Y1836455D1*
X3001923Y1843951D1*
X3008098Y1851067D1*
X2949635Y1909655D1*
X2945718Y1915517D1*
X2943277Y1922133D1*
X2942449Y1929134D1*
X2942462Y1929474D1*
X2942541Y2010227D1*
X2943916Y2017142D1*
X2946869Y2023545D1*
X2951234Y2029081D1*
X2951483Y2029312D1*
X2985461Y2063306D1*
Y2070552D1*
X2986594Y2077709D1*
X2988833Y2084600D1*
X2992123Y2091056D1*
X2996383Y2096919D1*
X3001507Y2102042D1*
X3007357Y2106294D1*
X3000290Y2111681D1*
X2728127Y2111677D1*
X2720990Y2106304D1*
X2726840Y2102042D1*
X2731963Y2096919D1*
X2736223Y2091056D1*
X2739513Y2084600D1*
X2741752Y2077709D1*
X2742886Y2070552D1*
Y2063306D1*
X2741752Y2056150D1*
X2739513Y2049259D1*
X2736223Y2042802D1*
X2731963Y2036940D1*
X2726840Y2031816D1*
X2720990Y2027564D1*
X2726840Y2023302D1*
X2731972Y2018168D1*
X2772432Y2018089D1*
X2779346Y2016714D1*
X2785749Y2013761D1*
X2791286Y2009396D1*
X2791517Y2009147D1*
X2935021Y1865661D1*
X3134992Y1865660D2*
X3142849Y1866870D1*
X3151639D1*
X3160322Y1865496D1*
X3168682Y1862780D1*
X3176514Y1858789D1*
X3178672Y1857346D1*
X3178761Y2108652D1*
X3180136Y2115567D1*
X3183089Y2121970D1*
X3187454Y2127507D1*
X3187703Y2127738D1*
X3287608Y2227530D1*
X3293470Y2231448D1*
X3300085Y2233888D1*
X3307087Y2234717D1*
X3307427Y2234703D1*
X3331029Y2234714D1*
X3336152Y2239837D1*
X3342014Y2244097D1*
X3348471Y2247387D1*
X3355362Y2249626D1*
X3362518Y2250760D1*
X3369765D1*
X3376921Y2249626D1*
X3383812Y2247387D1*
X3390269Y2244097D1*
X3396131Y2239837D1*
X3401255Y2234714D1*
X3405507Y2228864D1*
X3409769Y2234714D1*
X3414892Y2239837D1*
X3420755Y2244097D1*
X3427211Y2247387D1*
X3434102Y2249626D1*
X3441259Y2250760D1*
X3448505D1*
X3455661Y2249626D1*
X3462552Y2247387D1*
X3469009Y2244097D1*
X3474871Y2239837D1*
X3479995Y2234714D1*
X3484247Y2228864D1*
X3489634Y2235930D1*
X3489630Y2269129D1*
X3301446Y2269157D1*
X3151997Y2119822D1*
X3147682Y2116686D1*
X3142929Y2114265D1*
X3137857Y2112617D1*
X3132588Y2111782D1*
X3062782Y2111677D1*
X3055635Y2106304D1*
X3061486Y2102042D1*
X3066609Y2096919D1*
X3070869Y2091056D1*
X3074159Y2084600D1*
X3076398Y2077709D1*
X3077531Y2070552D1*
Y2063306D1*
X3076398Y2056150D1*
X3074159Y2049259D1*
X3070869Y2042802D1*
X3066609Y2036940D1*
X3061486Y2031816D1*
X3055635Y2027564D1*
X3061486Y2023302D1*
X3066609Y2018178D1*
X3070869Y2012316D1*
X3074159Y2005860D1*
X3076398Y1998969D1*
X3077531Y1991812D1*
Y1984566D1*
X3076398Y1977409D1*
X3074159Y1970518D1*
X3070869Y1964062D1*
X3066609Y1958199D1*
X3061475Y1953067D1*
X3061542Y1939140D1*
X3134980Y1865702D1*
X1489218Y845390D2*
X1553181D1*
X1515551Y882978D1*
X1509140Y883476D1*
X1502696Y885024D1*
X1496571Y887560D1*
X1490920Y891024D1*
X1489180Y892395D1*
X1489185Y845364D1*
X2930035Y673097D2*
Y656579D1*
X2817996D1*
Y835547D1*
X2844022D1*
X2844024Y853436D1*
X2817996Y853429D1*
Y1032398D1*
X2844022D1*
X2844024Y1050286D1*
X2817996Y1050280D1*
Y1229248D1*
X2930035D1*
Y1050280D1*
X2904010D1*
X2904008Y1032391D1*
X2930035Y1032398D1*
Y1009203D1*
X2934593Y1005459D1*
X2962180Y977873D1*
X2962134Y1269448D1*
X2957953Y1274385D1*
X2954490Y1280035D1*
X2951953Y1286160D1*
X2950406Y1292605D1*
X2949886Y1299213D1*
X2950406Y1305820D1*
X2951953Y1312265D1*
X2954490Y1318390D1*
X2957953Y1324041D1*
X2962257Y1329081D1*
X2967298Y1333386D1*
X2972949Y1336849D1*
X2979073Y1339386D1*
X2981804Y1340156D1*
X2912311Y1340142D1*
X2912319Y1327839D1*
X2806064D1*
X2806020Y1260909D1*
X2794839D1*
X2794898Y669291D1*
X2794417Y663192D1*
X2792990Y657241D1*
X2790648Y651589D1*
X2788946Y648610D1*
X2789256Y646571D1*
X2843421D1*
Y620546D1*
X2903302Y620543D1*
X2908243Y624724D1*
X2913894Y628188D1*
X2920018Y630724D1*
X2926463Y632272D1*
X2933071Y632791D1*
X2939678Y632272D1*
X2946123Y630724D1*
X2952248Y628188D1*
X2957899Y624724D1*
X2962150Y621150D1*
X2962134Y667495D1*
X2956070Y666551D1*
X2949442D1*
X2942895Y667588D1*
X2936592Y669636D1*
X2930029Y673085D1*
X2903983Y835547D2*
X2930035D1*
Y822999D1*
X2936592Y826427D1*
X2942895Y828475D1*
X2949442Y829512D1*
X2956070D1*
X2962147Y828568D1*
X2962134Y864370D1*
X2956070Y863402D1*
X2949442D1*
X2942895Y864438D1*
X2936592Y866487D1*
X2930029Y869936D1*
X2930035Y853429D1*
X2904010D1*
X2904008Y835541D1*
X3066717Y1607201D2*
X3083073D1*
X3085972Y1612117D1*
X3089029Y1615696D1*
X3122499Y1649167D1*
X3069455Y1649088D1*
X3027575Y1607206D1*
X3048146Y1607201D1*
Y1428232D1*
X3032961D1*
X3034236Y1420636D1*
X3034335Y1418113D1*
X3068031Y1418126D1*
X3068516Y1423930D1*
X3069462Y1428244D1*
X3054217Y1428232D1*
Y1607201D1*
X3066717D1*
X3166256Y1599144D2*
Y1428232D1*
X3151071D1*
X3152346Y1420636D1*
X3152445Y1418113D1*
X3235804Y1418126D1*
X3235879Y1573343D1*
X3235831Y1599134D1*
X3166218Y1599142D1*
X1972987Y1420764D2*
X1971723Y1412782D1*
X1969226Y1405098D1*
X1965558Y1397899D1*
X1960808Y1391362D1*
X1955094Y1385648D1*
X1948558Y1380899D1*
X1941358Y1377231D1*
X1933675Y1374734D1*
X1925693Y1373470D1*
X1917614D1*
X1909633Y1374734D1*
X1901949Y1377231D1*
X1894749Y1380899D1*
X1888213Y1385648D1*
X1882499Y1391362D1*
X1877749Y1397899D1*
X1874081Y1405098D1*
X1871584Y1412782D1*
X1870320Y1420764D1*
Y1428843D1*
X1871584Y1436824D1*
X1874081Y1444508D1*
X1877749Y1451707D1*
X1882499Y1458244D1*
X1888213Y1463958D1*
X1894749Y1468707D1*
X1901949Y1472375D1*
X1909633Y1474873D1*
X1917614Y1476136D1*
X1925693D1*
X1933675Y1474873D1*
X1941358Y1472375D1*
X1948558Y1468707D1*
X1955094Y1463958D1*
X1960808Y1458244D1*
X1965558Y1451707D1*
X1969226Y1444508D1*
X1971723Y1436824D1*
X1972987Y1428843D1*
Y1420764D1*
X1973085Y1722304D2*
X1972177Y1714866D1*
X1970201Y1707638D1*
X1967196Y1700774D1*
X1963226Y1694419D1*
X1958375Y1688706D1*
X1952747Y1683759D1*
X1946461Y1679681D1*
X1939650Y1676558D1*
X1932457Y1674457D1*
X1925034Y1673423D1*
X1917542Y1673475D1*
X1910135Y1674615D1*
X1902974Y1676819D1*
X1896207Y1680038D1*
X1889979Y1684206D1*
X1884423Y1689232D1*
X1879654Y1695013D1*
X1875774Y1701424D1*
X1872867Y1708331D1*
X1870993Y1715585D1*
X1870192Y1723037D1*
X1870480Y1730524D1*
X1871853Y1737891D1*
X1874280Y1744980D1*
X1877710Y1751643D1*
X1882070Y1757736D1*
X1887269Y1763133D1*
X1893197Y1767718D1*
X1899726Y1771394D1*
X1906720Y1774083D1*
X1914030Y1775728D1*
X1921503Y1776295D1*
X1928978Y1775772D1*
X1936298Y1774169D1*
X1943307Y1771521D1*
X1949858Y1767883D1*
X1955812Y1763333D1*
X1961043Y1757967D1*
X1965440Y1751899D1*
X1968908Y1745257D1*
X1971377Y1738182D1*
X1972793Y1730824D1*
X1973085Y1722304D1*
X2408382Y2249444D2*
Y2220635D1*
X2627482Y2001549D1*
X2627580Y2029912D1*
X2628955Y2036827D1*
X2631908Y2043230D1*
X2636273Y2048766D1*
X2636522Y2048997D1*
X2650815Y2063306D1*
Y2070552D1*
X2651949Y2077709D1*
X2654188Y2084600D1*
X2657478Y2091056D1*
X2661738Y2096919D1*
X2666861Y2102042D1*
X2672711Y2106294D1*
X2665644Y2111681D1*
X2654814Y2111782D1*
X2649545Y2112617D1*
X2644472Y2114265D1*
X2639719Y2116686D1*
X2635404Y2119822D1*
X2611948Y2143278D1*
X2608812Y2147593D1*
X2606391Y2152346D1*
X2604743Y2157419D1*
X2603908Y2162688D1*
X2603803Y2249486D1*
X2408394Y2249472D1*
X3357210Y2159455D2*
X3351873Y2160807D1*
X3345177Y2163580D1*
X3339000Y2167366D1*
X3333490Y2172072D1*
X3331020Y2174745D1*
X3319455Y2174678D1*
X3281028Y2136249D1*
X3334088Y2136345D1*
X3357186Y2159444D1*
X3484247Y2180585D2*
X3479995Y2174735D1*
X3474871Y2169612D1*
X3469009Y2165352D1*
X3462552Y2162062D1*
X3455661Y2159823D1*
X3448505Y2158689D1*
X3441245Y2158692D1*
X3365934Y2083493D1*
X3360073Y2079576D1*
X3353458Y2077135D1*
X3346457Y2076307D1*
X3346117Y2076320D1*
X3260400Y2076253D1*
X3258339Y2074114D1*
X3258331Y1973343D1*
X3378343D1*
X3378294Y1734925D1*
Y1634925D1*
X3378343Y1484925D1*
Y1413118D1*
X3445319Y1413126D1*
X3445227Y1460214D1*
X3443178Y1466517D1*
X3442142Y1473064D1*
Y1479692D1*
X3443178Y1486239D1*
X3445227Y1492542D1*
X3448236Y1498449D1*
X3452133Y1503811D1*
X3456819Y1508497D1*
X3462181Y1512394D1*
X3468088Y1515403D1*
X3474391Y1517451D1*
X3480938Y1518488D1*
X3484654Y1518602D1*
X3484630Y2179945D1*
X3691706Y1309126D2*
X3727395Y1309180D1*
X3737304Y1319089D1*
X3737807Y1325505D1*
X3739354Y1331950D1*
X3741891Y1338075D1*
X3746486Y1345160D1*
X3703159Y1345142D1*
X3703657Y1338583D1*
X3703138Y1331975D1*
X3701591Y1325530D1*
X3699054Y1319406D1*
X3695591Y1313755D1*
X3691646Y1309105D1*
X3922618Y1245475D2*
X3916815Y1241891D1*
X3910690Y1239354D1*
X3904245Y1237807D1*
X3897638Y1237287D1*
X3891030Y1237807D1*
X3884585Y1239354D1*
X3878461Y1241891D1*
X3872810Y1245354D1*
X3867769Y1249659D1*
X3863465Y1254699D1*
X3860001Y1260350D1*
X3857465Y1266475D1*
X3855879Y1273241D1*
X984252Y662270D2*
D10*
Y518832D1*
X898753Y590551D2*
X1069751D1*
X866142Y1831562D2*
Y1711745D1*
X806234Y1771654D2*
X926050D1*
X1633858Y496063D2*
Y444029D1*
X1577887Y496063D2*
X1633858D1*
X1515748D2*
Y444029D1*
X1459777Y496063D2*
X1571719D1*
X2125984Y992979D2*
Y940945D1*
X2070013D2*
X2181955D1*
X2244094Y992979D2*
Y940945D1*
X2188123D2*
X2300066D1*
X2306234D2*
X2362205D1*
X2637795Y1191798D2*
Y1133858D1*
X2558202D2*
X2637795D1*
X2364173Y1097310D2*
Y1041339D1*
X2312139D2*
X2364173D1*
X629921Y859121D2*
Y803150D1*
X685892D1*
X3877953Y2296129D2*
Y2244094D1*
X3821982D2*
X3877953D1*
X3759843Y2296129D2*
Y2244094D1*
X3703871D2*
X3815814D1*
X1614173Y1611089D2*
Y1420407D1*
X1568045Y1515748D2*
X1614173D1*
X1213714Y1952756D2*
X1345341D1*
X1275984Y1791339D2*
Y1741273D1*
X1227887Y1791339D2*
X1324081D1*
X1274409Y2061877D2*
Y2011811D1*
X1226312D2*
X1322507D1*
X1360630Y1959514D2*
Y1901575D1*
X1406759D1*
X2047244Y1866995D2*
Y1755052D1*
X1991273Y1811024D2*
X2047244D1*
X2147244Y1866995D2*
Y1755052D1*
X1200787Y504199D2*
Y452756D1*
X1149344D2*
X1252231D1*
X2874016Y1229199D2*
Y1177165D1*
X2818045D2*
X2929987D1*
X4232283Y1085499D2*
Y1001115D1*
Y1043307D2*
X4292192D1*
X1921654Y1776247D2*
Y1673360D1*
X1870210Y1724803D2*
X1973097D1*
X1610236Y1189829D2*
Y1157480D1*
X1555118Y1212598D2*
X1587467D1*
X1791339Y812861D2*
Y722572D1*
X1722572Y767717D2*
X1860105D1*
X2500000Y787402D2*
Y756076D1*
X2564961Y896522D2*
Y757021D1*
X2027559Y2270538D2*
Y2224409D1*
X1981430D2*
X2073688D1*
X2696850Y2270538D2*
Y2224409D1*
X2742979D1*
X3031496Y2270538D2*
Y2224409D1*
X2985367D2*
X3077625D1*
X3602362Y2250853D2*
Y2158596D1*
Y2204724D2*
X3648491D1*
X3307087Y1973294D2*
Y1929134D1*
X3378294D1*
X3235879Y1579134D2*
X3378294D1*
X3235879Y1429134D2*
X3378294D1*
X3307087Y979134D2*
Y934974D1*
X3235879Y979134D2*
X3378294D1*
X3521850Y985577D2*
Y914370D1*
X3477690D2*
X3521850D1*
X3571850Y985577D2*
Y914370D1*
X3671850Y985577D2*
Y843163D1*
X3771850Y985577D2*
Y843163D1*
X3821850Y985577D2*
Y843163D1*
Y914370D2*
X3866010D1*
X4036614Y979134D2*
Y934974D1*
X3965407Y979134D2*
X4107822D1*
X3965407Y1229134D2*
X4107822D1*
X3965407Y1629134D2*
X4036614D1*
Y1973294D2*
Y1929134D1*
X3965407D2*
X4107822D1*
X3307087Y807087D2*
Y759974D1*
X3258990Y807087D2*
X3307087D1*
X3366142Y914239D2*
Y866142D1*
X3295407D2*
X3436877D1*
X3366142Y748031D2*
Y699934D1*
X3295407Y748031D2*
X3436877D1*
X2679134Y1372900D2*
Y1260958D1*
X2627100Y1316929D2*
X2679134D1*
X2856299Y1506759D2*
Y1454724D1*
X2800328D2*
X2912270D1*
X1244094Y1611089D2*
Y1499147D1*
X1192060Y1555118D2*
X1244094D1*
Y1729199D2*
Y1617257D1*
X1192060Y1673228D2*
X1244094D1*
D27*
X984252Y984252D3*
Y787402D3*
Y590551D3*
D32*
X866142Y1476378D3*
D33*
Y1771654D3*
D31*
X1633858Y570866D3*
Y496063D3*
X1515748Y570866D3*
Y496063D3*
X2125984Y866142D3*
Y940945D3*
X2244094Y866142D3*
Y940945D3*
X2362205Y866142D3*
Y940945D3*
D34*
X2637795Y1023622D3*
Y1133858D3*
D35*
X2438976Y1041339D3*
X2364173D3*
X2753937Y1316929D3*
X2679134D3*
D31*
X2856299Y1379921D3*
Y1454724D3*
D35*
X1318898Y1555118D3*
X1244094D3*
X1318898Y1673228D3*
X1244094D3*
D36*
X1181102Y1200787D3*
D37*
X783465D3*
D36*
X629921D3*
D37*
Y803150D3*
D31*
X3877953Y2244094D3*
Y2169291D3*
X3759843Y2244094D3*
Y2169291D3*
D35*
X1771654Y1122047D3*
X1846457D3*
X1771654Y1003937D3*
X1846457D3*
X1771654Y885827D3*
X1846457D3*
D38*
X767717Y925197D3*
Y1035433D3*
D36*
X1968504Y1084252D3*
D37*
Y984252D3*
D39*
X1692913Y1515748D3*
X1614173D3*
D40*
X1785362Y1734142D3*
X1521583D3*
D36*
X1181102Y1358268D3*
D37*
X1281102D3*
X1381102D3*
D42*
X1279528Y1850394D3*
Y1875984D3*
Y1901575D3*
Y1927165D3*
Y1952756D3*
D43*
X1275984Y1791339D3*
X1274409Y2011811D3*
D44*
X1360630Y1901575D3*
D36*
X2145669Y610236D3*
D37*
Y710236D3*
D36*
X1397638Y787402D3*
D37*
X1297638D3*
D36*
X1841339Y472441D3*
D37*
X1741339D3*
D36*
X4153543Y1515748D3*
D37*
Y1615748D3*
Y1715748D3*
Y1815748D3*
D36*
X2047244Y472441D3*
D37*
X2147244D3*
X2247244D3*
X2347244D3*
X2447244D3*
X2547244D3*
X2647244D3*
X2747244D3*
X2847244D3*
X2947244D3*
X3047244D3*
X3147244D3*
D36*
X2047244Y1811024D3*
D37*
X2147244D3*
X2247244D3*
X2347244D3*
X2447244D3*
X2547244D3*
X2647244D3*
X2747244D3*
X2847244D3*
X2947244D3*
X3047244D3*
X3147244D3*
D46*
X1299213Y708661D3*
D47*
Y1008661D3*
D46*
X1200787Y452756D3*
D47*
Y752756D3*
D35*
X1517717Y671260D3*
X1592520D3*
X1517717Y789370D3*
X1592520D3*
D31*
X2874016Y708661D3*
Y783465D3*
Y905512D3*
Y980315D3*
Y1102362D3*
Y1177165D3*
X3110236Y1555118D3*
Y1480315D3*
X2992126Y1555118D3*
Y1480315D3*
D35*
X2716535Y590551D3*
X2791339D3*
D48*
X4232283Y1043307D3*
Y1177165D3*
D46*
X1921654Y1424803D3*
D47*
Y1724803D3*
D50*
X1476378Y1023622D3*
X1496063D3*
X1515748D3*
X1535433D3*
X1555118D3*
D51*
X1610236Y1078740D3*
Y1098425D3*
Y1118110D3*
Y1137795D3*
Y1157480D3*
D50*
X1555118Y1212598D3*
X1535433D3*
X1515748D3*
X1496063D3*
X1476378D3*
D51*
X1421260Y1157480D3*
Y1137795D3*
Y1118110D3*
Y1098425D3*
Y1078740D3*
D52*
X1515354Y1118092D3*
D54*
X1791339Y767717D3*
Y677165D3*
Y586614D3*
D55*
X2019685Y677165D3*
D58*
X2500000Y866142D3*
Y846457D3*
Y826772D3*
Y807087D3*
Y787402D3*
X2629921D3*
Y807087D3*
Y826772D3*
Y846457D3*
Y866142D3*
D59*
X2564961Y826772D3*
D60*
X2027559Y1988189D3*
Y2066929D3*
Y2145669D3*
D45*
Y2224409D3*
D60*
X2362205Y1988189D3*
Y2066929D3*
Y2145669D3*
D45*
Y2224409D3*
D60*
X2696850Y1988189D3*
Y2066929D3*
Y2145669D3*
D45*
Y2224409D3*
D60*
X3031496Y1988189D3*
Y2066929D3*
Y2145669D3*
D45*
Y2224409D3*
D60*
X3366142Y2204724D3*
X3444882D3*
X3523622D3*
D45*
X3602362D3*
D61*
X3307087Y1929134D3*
Y1879134D3*
Y1829134D3*
Y1779134D3*
Y1729134D3*
Y1679134D3*
Y1629134D3*
Y1579134D3*
Y1529134D3*
Y1479134D3*
Y1429134D3*
Y1379134D3*
Y1329134D3*
Y1279134D3*
Y1229134D3*
Y1179134D3*
Y1129134D3*
Y1079134D3*
Y1029134D3*
Y979134D3*
D62*
X3521850Y914370D3*
X3571850D3*
X3621850D3*
X3671850D3*
X3721850D3*
X3771850D3*
X3821850D3*
D61*
X4036614Y979134D3*
Y1029134D3*
Y1079134D3*
Y1129134D3*
Y1179134D3*
Y1229134D3*
Y1279134D3*
Y1329134D3*
Y1379134D3*
Y1429134D3*
Y1479134D3*
Y1529134D3*
Y1579134D3*
Y1629134D3*
Y1679134D3*
Y1729134D3*
Y1779134D3*
Y1829134D3*
Y1879134D3*
Y1929134D3*
D63*
X3425197Y807087D3*
X3307087D3*
D64*
X3366142Y866142D3*
Y748031D3*
M02*
