M48
INCH
T01C0.0157
T02C0.0354
T03C0.0409
%
T01
X+011854Y+007563
X+013457Y+008394
X+014209Y+009740
X+014142Y+011193
X+014933Y+014130
X+016260Y+014091
X+010976Y+011500
X+010630Y+011823
X+010102Y+014583
X+007220Y+009157
X+008992Y+007925
X+008476Y+006969
X+006567Y+005921
X+014783Y+005579
X+015870Y+007028
X+016827Y+005016
T02
X+004535Y+015543
X+004535Y+014543
X+004535Y+013543
X+004535Y+012543
X+004535Y+011543
X+004535Y+010543
X+004535Y+009543
X+004535Y+008543
X+004535Y+007543
X+004535Y+006543
X+004535Y+005543
X+004535Y+004543
X+017921Y+004543
X+017921Y+005543
X+017921Y+006543
X+017921Y+007543
X+017921Y+008543
X+017921Y+009543
X+017921Y+010543
X+017921Y+011543
X+017921Y+012543
X+017921Y+013543
X+017921Y+014543
X+017921Y+015543
T03
X+013213Y+005803
X+012213Y+005803
X+011213Y+005803
X+010213Y+005803
X+009213Y+005803
T00
M30
