G04 DipTrace 3.1.0.1*
G04 TopPaste.gbr*
%MOIN*%
G04 #@! TF.FileFunction,Paste,Top*
G04 #@! TF.Part,Single*
%ADD39R,0.011811X0.062992*%
%ADD41R,0.062992X0.011811*%
%ADD43R,0.059055X0.023622*%
%ADD47R,0.031496X0.03937*%
%ADD53R,0.043307X0.051181*%
%ADD55R,0.051181X0.043307*%
%FSLAX26Y26*%
G04*
G70*
G90*
G75*
G01*
G04 TopPaste*
%LPD*%
D55*
X1087008Y1492126D3*
Y1566929D3*
X1223229Y1492126D3*
Y1566929D3*
X1352362Y1492126D3*
Y1566929D3*
X1493701Y1492126D3*
Y1566929D3*
D53*
X1549607Y1224016D3*
X1624410D3*
D55*
X625591Y1539764D3*
Y1464961D3*
X949607Y1539370D3*
Y1464567D3*
D47*
X731496Y1539764D3*
X810236D3*
D55*
X1536614Y557874D3*
Y632677D3*
X1653150Y557874D3*
Y632677D3*
D53*
X764961Y822835D3*
X690158D3*
Y710236D3*
X764961D3*
D43*
X1612205Y1468504D3*
Y1334646D3*
D41*
X898425Y1212992D3*
Y1181496D3*
Y1150000D3*
Y1118504D3*
Y1087008D3*
Y1055512D3*
Y1024016D3*
Y992520D3*
Y961024D3*
Y929528D3*
Y898032D3*
D39*
X965355Y831103D3*
X996851D3*
X1028347D3*
X1059843D3*
X1091339D3*
X1122835D3*
X1154331D3*
X1185827D3*
X1217323D3*
X1248819D3*
X1280315D3*
D41*
X1347244Y898032D3*
Y929528D3*
Y961024D3*
Y992520D3*
Y1024016D3*
Y1055512D3*
Y1087008D3*
Y1118504D3*
Y1150000D3*
Y1181496D3*
Y1212992D3*
D39*
X1280315Y1279921D3*
X1248819D3*
X1217323D3*
X1185827D3*
X1154331D3*
X1122835D3*
X1091339D3*
X1059843D3*
X1028347D3*
X996851D3*
X965355D3*
M02*
