G04 DipTrace 3.1.0.1*
G04 TopSilk.gbr*
%MOIN*%
G04 #@! TF.FileFunction,Legend,Top*
G04 #@! TF.Part,Single*
%ADD10C,0.01*%
%ADD26C,0.01181*%
%ADD28C,0.023646*%
%ADD56C,0.004632*%
%ADD57C,0.010807*%
%ADD58C,0.006176*%
%ADD59C,0.003088*%
%ADD60C,0.00772*%
%FSLAX26Y26*%
G04*
G70*
G90*
G75*
G01*
G04 TopSilk*
%LPD*%
X1112579Y1450767D2*
D10*
X1061437D1*
X1248799D2*
X1197658D1*
X1377933D2*
X1326792D1*
X1519272D2*
X1468130D1*
X1508247Y1198445D2*
Y1249587D1*
X600020Y1581124D2*
X651162D1*
X924036Y1580730D2*
X975177D1*
X403544Y404331D2*
X503544D1*
X403544Y1604331D2*
Y404331D1*
Y1604331D2*
X503544D1*
Y1528731D1*
Y404331D1*
X1742126D2*
X1842126D1*
X1742126Y1604331D2*
Y404331D1*
Y1604331D2*
X1842126D1*
Y1528731D1*
Y404331D1*
X762953Y1559465D2*
X778780D1*
X762953Y1520063D2*
X778780D1*
X1373229Y454327D2*
X867323D1*
Y714173D1*
X1373229D1*
Y454327D1*
G36*
X1369282Y643308D2*
X871269D1*
Y712191D1*
X1369282D1*
Y643308D1*
G37*
X1582671Y1435043D2*
D10*
Y1368117D1*
X1562992Y1460660D2*
Y1342537D1*
X1661414Y1460660D2*
Y1342537D1*
X1582671Y1368117D2*
X1602363D1*
X1582671Y1435043D2*
X1602363D1*
X1562992Y1342537D2*
X1568904D1*
X1562992Y1460660D2*
X1568904D1*
X1661414Y1342537D2*
X1655515D1*
X1661414Y1460660D2*
X1655515D1*
X1661414Y1435043D2*
X1683076D1*
X1690945Y1419296D1*
Y1383883D1*
X1661414Y1368117D2*
X1683076D1*
X1690945Y1383883D1*
D26*
X1612209Y1496100D3*
X951599Y1226748D2*
D10*
X1294071D1*
Y884276D1*
X951599D1*
Y1226748D1*
D28*
X886612Y1244495D3*
G36*
X952378Y1225189D2*
X989744Y1224410D1*
X952378Y1225189D1*
G37*
G36*
X957471Y1228723D2*
X1004710D1*
X949624Y1173636D1*
X957471Y1228723D1*
G37*
X1020710Y1524175D2*
D56*
X1017858Y1522749D1*
X1014973Y1519864D1*
X1013547Y1517012D1*
Y1511275D1*
X1014973Y1508390D1*
X1017858Y1505538D1*
X1020710Y1504079D1*
X1025021Y1502653D1*
X1032217D1*
X1036495Y1504079D1*
X1039380Y1505538D1*
X1042232Y1508390D1*
X1043691Y1511275D1*
Y1517012D1*
X1042232Y1519863D1*
X1039380Y1522749D1*
X1036495Y1524174D1*
X1019317Y1533438D2*
X1017858Y1536323D1*
X1013580Y1540634D1*
X1043691D1*
X1156930Y1517725D2*
X1154078Y1516299D1*
X1151193Y1513414D1*
X1149767Y1510562D1*
Y1504825D1*
X1151193Y1501940D1*
X1154078Y1499088D1*
X1156930Y1497629D1*
X1161241Y1496203D1*
X1168437D1*
X1172715Y1497629D1*
X1175600Y1499088D1*
X1178452Y1501940D1*
X1179911Y1504825D1*
Y1510562D1*
X1178452Y1513413D1*
X1175600Y1516299D1*
X1172715Y1517725D1*
X1156963Y1528447D2*
X1155537D1*
X1152652Y1529873D1*
X1151226Y1531299D1*
X1149800Y1534184D1*
Y1539921D1*
X1151226Y1542773D1*
X1152652Y1544199D1*
X1155537Y1545658D1*
X1158389D1*
X1161274Y1544199D1*
X1165552Y1541347D1*
X1179911Y1526988D1*
Y1547084D1*
X1286064Y1517725D2*
X1283212Y1516299D1*
X1280327Y1513414D1*
X1278901Y1510562D1*
Y1504825D1*
X1280327Y1501940D1*
X1283212Y1499088D1*
X1286064Y1497629D1*
X1290375Y1496203D1*
X1297571D1*
X1301849Y1497629D1*
X1304734Y1499088D1*
X1307586Y1501940D1*
X1309045Y1504825D1*
Y1510562D1*
X1307586Y1513413D1*
X1304734Y1516299D1*
X1301849Y1517725D1*
X1278934Y1529873D2*
Y1545625D1*
X1290408Y1537036D1*
Y1541347D1*
X1291834Y1544199D1*
X1293260Y1545625D1*
X1297571Y1547084D1*
X1300423D1*
X1304734Y1545625D1*
X1307619Y1542773D1*
X1309045Y1538462D1*
Y1534151D1*
X1307619Y1529873D1*
X1306160Y1528447D1*
X1303308Y1526988D1*
X1427403Y1517012D2*
X1424551Y1515586D1*
X1421666Y1512701D1*
X1420240Y1509849D1*
Y1504112D1*
X1421666Y1501227D1*
X1424551Y1498375D1*
X1427403Y1496916D1*
X1431714Y1495490D1*
X1438910D1*
X1443188Y1496916D1*
X1446073Y1498375D1*
X1448925Y1501227D1*
X1450384Y1504112D1*
Y1509849D1*
X1448925Y1512701D1*
X1446073Y1515586D1*
X1443188Y1517012D1*
X1450384Y1540634D2*
X1420273D1*
X1440336Y1526275D1*
Y1547797D1*
X1575205Y1290314D2*
X1573779Y1293166D1*
X1570894Y1296051D1*
X1568042Y1297477D1*
X1562305D1*
X1559420Y1296051D1*
X1556568Y1293166D1*
X1555109Y1290314D1*
X1553683Y1286003D1*
Y1278807D1*
X1555109Y1274529D1*
X1556568Y1271644D1*
X1559420Y1268792D1*
X1562305Y1267333D1*
X1568042D1*
X1570894Y1268792D1*
X1573779Y1271644D1*
X1575205Y1274529D1*
X1601679Y1297444D2*
X1587353D1*
X1585927Y1284544D1*
X1587353Y1285970D1*
X1591664Y1287429D1*
X1595942D1*
X1600253Y1285970D1*
X1603138Y1283118D1*
X1604564Y1278807D1*
Y1275955D1*
X1603138Y1271644D1*
X1600253Y1268759D1*
X1595942Y1267333D1*
X1591664D1*
X1587353Y1268759D1*
X1585927Y1270218D1*
X1584468Y1273070D1*
X672457Y1506345D2*
X669605Y1504919D1*
X666720Y1502034D1*
X665294Y1499182D1*
Y1493445D1*
X666720Y1490560D1*
X669605Y1487708D1*
X672456Y1486249D1*
X676767Y1484823D1*
X683964D1*
X688241Y1486249D1*
X691127Y1487708D1*
X693978Y1490560D1*
X695438Y1493445D1*
Y1499182D1*
X693978Y1502034D1*
X691127Y1504919D1*
X688242Y1506345D1*
X665327Y1522771D2*
X666753Y1518493D1*
X669605Y1517034D1*
X672490D1*
X675342Y1518493D1*
X676801Y1521345D1*
X678227Y1527082D1*
X679653Y1531393D1*
X682538Y1534245D1*
X685390Y1535671D1*
X689701D1*
X692553Y1534245D1*
X694012Y1532819D1*
X695438Y1528508D1*
Y1522771D1*
X694012Y1518493D1*
X692553Y1517034D1*
X689701Y1515608D1*
X685390D1*
X682538Y1517034D1*
X679653Y1519919D1*
X678227Y1524197D1*
X676801Y1529934D1*
X675342Y1532819D1*
X672490Y1534245D1*
X669605D1*
X666753Y1532819D1*
X665327Y1528508D1*
Y1522771D1*
X883308Y1506648D2*
X880456Y1505222D1*
X877571Y1502336D1*
X876145Y1499485D1*
Y1493748D1*
X877571Y1490863D1*
X880456Y1488011D1*
X883308Y1486552D1*
X887619Y1485126D1*
X894815D1*
X899093Y1486552D1*
X901978Y1488011D1*
X904830Y1490863D1*
X906289Y1493748D1*
Y1499485D1*
X904830Y1502336D1*
X901978Y1505222D1*
X899093Y1506647D1*
X886193Y1534581D2*
X890504Y1533122D1*
X893389Y1530270D1*
X894815Y1525959D1*
Y1524533D1*
X893389Y1520222D1*
X890504Y1517370D1*
X886193Y1515911D1*
X884767D1*
X880456Y1517370D1*
X877604Y1520222D1*
X876178Y1524533D1*
Y1525959D1*
X877604Y1530270D1*
X880456Y1533122D1*
X886193Y1534581D1*
X893389D1*
X900552Y1533122D1*
X904863Y1530270D1*
X906289Y1525959D1*
Y1523107D1*
X904863Y1518796D1*
X901978Y1517370D1*
X596081Y438422D2*
Y415474D1*
X594655Y411163D1*
X593196Y409737D1*
X590344Y408278D1*
X587459D1*
X584607Y409737D1*
X583181Y411163D1*
X581722Y415474D1*
Y418326D1*
X605345Y432652D2*
X608230Y434111D1*
X612541Y438389D1*
Y408278D1*
X641900Y434111D2*
X639048Y436996D1*
X634737Y438422D1*
X629000D1*
X624689Y436996D1*
X621804Y434111D1*
Y431259D1*
X623263Y428374D1*
X624689Y426948D1*
X627541Y425522D1*
X636163Y422637D1*
X639048Y421211D1*
X640474Y419752D1*
X641900Y416900D1*
Y412589D1*
X639048Y409737D1*
X634737Y408278D1*
X629000D1*
X624689Y409737D1*
X621804Y412589D1*
X1620340Y442359D2*
Y419411D1*
X1618914Y415100D1*
X1617455Y413674D1*
X1614603Y412215D1*
X1611718D1*
X1608866Y413674D1*
X1607440Y415100D1*
X1605981Y419411D1*
Y422263D1*
X1631063Y435163D2*
Y436589D1*
X1632488Y439474D1*
X1633914Y440900D1*
X1636800Y442326D1*
X1642536D1*
X1645388Y440900D1*
X1646814Y439474D1*
X1648273Y436589D1*
Y433737D1*
X1646814Y430852D1*
X1643962Y426574D1*
X1629603Y412215D1*
X1649699D1*
X1679059Y438048D2*
X1676207Y440933D1*
X1671896Y442359D1*
X1666159D1*
X1661848Y440933D1*
X1658963Y438048D1*
Y435196D1*
X1660422Y432311D1*
X1661848Y430885D1*
X1664700Y429459D1*
X1673322Y426574D1*
X1676207Y425148D1*
X1677633Y423689D1*
X1679059Y420837D1*
Y416526D1*
X1676207Y413674D1*
X1671896Y412215D1*
X1666159D1*
X1661848Y413674D1*
X1658963Y416526D1*
X754031Y1607320D2*
Y1577176D1*
X771242D1*
X780506Y1601550D2*
X783391Y1603009D1*
X787702Y1607287D1*
Y1577176D1*
X1072638Y742322D2*
X1085572D1*
X1089849Y743748D1*
X1091308Y745207D1*
X1092734Y748059D1*
Y752370D1*
X1091308Y755222D1*
X1089849Y756681D1*
X1085572Y758107D1*
X1072638D1*
Y727963D1*
X1101998Y748059D2*
Y727963D1*
Y739437D2*
X1103457Y743748D1*
X1106309Y746633D1*
X1109194Y748059D1*
X1113505D1*
X1129932D2*
X1127080Y746633D1*
X1124195Y743748D1*
X1122769Y739437D1*
Y736585D1*
X1124195Y732274D1*
X1127080Y729422D1*
X1129932Y727963D1*
X1134243D1*
X1137128Y729422D1*
X1139980Y732274D1*
X1141439Y736585D1*
Y739437D1*
X1139980Y743748D1*
X1137128Y746633D1*
X1134243Y748059D1*
X1129932D1*
X1167913Y746633D2*
Y723652D1*
X1166487Y719374D1*
X1165061Y717915D1*
X1162176Y716489D1*
X1157865D1*
X1155013Y717915D1*
X1167913Y742322D2*
X1165061Y745174D1*
X1162176Y746633D1*
X1157865D1*
X1155013Y745174D1*
X1152128Y742322D1*
X1150702Y738011D1*
Y735126D1*
X1152128Y730848D1*
X1155013Y727963D1*
X1157865Y726537D1*
X1162176D1*
X1165061Y727963D1*
X1167913Y730848D1*
X1477512Y570548D2*
Y583448D1*
X1476053Y587759D1*
X1474627Y589218D1*
X1471775Y590644D1*
X1468890D1*
X1466038Y589218D1*
X1464579Y587759D1*
X1463153Y583448D1*
Y570548D1*
X1493297D1*
X1477512Y580596D2*
X1493297Y590644D1*
X1470349Y601367D2*
X1468923D1*
X1466038Y602793D1*
X1464612Y604219D1*
X1463186Y607104D1*
Y612841D1*
X1464612Y615693D1*
X1466038Y617119D1*
X1468923Y618578D1*
X1471775D1*
X1474660Y617119D1*
X1478938Y614267D1*
X1493297Y599908D1*
Y620004D1*
X1594047Y570548D2*
Y583448D1*
X1592588Y587759D1*
X1591162Y589218D1*
X1588311Y590644D1*
X1585425D1*
X1582574Y589218D1*
X1581114Y587759D1*
X1579688Y583448D1*
Y570548D1*
X1609832D1*
X1594047Y580596D2*
X1609832Y590644D1*
X1579722Y602793D2*
Y618545D1*
X1591196Y609956D1*
Y614267D1*
X1592622Y617119D1*
X1594047Y618544D1*
X1598359Y620004D1*
X1601210D1*
X1605521Y618544D1*
X1608406Y615693D1*
X1609832Y611382D1*
Y607071D1*
X1608407Y602793D1*
X1606947Y601367D1*
X1604095Y599908D1*
X703561Y881937D2*
X716461D1*
X720772Y883396D1*
X722231Y884822D1*
X723657Y887674D1*
Y890559D1*
X722231Y893411D1*
X720772Y894870D1*
X716461Y896296D1*
X703561D1*
Y866152D1*
X713609Y881937D2*
X723657Y866152D1*
X750132Y891985D2*
X748706Y894837D1*
X744395Y896263D1*
X741543D1*
X737232Y894837D1*
X734347Y890526D1*
X732921Y883363D1*
Y876200D1*
X734347Y870463D1*
X737232Y867578D1*
X741543Y866152D1*
X742969D1*
X747246Y867578D1*
X750132Y870463D1*
X751557Y874774D1*
Y876200D1*
X750132Y880511D1*
X747246Y883363D1*
X742969Y884789D1*
X741543D1*
X737232Y883363D1*
X734347Y880511D1*
X732921Y876200D1*
X702831Y769339D2*
X715731D1*
X720042Y770798D1*
X721502Y772224D1*
X722927Y775076D1*
Y777961D1*
X721502Y780813D1*
X720042Y782272D1*
X715731Y783698D1*
X702831D1*
Y753554D1*
X712879Y769339D2*
X722927Y753554D1*
X737928D2*
X752287Y783665D1*
X732191D1*
X1091320Y1349240D2*
Y1334881D1*
X1092746Y1330604D1*
X1095631Y1329144D1*
X1099942D1*
X1102794Y1330604D1*
X1107105Y1334881D1*
Y1349240D2*
Y1329144D1*
X1137890Y1352125D2*
X1136464Y1354977D1*
X1133579Y1357862D1*
X1130727Y1359288D1*
X1124990D1*
X1122105Y1357862D1*
X1119253Y1354977D1*
X1117794Y1352125D1*
X1116368Y1347814D1*
Y1340618D1*
X1117794Y1336340D1*
X1119253Y1333455D1*
X1122105Y1330604D1*
X1124990Y1329144D1*
X1130727D1*
X1133579Y1330604D1*
X1136464Y1333455D1*
X1137890Y1336340D1*
X1147154Y1353518D2*
X1150039Y1354977D1*
X1154350Y1359255D1*
Y1329144D1*
X547291Y1575632D2*
D57*
X554023Y1579036D1*
X564082Y1589018D1*
Y1518759D1*
X1550302Y1569155D2*
Y1572482D1*
X1553629Y1579214D1*
X1556956Y1582541D1*
X1563688Y1585868D1*
X1577075D1*
X1583729Y1582541D1*
X1587056Y1579214D1*
X1590461Y1572482D1*
Y1565828D1*
X1587056Y1559096D1*
X1580402Y1549114D1*
X1546897Y1515610D1*
X1593788D1*
X1648907D2*
Y1585868D1*
X1615403Y1539055D1*
X1665621D1*
X596463Y538533D2*
D58*
Y555777D1*
X594562Y561481D1*
X592616Y563426D1*
X588814Y565328D1*
X583066D1*
X579263Y563426D1*
X577318Y561481D1*
X575416Y555777D1*
Y538533D1*
X615608D1*
X581164Y604474D2*
X577318Y600671D1*
X575416Y594923D1*
Y587274D1*
X577318Y581526D1*
X581164Y577679D1*
X584967D1*
X588814Y579625D1*
X590715Y581526D1*
X592616Y585328D1*
X596463Y596824D1*
X598364Y600671D1*
X600310Y602572D1*
X604112Y604474D1*
X609860D1*
X613663Y600671D1*
X615608Y594923D1*
Y587274D1*
X613663Y581526D1*
X609860Y577679D1*
X588814Y626376D2*
X590715Y622573D1*
X594562Y618726D1*
X600310Y616825D1*
X604112D1*
X609860Y618726D1*
X613663Y622573D1*
X615608Y626376D1*
Y632124D1*
X613663Y635970D1*
X609860Y639773D1*
X604112Y641718D1*
X600310D1*
X594562Y639773D1*
X590715Y635970D1*
X588814Y632124D1*
Y626376D1*
X584967Y682766D2*
X581164Y680865D1*
X577318Y677018D1*
X575416Y673215D1*
Y665566D1*
X577318Y661719D1*
X581164Y657917D1*
X584967Y655971D1*
X590715Y654070D1*
X600310D1*
X606013Y655971D1*
X609860Y657917D1*
X613663Y661719D1*
X615608Y665566D1*
Y673215D1*
X613663Y677018D1*
X609860Y680865D1*
X606013Y682766D1*
X615608Y753143D2*
X575460D1*
X602211Y733998D1*
Y762694D1*
X584967Y842622D2*
X581164Y840721D1*
X577318Y836874D1*
X575416Y833071D1*
Y825422D1*
X577318Y821575D1*
X581164Y817773D1*
X584967Y815827D1*
X590715Y813926D1*
X600310D1*
X606013Y815827D1*
X609860Y817773D1*
X613663Y821575D1*
X615608Y825422D1*
Y833071D1*
X613663Y836874D1*
X609860Y840721D1*
X606013Y842622D1*
X588814Y864524D2*
X590715Y860721D1*
X594562Y856875D1*
X600310Y854973D1*
X604112D1*
X609860Y856875D1*
X613663Y860721D1*
X615608Y864524D1*
Y870272D1*
X613663Y874119D1*
X609860Y877921D1*
X604112Y879867D1*
X600310D1*
X594562Y877921D1*
X590715Y874119D1*
X588814Y870272D1*
Y864524D1*
Y892218D2*
X615608D1*
X596463D2*
X590715Y897966D1*
X588814Y901813D1*
Y907517D1*
X590715Y911364D1*
X596463Y913265D1*
X615608D1*
X596463D2*
X590715Y919013D1*
X588814Y922860D1*
Y928563D1*
X590715Y932410D1*
X596463Y934356D1*
X615608D1*
X588814Y946707D2*
X629006D1*
X594562D2*
X590759Y950554D1*
X588814Y954356D1*
Y960104D1*
X590759Y963951D1*
X594562Y967754D1*
X600310Y969699D1*
X604156D1*
X609860Y967754D1*
X613707Y963951D1*
X615608Y960104D1*
Y954356D1*
X613707Y950554D1*
X609860Y946707D1*
X588814Y982051D2*
X607959D1*
X613663Y983952D1*
X615608Y987799D1*
Y993547D1*
X613663Y997349D1*
X607959Y1003097D1*
X588814D2*
X615608D1*
X575416Y1021197D2*
X607959D1*
X613663Y1023098D1*
X615608Y1026945D1*
Y1030747D1*
X588814Y1015449D2*
Y1028846D1*
X600310Y1043099D2*
Y1066047D1*
X596463D1*
X592616Y1064145D1*
X590715Y1062244D1*
X588814Y1058397D1*
Y1052649D1*
X590715Y1048847D1*
X594562Y1045000D1*
X600310Y1043099D1*
X604112D1*
X609860Y1045000D1*
X613663Y1048847D1*
X615608Y1052649D1*
Y1058397D1*
X613663Y1062244D1*
X609860Y1066047D1*
X588814Y1117279D2*
X615608D1*
X596463D2*
X590715Y1123027D1*
X588814Y1126874D1*
Y1132577D1*
X590715Y1136424D1*
X596463Y1138325D1*
X615608D1*
X596463D2*
X590715Y1144073D1*
X588814Y1147920D1*
Y1153624D1*
X590715Y1157471D1*
X596463Y1159416D1*
X615608D1*
X588814Y1181318D2*
X590715Y1177516D1*
X594562Y1173669D1*
X600310Y1171768D1*
X604112D1*
X609860Y1173669D1*
X613663Y1177516D1*
X615608Y1181318D1*
Y1187066D1*
X613663Y1190913D1*
X609860Y1194716D1*
X604112Y1196661D1*
X600310D1*
X594562Y1194716D1*
X590715Y1190913D1*
X588814Y1187066D1*
Y1181318D1*
X575416Y1231960D2*
X615608D1*
X594562D2*
X590715Y1228158D1*
X588814Y1224311D1*
Y1218563D1*
X590715Y1214760D1*
X594562Y1210914D1*
X600310Y1209012D1*
X604112D1*
X609860Y1210914D1*
X613663Y1214760D1*
X615608Y1218563D1*
Y1224311D1*
X613663Y1228158D1*
X609860Y1231960D1*
X588814Y1244312D2*
X607959D1*
X613663Y1246213D1*
X615608Y1250060D1*
Y1255808D1*
X613663Y1259610D1*
X607959Y1265358D1*
X588814D2*
X615608D1*
X575416Y1277710D2*
X615608D1*
X600310Y1290061D2*
Y1313009D1*
X596463D1*
X592616Y1311108D1*
X590715Y1309207D1*
X588814Y1305360D1*
Y1299612D1*
X590715Y1295809D1*
X594562Y1291962D1*
X600310Y1290061D1*
X604112D1*
X609860Y1291962D1*
X613663Y1295809D1*
X615608Y1299612D1*
Y1305360D1*
X613663Y1309207D1*
X609860Y1313009D1*
X670726Y954135D2*
X630579D1*
X657329Y934990D1*
Y963686D1*
X640129Y977983D2*
X638228D1*
X634381Y979884D1*
X632480Y981785D1*
X630579Y985632D1*
Y993281D1*
X632480Y997084D1*
X634381Y998985D1*
X638228Y1000930D1*
X642030D1*
X645877Y998985D1*
X651581Y995182D1*
X670726Y976037D1*
Y1002832D1*
X630579Y1026679D2*
X632480Y1020931D1*
X638228Y1017084D1*
X647779Y1015183D1*
X653527D1*
X663077Y1017084D1*
X668825Y1020931D1*
X670726Y1026679D1*
Y1030482D1*
X668825Y1036230D1*
X663077Y1040032D1*
X653527Y1041978D1*
X647778D1*
X638228Y1040032D1*
X632480Y1036230D1*
X630579Y1030482D1*
Y1026679D1*
X638228Y1040032D2*
X663077Y1017084D1*
X630579Y1065825D2*
X632480Y1060077D1*
X638228Y1056230D1*
X647778Y1054329D1*
X653527D1*
X663077Y1056230D1*
X668825Y1060077D1*
X670726Y1065825D1*
Y1069628D1*
X668825Y1075376D1*
X663077Y1079178D1*
X653527Y1081124D1*
X647778D1*
X638228Y1079178D1*
X632480Y1075376D1*
X630579Y1069628D1*
Y1065825D1*
X638228Y1079178D2*
X663077Y1056230D1*
X630534Y1157249D2*
Y1132356D1*
X670726D1*
X649680D2*
Y1147655D1*
X643932Y1192549D2*
X670726D1*
X649680D2*
X645833Y1188746D1*
X643932Y1184899D1*
Y1179196D1*
X645833Y1175349D1*
X649680Y1171546D1*
X655428Y1169601D1*
X659230D1*
X664978Y1171546D1*
X668781Y1175349D1*
X670726Y1179196D1*
Y1184899D1*
X668781Y1188746D1*
X664978Y1192549D1*
X643932Y1204900D2*
X670726D1*
X651581D2*
X645833Y1210648D1*
X643932Y1214495D1*
Y1220199D1*
X645833Y1224045D1*
X651581Y1225947D1*
X670726D1*
X651581D2*
X645833Y1231695D1*
X643932Y1235541D1*
Y1241245D1*
X645833Y1245092D1*
X651581Y1247038D1*
X670726D1*
X630534Y1259389D2*
X632436Y1261290D1*
X630534Y1263236D1*
X628589Y1261290D1*
X630534Y1259389D1*
X643932Y1261290D2*
X670726D1*
X630534Y1275587D2*
X670726D1*
X643932Y1289884D2*
X670726Y1301336D1*
X678376Y1297533D1*
X682222Y1293687D1*
X684124Y1289884D1*
Y1287938D1*
X643932Y1312832D2*
X670726Y1301336D1*
X934229Y1413610D2*
D56*
X932803Y1416461D1*
X929918Y1419347D1*
X927066Y1420773D1*
X921329D1*
X918444Y1419347D1*
X915592Y1416461D1*
X914133Y1413610D1*
X912707Y1409299D1*
Y1402102D1*
X914133Y1397825D1*
X915592Y1394940D1*
X918444Y1392088D1*
X921329Y1390629D1*
X927066D1*
X929918Y1392088D1*
X932803Y1394940D1*
X934229Y1397825D1*
X943493Y1420773D2*
X954967Y1406413D1*
Y1390629D1*
X966441Y1420773D2*
X954967Y1406413D1*
X982867Y1420739D2*
X978589Y1419313D1*
X977130Y1416461D1*
Y1413576D1*
X978589Y1410725D1*
X981441Y1409265D1*
X987178Y1407839D1*
X991489Y1406413D1*
X994341Y1403528D1*
X995767Y1400677D1*
Y1396365D1*
X994341Y1393514D1*
X992915Y1392054D1*
X988604Y1390629D1*
X982867D1*
X978589Y1392054D1*
X977130Y1393514D1*
X975704Y1396365D1*
Y1400677D1*
X977130Y1403528D1*
X980015Y1406413D1*
X984293Y1407839D1*
X990030Y1409265D1*
X992915Y1410725D1*
X994341Y1413576D1*
Y1416461D1*
X992915Y1419313D1*
X988604Y1420739D1*
X982867D1*
X1026552Y1413610D2*
X1025127Y1416461D1*
X1022241Y1419347D1*
X1019390Y1420773D1*
X1013653D1*
X1010768Y1419347D1*
X1007916Y1416461D1*
X1006456Y1413610D1*
X1005031Y1409299D1*
Y1402102D1*
X1006456Y1397825D1*
X1007916Y1394940D1*
X1010768Y1392088D1*
X1013653Y1390629D1*
X1019390D1*
X1022241Y1392088D1*
X1025127Y1394940D1*
X1026552Y1397825D1*
X1050175Y1390629D2*
Y1420739D1*
X1035816Y1400677D1*
X1057338D1*
X1068061Y1413576D2*
Y1415002D1*
X1069487Y1417887D1*
X1070913Y1419313D1*
X1073798Y1420739D1*
X1079535D1*
X1082387Y1419313D1*
X1083812Y1417887D1*
X1085272Y1415002D1*
Y1412150D1*
X1083812Y1409265D1*
X1080961Y1404988D1*
X1066602Y1390629D1*
X1086698D1*
X1110320D2*
Y1420739D1*
X1095961Y1400677D1*
X1117483D1*
X1143958Y1420739D2*
X1129632D1*
X1128206Y1407839D1*
X1129632Y1409265D1*
X1133943Y1410725D1*
X1138221D1*
X1142532Y1409265D1*
X1145417Y1406413D1*
X1146843Y1402102D1*
Y1399251D1*
X1145417Y1394940D1*
X1142532Y1392054D1*
X1138221Y1390629D1*
X1133943D1*
X1129632Y1392054D1*
X1128206Y1393514D1*
X1126747Y1396365D1*
X1179087Y1390629D2*
X1167580Y1420773D1*
X1156106Y1390629D1*
X1160417Y1400677D2*
X1174776D1*
X1188351Y1420773D2*
X1208447Y1390629D1*
Y1420773D2*
X1188351Y1390629D1*
X1217710Y1420773D2*
Y1390629D1*
X1226974Y1405684D2*
X1243555D1*
X1267177Y1390629D2*
Y1420739D1*
X1252818Y1400677D1*
X1274340D1*
X1290767Y1420739D2*
X1286489Y1419313D1*
X1285030Y1416461D1*
Y1413576D1*
X1286489Y1410725D1*
X1289341Y1409265D1*
X1295078Y1407839D1*
X1299389Y1406413D1*
X1302241Y1403528D1*
X1303667Y1400677D1*
Y1396365D1*
X1302241Y1393514D1*
X1300815Y1392054D1*
X1296504Y1390629D1*
X1290767D1*
X1286489Y1392054D1*
X1285030Y1393514D1*
X1283604Y1396365D1*
Y1400677D1*
X1285030Y1403528D1*
X1287915Y1406413D1*
X1292193Y1407839D1*
X1297930Y1409265D1*
X1300815Y1410725D1*
X1302241Y1413576D1*
Y1416461D1*
X1300815Y1419313D1*
X1296504Y1420739D1*
X1290767D1*
X1315815D2*
X1331567D1*
X1322978Y1409265D1*
X1327289D1*
X1330141Y1407839D1*
X1331567Y1406413D1*
X1333026Y1402102D1*
Y1399251D1*
X1331567Y1394940D1*
X1328715Y1392054D1*
X1324404Y1390629D1*
X1320093D1*
X1315815Y1392054D1*
X1314389Y1393514D1*
X1312930Y1396365D1*
X512294Y1523347D2*
D59*
X532390Y1530997D1*
X512294Y1538646D1*
X521867Y1555345D2*
X519944Y1554394D1*
X518993Y1551520D1*
Y1548646D1*
X519944Y1545772D1*
X521867Y1544822D1*
X523768Y1545772D1*
X524741Y1547696D1*
X525692Y1552471D1*
X526642Y1554394D1*
X528566Y1555345D1*
X529516D1*
X531417Y1554394D1*
X532390Y1551520D1*
Y1548646D1*
X531417Y1545772D1*
X529516Y1544822D1*
X518993Y1562493D2*
X532390Y1568219D1*
X536215Y1566318D1*
X538138Y1564395D1*
X539089Y1562493D1*
Y1561521D1*
X518993Y1573967D2*
X532390Y1568219D1*
X521867Y1590666D2*
X519944Y1589716D1*
X518993Y1586842D1*
Y1583968D1*
X519944Y1581094D1*
X521867Y1580143D1*
X523768Y1581094D1*
X524741Y1583017D1*
X525692Y1587792D1*
X526642Y1589716D1*
X528566Y1590666D1*
X529516D1*
X531417Y1589716D1*
X532390Y1586842D1*
Y1583968D1*
X531417Y1581094D1*
X529516Y1580143D1*
X513082Y1420985D2*
X533178Y1428634D1*
X513082Y1436284D1*
X522654Y1452983D2*
X520731Y1452032D1*
X519780Y1449158D1*
Y1446284D1*
X520731Y1443410D1*
X522654Y1442459D1*
X524556Y1443410D1*
X525528Y1445333D1*
X526479Y1450109D1*
X527430Y1452032D1*
X529353Y1452983D1*
X530304D1*
X532205Y1452032D1*
X533178Y1449158D1*
Y1446284D1*
X532205Y1443410D1*
X530304Y1442459D1*
X519780Y1460131D2*
X533178Y1465857D1*
X537002Y1463956D1*
X538926Y1462032D1*
X539876Y1460131D1*
Y1459158D1*
X519780Y1471605D2*
X533178Y1465857D1*
X522654Y1488304D2*
X520731Y1487353D1*
X519780Y1484479D1*
Y1481605D1*
X520731Y1478731D1*
X522654Y1477781D1*
X524556Y1478731D1*
X525528Y1480655D1*
X526479Y1485430D1*
X527430Y1487353D1*
X529353Y1488304D1*
X530304D1*
X532205Y1487353D1*
X533178Y1484479D1*
Y1481605D1*
X532205Y1478731D1*
X530304Y1477781D1*
X514899Y1328450D2*
D56*
X545043D1*
X514899Y1346336D2*
X516325Y1343451D1*
X519210Y1340599D1*
X522061Y1339140D1*
X526373Y1337714D1*
X533569D1*
X537846Y1339140D1*
X540732Y1340599D1*
X543583Y1343451D1*
X545043Y1346336D1*
Y1352073D1*
X543583Y1354924D1*
X540732Y1357810D1*
X537846Y1359235D1*
X533569Y1360661D1*
X526373D1*
X522062Y1359236D1*
X519210Y1357810D1*
X516325Y1354925D1*
X514899Y1352073D1*
Y1346336D1*
X514932Y1378547D2*
X516358Y1374236D1*
X520669Y1371351D1*
X527832Y1369925D1*
X532143D1*
X539306Y1371351D1*
X543617Y1374236D1*
X545043Y1378547D1*
Y1381399D1*
X543617Y1385710D1*
X539306Y1388562D1*
X532143Y1390021D1*
X527832D1*
X520669Y1388562D1*
X516358Y1385710D1*
X514932Y1381399D1*
Y1378547D1*
X520669Y1388562D2*
X539306Y1371351D1*
X512143Y1133962D2*
X542287D1*
X512143Y1151847D2*
X513569Y1148962D1*
X516454Y1146111D1*
X519306Y1144651D1*
X523617Y1143225D1*
X530813D1*
X535091Y1144651D1*
X537976Y1146110D1*
X540828Y1148962D1*
X542287Y1151847D1*
Y1157584D1*
X540828Y1160436D1*
X537976Y1163321D1*
X535091Y1164747D1*
X530813Y1166173D1*
X523617D1*
X519306Y1164747D1*
X516454Y1163321D1*
X513569Y1160436D1*
X512143Y1157584D1*
Y1151847D1*
X519339Y1176896D2*
X517913D1*
X515028Y1178322D1*
X513602Y1179748D1*
X512176Y1182633D1*
Y1188370D1*
X513602Y1191222D1*
X515028Y1192648D1*
X517913Y1194107D1*
X520765D1*
X523650Y1192648D1*
X527928Y1189796D1*
X542287Y1175437D1*
Y1195533D1*
X512930Y1032387D2*
X543074D1*
X512930Y1050273D2*
X514356Y1047388D1*
X517241Y1044536D1*
X520093Y1043077D1*
X524404Y1041651D1*
X531600D1*
X535878Y1043077D1*
X538763Y1044536D1*
X541615Y1047388D1*
X543074Y1050273D1*
Y1056010D1*
X541615Y1058861D1*
X538763Y1061747D1*
X535878Y1063173D1*
X531600Y1064598D1*
X524404D1*
X520093Y1063173D1*
X517241Y1061747D1*
X514356Y1058862D1*
X512930Y1056010D1*
Y1050273D1*
X512963Y1076747D2*
Y1092499D1*
X524437Y1083910D1*
Y1088221D1*
X525863Y1091073D1*
X527289Y1092499D1*
X531600Y1093958D1*
X534452D1*
X538763Y1092499D1*
X541648Y1089647D1*
X543074Y1085336D1*
Y1081025D1*
X541648Y1076747D1*
X540189Y1075321D1*
X537337Y1073862D1*
X515686Y937505D2*
X545830D1*
X515686Y955391D2*
X517112Y952506D1*
X519997Y949654D1*
X522849Y948195D1*
X527160Y946769D1*
X534356D1*
X538634Y948195D1*
X541519Y949654D1*
X544371Y952506D1*
X545830Y955391D1*
Y961128D1*
X544371Y963980D1*
X541519Y966865D1*
X538634Y968291D1*
X534356Y969717D1*
X527160D1*
X522849Y968291D1*
X519997Y966865D1*
X517112Y963980D1*
X515686Y961128D1*
Y955391D1*
X545830Y993339D2*
X515719D1*
X535782Y978980D1*
Y1000502D1*
X514111Y1232781D2*
X544255D1*
X514111Y1250666D2*
X515537Y1247781D1*
X518422Y1244929D1*
X521274Y1243470D1*
X525585Y1242044D1*
X532781D1*
X537059Y1243470D1*
X539944Y1244929D1*
X542796Y1247781D1*
X544255Y1250666D1*
Y1256403D1*
X542796Y1259255D1*
X539944Y1262140D1*
X537059Y1263566D1*
X532781Y1264992D1*
X525585D1*
X521274Y1263566D1*
X518422Y1262140D1*
X515537Y1259255D1*
X514111Y1256403D1*
Y1250666D1*
X519881Y1274256D2*
X518422Y1277141D1*
X514144Y1281452D1*
X544255D1*
X514505Y827269D2*
X544649D1*
X514505Y845155D2*
X515931Y842269D1*
X518816Y839418D1*
X521668Y837958D1*
X525979Y836533D1*
X533175D1*
X537453Y837958D1*
X540338Y839418D1*
X543190Y842269D1*
X544649Y845154D1*
Y850891D1*
X543190Y853743D1*
X540338Y856628D1*
X537453Y858054D1*
X533175Y859480D1*
X525979D1*
X521668Y858054D1*
X518816Y856628D1*
X515931Y853743D1*
X514505Y850892D1*
Y845155D1*
X514538Y885955D2*
Y871629D1*
X527438Y870203D1*
X526012Y871629D1*
X524553Y875940D1*
Y880218D1*
X526012Y884529D1*
X528864Y887414D1*
X533175Y888840D1*
X536027D1*
X540338Y887414D1*
X543223Y884529D1*
X544649Y880218D1*
Y875940D1*
X543223Y871629D1*
X541764Y870203D1*
X538912Y868744D1*
X517261Y728056D2*
X547405D1*
X517261Y745942D2*
X518687Y743057D1*
X521572Y740205D1*
X524424Y738746D1*
X528735Y737320D1*
X535931D1*
X540209Y738746D1*
X543094Y740205D1*
X545946Y743057D1*
X547405Y745942D1*
Y751679D1*
X545946Y754531D1*
X543094Y757416D1*
X540209Y758842D1*
X535931Y760268D1*
X528735D1*
X524424Y758842D1*
X521572Y757416D1*
X518687Y754531D1*
X517261Y751679D1*
Y745942D1*
X521572Y786742D2*
X518720Y785316D1*
X517294Y781005D1*
Y778153D1*
X518720Y773842D1*
X523031Y770957D1*
X530194Y769531D1*
X537357D1*
X543094Y770957D1*
X545979Y773842D1*
X547405Y778153D1*
Y779579D1*
X545979Y783857D1*
X543094Y786742D1*
X538783Y788168D1*
X537357D1*
X533046Y786742D1*
X530194Y783857D1*
X528768Y779579D1*
Y778153D1*
X530194Y773842D1*
X533046Y770957D1*
X537357Y769531D1*
X520804Y630025D2*
X550948D1*
X520804Y647910D2*
X522230Y645025D1*
X525115Y642173D1*
X527967Y640714D1*
X532278Y639288D1*
X539474D1*
X543752Y640714D1*
X546637Y642173D1*
X549489Y645025D1*
X550948Y647910D1*
Y653647D1*
X549489Y656499D1*
X546637Y659384D1*
X543752Y660810D1*
X539474Y662236D1*
X532278D1*
X527967Y660810D1*
X525115Y659384D1*
X522230Y656499D1*
X520804Y653647D1*
Y647910D1*
X550948Y677237D2*
X520837Y691596D1*
Y671500D1*
X516867Y414671D2*
X547011D1*
Y431881D1*
X531226Y441145D2*
Y454045D1*
X529767Y458356D1*
X528341Y459815D1*
X525489Y461241D1*
X522604D1*
X519752Y459815D1*
X518293Y458356D1*
X516867Y454045D1*
Y441145D1*
X547011D1*
X531226Y451193D2*
X547011Y461241D1*
X526915Y470504D2*
X547011Y486289D1*
X526915D2*
X547011Y470504D1*
X515686Y521757D2*
X545830D1*
Y538968D1*
X515686Y558280D2*
X545830D1*
X515686Y548232D2*
Y568328D1*
X525734Y577591D2*
X545830Y593376D1*
X525734D2*
X545830Y577591D1*
X1710250Y1533830D2*
X1707399Y1532404D1*
X1704514Y1529519D1*
X1703088Y1526667D1*
Y1520930D1*
X1704513Y1518045D1*
X1707399Y1515193D1*
X1710250Y1513734D1*
X1714561Y1512308D1*
X1721758D1*
X1726035Y1513734D1*
X1728921Y1515193D1*
X1731772Y1518045D1*
X1733232Y1520930D1*
Y1526667D1*
X1731772Y1529519D1*
X1728921Y1532404D1*
X1726035Y1533830D1*
X1721758D1*
Y1526667D1*
X1703088Y1563190D2*
X1733232D1*
X1703088Y1543094D1*
X1733232D1*
X1703088Y1572453D2*
X1733232D1*
Y1582501D1*
X1731772Y1586812D1*
X1728921Y1589697D1*
X1726035Y1591123D1*
X1721758Y1592549D1*
X1714561D1*
X1710250Y1591123D1*
X1707399Y1589697D1*
X1704514Y1586812D1*
X1703088Y1582501D1*
Y1572453D1*
X1709857Y1438555D2*
X1707005Y1437129D1*
X1704120Y1434244D1*
X1702694Y1431392D1*
Y1425655D1*
X1704120Y1422770D1*
X1707005Y1419918D1*
X1709857Y1418459D1*
X1714168Y1417033D1*
X1721364D1*
X1725642Y1418459D1*
X1728527Y1419918D1*
X1731379Y1422770D1*
X1732838Y1425655D1*
Y1431392D1*
X1731379Y1434244D1*
X1728527Y1437129D1*
X1725642Y1438555D1*
X1721364D1*
Y1431392D1*
X1702694Y1467914D2*
X1732838D1*
X1702694Y1447818D1*
X1732838D1*
X1702694Y1477178D2*
X1732838D1*
Y1487226D1*
X1731379Y1491537D1*
X1728527Y1494422D1*
X1725642Y1495848D1*
X1721364Y1497274D1*
X1714168D1*
X1709857Y1495848D1*
X1707005Y1494422D1*
X1704120Y1491537D1*
X1702694Y1487226D1*
Y1477178D1*
X1706217Y1339491D2*
X1703332Y1336639D1*
X1701906Y1332328D1*
Y1326591D1*
X1703332Y1322280D1*
X1706217Y1319395D1*
X1709069D1*
X1711954Y1320854D1*
X1713380Y1322280D1*
X1714806Y1325132D1*
X1717691Y1333754D1*
X1719117Y1336639D1*
X1720577Y1338065D1*
X1723428Y1339491D1*
X1727739D1*
X1730591Y1336639D1*
X1732050Y1332328D1*
Y1326591D1*
X1730591Y1322280D1*
X1727739Y1319395D1*
X1709069Y1370276D2*
X1706217Y1368850D1*
X1703332Y1365965D1*
X1701906Y1363113D1*
Y1357377D1*
X1703332Y1354491D1*
X1706217Y1351640D1*
X1709069Y1350180D1*
X1713380Y1348754D1*
X1720577D1*
X1724854Y1350180D1*
X1727739Y1351639D1*
X1730591Y1354491D1*
X1732050Y1357376D1*
Y1363113D1*
X1730591Y1365965D1*
X1727739Y1368850D1*
X1724854Y1370276D1*
X1701906Y1379540D2*
X1732050D1*
Y1396751D1*
X1705824Y1233979D2*
X1702939Y1231127D1*
X1701513Y1226816D1*
Y1221079D1*
X1702939Y1216768D1*
X1705824Y1213883D1*
X1708676D1*
X1711561Y1215342D1*
X1712987Y1216768D1*
X1714413Y1219620D1*
X1717298Y1228242D1*
X1718724Y1231127D1*
X1720183Y1232553D1*
X1723035Y1233979D1*
X1727346D1*
X1730198Y1231127D1*
X1731657Y1226816D1*
Y1221079D1*
X1730198Y1216768D1*
X1727346Y1213883D1*
X1701513Y1243243D2*
X1731657D1*
Y1253291D1*
X1730198Y1257602D1*
X1727346Y1260487D1*
X1724461Y1261913D1*
X1720183Y1263339D1*
X1712987D1*
X1708676Y1261913D1*
X1705824Y1260487D1*
X1702939Y1257602D1*
X1701513Y1253291D1*
Y1243243D1*
X1731657Y1295583D2*
X1701513Y1284076D1*
X1731657Y1272602D1*
X1721609Y1276913D2*
Y1291272D1*
X1709857Y1134224D2*
X1707005Y1132798D1*
X1704120Y1129913D1*
X1702694Y1127061D1*
Y1121324D1*
X1704120Y1118439D1*
X1707005Y1115587D1*
X1709857Y1114128D1*
X1714168Y1112702D1*
X1721364D1*
X1725642Y1114128D1*
X1728527Y1115587D1*
X1731379Y1118439D1*
X1732838Y1121324D1*
Y1127061D1*
X1731379Y1129913D1*
X1728527Y1132798D1*
X1725642Y1134224D1*
X1702694Y1143488D2*
X1732838Y1143487D1*
Y1160698D1*
X1702694Y1169962D2*
X1732838D1*
X1702694Y1190058D2*
X1722790Y1169962D1*
X1715594Y1177125D2*
X1732838Y1190058D1*
X1731603Y1041402D2*
D59*
X1711507D1*
X1731603Y1033753D1*
X1711507Y1026103D1*
X1731603D1*
X1711507Y1047578D2*
X1731603D1*
X1714381Y1067151D2*
X1712457Y1065249D1*
X1711507Y1062375D1*
Y1058551D1*
X1712457Y1055677D1*
X1714381Y1053753D1*
X1716282D1*
X1718206Y1054726D1*
X1719156Y1055677D1*
X1720107Y1057578D1*
X1722030Y1063326D1*
X1722981Y1065249D1*
X1723954Y1066200D1*
X1725855Y1067151D1*
X1728729D1*
X1730630Y1065249D1*
X1731603Y1062375D1*
Y1058551D1*
X1730630Y1055677D1*
X1728729Y1053753D1*
X1711507Y1079074D2*
X1712457Y1077151D1*
X1714381Y1075250D1*
X1716282Y1074277D1*
X1719156Y1073326D1*
X1723954D1*
X1726805Y1074277D1*
X1728729Y1075250D1*
X1730630Y1077151D1*
X1731603Y1079074D1*
Y1082899D1*
X1730630Y1084800D1*
X1728729Y1086724D1*
X1726805Y1087674D1*
X1723954Y1088625D1*
X1719156D1*
X1716282Y1087674D1*
X1714381Y1086724D1*
X1712457Y1084800D1*
X1711507Y1082899D1*
Y1079074D1*
X1729634Y936677D2*
X1709538D1*
X1729634Y929028D1*
X1709538Y921379D1*
X1729634D1*
X1709538Y948601D2*
X1710489Y946678D1*
X1712412Y944777D1*
X1714314Y943804D1*
X1717188Y942853D1*
X1721985D1*
X1724837Y943804D1*
X1726760Y944776D1*
X1728662Y946678D1*
X1729634Y948601D1*
Y952426D1*
X1728662Y954327D1*
X1726760Y956250D1*
X1724837Y957201D1*
X1721985Y958152D1*
X1717188D1*
X1714314Y957201D1*
X1712412Y956250D1*
X1710489Y954327D1*
X1709538Y952426D1*
Y948601D1*
X1712412Y977725D2*
X1710489Y975823D1*
X1709538Y972949D1*
Y969125D1*
X1710489Y966251D1*
X1712412Y964327D1*
X1714314D1*
X1716237Y965300D1*
X1717188Y966251D1*
X1718138Y968152D1*
X1720062Y973900D1*
X1721012Y975823D1*
X1721985Y976774D1*
X1723886Y977725D1*
X1726760D1*
X1728662Y975823D1*
X1729634Y972949D1*
Y969125D1*
X1728662Y966251D1*
X1726760Y964327D1*
X1709538Y983900D2*
X1729634D1*
X1707101Y848641D2*
D56*
X1704249Y847215D1*
X1701364Y844330D1*
X1699938Y841478D1*
Y835741D1*
X1701364Y832856D1*
X1704249Y830004D1*
X1707101Y828545D1*
X1711412Y827119D1*
X1718608D1*
X1722886Y828545D1*
X1725771Y830004D1*
X1728623Y832856D1*
X1730082Y835741D1*
Y841478D1*
X1728623Y844330D1*
X1725771Y847215D1*
X1722886Y848641D1*
X1704249Y878001D2*
X1701364Y875149D1*
X1699938Y870838D1*
Y865101D1*
X1701364Y860790D1*
X1704249Y857905D1*
X1707101D1*
X1709986Y859364D1*
X1711412Y860790D1*
X1712838Y863642D1*
X1715723Y872264D1*
X1717149Y875149D1*
X1718608Y876575D1*
X1721460Y878001D1*
X1725771D1*
X1728623Y875149D1*
X1730082Y870838D1*
Y865101D1*
X1728623Y860790D1*
X1725771Y857905D1*
X1729295Y760092D2*
X1699151Y748585D1*
X1729294Y737112D1*
X1719247Y741423D2*
Y755781D1*
X1704921Y769356D2*
X1703462Y772241D1*
X1699184Y776552D1*
X1729295D1*
X1730869Y651037D2*
X1700725Y639530D1*
X1730869Y628056D1*
X1720821Y632367D2*
Y646726D1*
X1700759Y668923D2*
X1702184Y664612D1*
X1706496Y661727D1*
X1713658Y660301D1*
X1717969D1*
X1725132Y661727D1*
X1729443Y664612D1*
X1730869Y668923D1*
Y671775D1*
X1729443Y676086D1*
X1725132Y678938D1*
X1717969Y680397D1*
X1713658D1*
X1706495Y678938D1*
X1702184Y676086D1*
X1700759Y671775D1*
Y668923D1*
X1706495Y678938D2*
X1725132Y661727D1*
X1698363Y543616D2*
X1728507D1*
X1698363Y533568D2*
Y553664D1*
X1708411Y562928D2*
X1728507Y578713D1*
X1708411D2*
X1728507Y562928D1*
X1713510Y428844D2*
Y441744D1*
X1712050Y446055D1*
X1710625Y447514D1*
X1707773Y448940D1*
X1704888D1*
X1702036Y447514D1*
X1700576Y446055D1*
X1699151Y441744D1*
X1699150Y428844D1*
X1729294D1*
X1713510Y438892D2*
X1729295Y448940D1*
X1709199Y458203D2*
X1729295Y473988D1*
X1709199D2*
X1729295Y458203D1*
X1344478Y426681D2*
D60*
X1346909Y421872D1*
X1354039Y414687D1*
X1303854D1*
X930306Y417273D2*
D58*
Y436374D1*
X913106Y438275D1*
X915007Y436374D1*
X916953Y430626D1*
Y424922D1*
X915007Y419174D1*
X911205Y415327D1*
X905457Y413426D1*
X901654D1*
X895906Y415327D1*
X892059Y419174D1*
X890158Y424922D1*
Y430626D1*
X892059Y436374D1*
X894005Y438275D1*
X897807Y440221D1*
M02*
