G04 DipTrace 3.1.0.0*
G04 BottomSilk.gbr*
%MOIN*%
G04 #@! TF.FileFunction,Legend,Bot*
G04 #@! TF.Part,Single*
%ADD10C,0.01*%
%ADD12C,0.002992*%
%ADD26C,0.059055*%
%ADD28C,0.047261*%
%ADD132C,0.004632*%
%FSLAX26Y26*%
G04*
G70*
G90*
G75*
G01*
G04 BotSilk*
%LPD*%
X2582531Y738212D2*
D10*
X2785392D1*
X2582531Y1568869D2*
X2784999D1*
X2786962D2*
G02X2826451Y1531551I-672J-40263D01*
G01*
Y1530278D2*
G02X2809258Y1463795I-80008J-14774D01*
G01*
D28*
X2460374Y507878D3*
X2745432Y939827D2*
D10*
G02X2749043Y1390561I296411J223007D01*
G01*
X2826844Y787374D2*
G02X2787355Y738212I-44302J-4855D01*
G01*
X2826844Y777567D2*
G03X2805568Y852711I-112933J8609D01*
G01*
X2259633Y738212D2*
X2042719Y996121D1*
Y1310960D1*
X2342143Y738212D2*
X2259633D1*
X2042719Y1310960D2*
X2261595Y1568869D1*
X2340181D2*
X2261595D1*
X2805568Y852711D2*
X2744490Y941355D1*
X2749200Y1390179D2*
X2809101Y1463031D1*
X1135846Y1415333D2*
X1186988D1*
X1017736D2*
X1068878D1*
X3872067Y1336593D2*
X3923209D1*
X3509823Y1419312D2*
X3458681D1*
X4105118Y1072047D2*
X4005118D1*
X4105118Y1572047D2*
Y1072047D1*
X4005118Y1572047D2*
Y1072047D1*
X4105118Y1572047D2*
X4005118D1*
X1329213Y778511D2*
X1269213D1*
X1329213Y938811D2*
Y778511D1*
Y938811D2*
X1269213D1*
Y778511D1*
X1230787Y522606D2*
X1170787D1*
X1230787Y682906D2*
Y522606D1*
Y682906D2*
X1170787D1*
Y522606D1*
D26*
X2627953Y600394D3*
X1406454Y2295226D2*
D12*
X1434879D1*
X1475273D2*
X1514171D1*
X1545588D2*
X1584486D1*
X1627871D2*
X1633856D1*
X1674249D2*
X1680234D1*
X1719131D2*
X1725115D1*
X1767005D2*
X1772990D1*
X1814879D2*
X1820864D1*
X1861257D2*
X1865745D1*
X1888186D2*
X1921100D1*
X1405252Y2293730D2*
X1435570D1*
X1474077D2*
X1515367D1*
X1544392D2*
X1585682D1*
X1626669D2*
X1635058D1*
X1673053D2*
X1681436D1*
X1717935D2*
X1726312D1*
X1765803D2*
X1774192D1*
X1813677D2*
X1822066D1*
X1859365D2*
X1866947D1*
X1886990D2*
X1922296D1*
X1404241Y2292234D2*
X1435988D1*
X1473083D2*
X1516361D1*
X1543398D2*
X1586676D1*
X1625800D2*
X1635927D1*
X1672059D2*
X1682305D1*
X1716941D2*
X1727306D1*
X1764934D2*
X1775061D1*
X1812808D2*
X1822935D1*
X1857842D2*
X1867817D1*
X1885996D2*
X1923290D1*
X1403822Y2290738D2*
X1436219D1*
X1472798D2*
X1516669D1*
X1543113D2*
X1586984D1*
X1625216D2*
X1636511D1*
X1671751D2*
X1682889D1*
X1716633D2*
X1727613D1*
X1764350D2*
X1775645D1*
X1812224D2*
X1823519D1*
X1857215D2*
X1868401D1*
X1885688D2*
X1923574D1*
X1403974Y2289241D2*
X1435940D1*
X1473314D2*
X1516365D1*
X1543629D2*
X1586680D1*
X1625222D2*
X1636505D1*
X1672055D2*
X1682906D1*
X1716937D2*
X1727310D1*
X1764356D2*
X1775638D1*
X1812230D2*
X1823536D1*
X1857206D2*
X1868418D1*
X1885992D2*
X1923058D1*
X1405073Y2287745D2*
X1434796D1*
X1474201D2*
X1515819D1*
X1544516D2*
X1586134D1*
X1625897D2*
X1635830D1*
X1672601D2*
X1682286D1*
X1717483D2*
X1726764D1*
X1765030D2*
X1774964D1*
X1812904D2*
X1822916D1*
X1857467D2*
X1867798D1*
X1886538D2*
X1922171D1*
X1406454Y2286249D2*
X1433383D1*
X1475273D2*
X1515059D1*
X1545588D2*
X1585373D1*
X1627515D2*
X1634212D1*
X1673361D2*
X1681341D1*
X1718243D2*
X1726003D1*
X1766649D2*
X1773346D1*
X1814523D2*
X1821971D1*
X1857863D2*
X1866853D1*
X1887298D2*
X1921100D1*
X1508249Y2284753D2*
X1514171D1*
X1578564D2*
X1584486D1*
X1629367D2*
X1632360D1*
X1674249D2*
X1680234D1*
X1719131D2*
X1725115D1*
X1768501D2*
X1771493D1*
X1816375D2*
X1820864D1*
X1858265D2*
X1865745D1*
X1888186D2*
X1894108D1*
X1395982Y2283257D2*
X1401966D1*
X1439367D2*
X1445352D1*
X1464801D2*
X1469289D1*
X1507003D2*
X1515092D1*
X1535115D2*
X1539604D1*
X1577318D2*
X1585407D1*
X1618895D2*
X1624879D1*
X1636848D2*
X1642832D1*
X1673328D2*
X1681436D1*
X1717929D2*
X1726037D1*
X1758029D2*
X1764013D1*
X1775982D2*
X1781966D1*
X1814942D2*
X1821785D1*
X1852919D2*
X1866667D1*
X1886984D2*
X1895348D1*
X1394780Y2281761D2*
X1403162D1*
X1438171D2*
X1446548D1*
X1463419D2*
X1470670D1*
X1506121D2*
X1515887D1*
X1533734D2*
X1540985D1*
X1576436D2*
X1586202D1*
X1617699D2*
X1626260D1*
X1635646D2*
X1644028D1*
X1672533D2*
X1682305D1*
X1717060D2*
X1726832D1*
X1756833D2*
X1765394D1*
X1774780D2*
X1783162D1*
X1813702D2*
X1822580D1*
X1848839D2*
X1867462D1*
X1886115D2*
X1896359D1*
X1393910Y2280265D2*
X1404156D1*
X1437177D2*
X1447542D1*
X1462396D2*
X1471693D1*
X1505531D2*
X1516563D1*
X1532711D2*
X1542008D1*
X1575846D2*
X1586877D1*
X1616705D2*
X1627283D1*
X1634634D2*
X1645022D1*
X1671857D2*
X1682889D1*
X1716476D2*
X1727507D1*
X1755839D2*
X1766417D1*
X1773768D2*
X1784156D1*
X1812691D2*
X1823132D1*
X1847268D2*
X1868137D1*
X1885531D2*
X1896668D1*
X1393326Y2278769D2*
X1404440D1*
X1436870D2*
X1447826D1*
X1462147D2*
X1471942D1*
X1505514D2*
X1516722D1*
X1532462D2*
X1542257D1*
X1575829D2*
X1587037D1*
X1616420D2*
X1627534D1*
X1634215D2*
X1645307D1*
X1671698D2*
X1682906D1*
X1716459D2*
X1727667D1*
X1755554D2*
X1766668D1*
X1773349D2*
X1784440D1*
X1812405D2*
X1823438D1*
X1846665D2*
X1868297D1*
X1885514D2*
X1896303D1*
X1393309Y2277273D2*
X1404063D1*
X1437173D2*
X1447373D1*
X1462090D2*
X1472000D1*
X1506071D2*
X1516227D1*
X1532405D2*
X1542315D1*
X1576386D2*
X1586542D1*
X1616936D2*
X1627596D1*
X1634368D2*
X1644791D1*
X1672193D2*
X1682349D1*
X1717016D2*
X1727172D1*
X1756070D2*
X1766730D1*
X1773502D2*
X1783925D1*
X1812858D2*
X1823093D1*
X1846781D2*
X1867802D1*
X1886071D2*
X1895695D1*
X1393929Y2275777D2*
X1403031D1*
X1437719D2*
X1446756D1*
X1462730D2*
X1471359D1*
X1506743D2*
X1515589D1*
X1533045D2*
X1541674D1*
X1577058D2*
X1585904D1*
X1617823D2*
X1627058D1*
X1635467D2*
X1643904D1*
X1672831D2*
X1681677D1*
X1717687D2*
X1726534D1*
X1756957D2*
X1766192D1*
X1774601D2*
X1783037D1*
X1813475D2*
X1822526D1*
X1848504D2*
X1867164D1*
X1886743D2*
X1894296D1*
X1394874Y2274281D2*
X1401797D1*
X1438480D2*
X1446208D1*
X1463686D2*
X1470403D1*
X1507321D2*
X1515030D1*
X1534001D2*
X1540718D1*
X1577636D2*
X1585345D1*
X1618895D2*
X1626375D1*
X1636848D2*
X1642832D1*
X1673390D2*
X1681099D1*
X1718266D2*
X1725975D1*
X1758029D2*
X1765509D1*
X1775982D2*
X1781966D1*
X1814023D2*
X1821756D1*
X1853621D2*
X1866605D1*
X1887321D2*
X1892675D1*
X1395982Y2272785D2*
X1400470D1*
X1439367D2*
X1446505D1*
X1464801D2*
X1469289D1*
X1507029D2*
X1515325D1*
X1535115D2*
X1539604D1*
X1577344D2*
X1585640D1*
X1612911D2*
X1614407D1*
X1647320D2*
X1650312D1*
X1673095D2*
X1681391D1*
X1717974D2*
X1726270D1*
X1752045D2*
X1753541D1*
X1786454D2*
X1789446D1*
X1813726D2*
X1820864D1*
X1837320D2*
X1843304D1*
X1859761D2*
X1866900D1*
X1887029D2*
X1894108D1*
X1394780Y2271289D2*
X1402082D1*
X1438165D2*
X1447084D1*
X1463598D2*
X1470491D1*
X1506459D2*
X1515903D1*
X1533913D2*
X1540806D1*
X1576774D2*
X1586218D1*
X1610614D2*
X1616299D1*
X1645428D2*
X1651919D1*
X1672523D2*
X1681967D1*
X1717398D2*
X1726842D1*
X1749747D2*
X1755433D1*
X1784561D2*
X1791053D1*
X1813147D2*
X1822066D1*
X1836118D2*
X1844506D1*
X1858559D2*
X1867478D1*
X1886459D2*
X1895348D1*
X1393910Y2269793D2*
X1403307D1*
X1437296D2*
X1447643D1*
X1462724D2*
X1471360D1*
X1505947D2*
X1516462D1*
X1533038D2*
X1541675D1*
X1576262D2*
X1586777D1*
X1608754D2*
X1617822D1*
X1643905D2*
X1653097D1*
X1672011D2*
X1682525D1*
X1716840D2*
X1727354D1*
X1747888D2*
X1756956D1*
X1783039D2*
X1792230D1*
X1812588D2*
X1822935D1*
X1835249D2*
X1845376D1*
X1857690D2*
X1868037D1*
X1885947D2*
X1896359D1*
X1393326Y2268297D2*
X1404248D1*
X1436712D2*
X1447950D1*
X1462234D2*
X1471944D1*
X1505637D2*
X1516769D1*
X1532549D2*
X1542259D1*
X1575952D2*
X1587084D1*
X1607904D2*
X1618371D1*
X1643278D2*
X1653933D1*
X1671700D2*
X1682832D1*
X1716532D2*
X1727665D1*
X1747038D2*
X1757505D1*
X1782412D2*
X1793067D1*
X1812281D2*
X1823519D1*
X1834664D2*
X1845960D1*
X1857105D2*
X1868344D1*
X1885637D2*
X1896645D1*
X1393309Y2266801D2*
X1404455D1*
X1436695D2*
X1448041D1*
X1461970D2*
X1471938D1*
X1505969D2*
X1516860D1*
X1532285D2*
X1542253D1*
X1576284D2*
X1587175D1*
X1607839D2*
X1618611D1*
X1643268D2*
X1653814D1*
X1672028D2*
X1682923D1*
X1716442D2*
X1727332D1*
X1746972D2*
X1757745D1*
X1782402D2*
X1792948D1*
X1812190D2*
X1823468D1*
X1834758D2*
X1845867D1*
X1857089D2*
X1868435D1*
X1885969D2*
X1896192D1*
X1393929Y2265304D2*
X1403880D1*
X1437315D2*
X1447474D1*
X1462246D2*
X1471264D1*
X1506529D2*
X1516293D1*
X1532561D2*
X1541579D1*
X1576844D2*
X1586608D1*
X1608342D2*
X1618638D1*
X1643517D2*
X1653374D1*
X1672538D2*
X1682293D1*
X1717072D2*
X1726772D1*
X1747476D2*
X1757772D1*
X1782651D2*
X1792508D1*
X1812757D2*
X1823177D1*
X1835187D2*
X1845438D1*
X1857646D2*
X1867868D1*
X1886529D2*
X1895575D1*
X1394874Y2263808D2*
X1402297D1*
X1438260D2*
X1446798D1*
X1463388D2*
X1469645D1*
X1507295D2*
X1515617D1*
X1533703D2*
X1539960D1*
X1577610D2*
X1585932D1*
X1609061D2*
X1617984D1*
X1643856D2*
X1652665D1*
X1673071D2*
X1681344D1*
X1718021D2*
X1726006D1*
X1748195D2*
X1757118D1*
X1782990D2*
X1791799D1*
X1813433D2*
X1822769D1*
X1835824D2*
X1844801D1*
X1858317D2*
X1867192D1*
X1887295D2*
X1895027D1*
X1395982Y2262312D2*
X1400470D1*
X1439367D2*
X1446217D1*
X1464801D2*
X1467793D1*
X1508186D2*
X1515036D1*
X1535115D2*
X1538108D1*
X1578501D2*
X1585351D1*
X1609919D2*
X1617021D1*
X1644121D2*
X1651808D1*
X1673506D2*
X1680234D1*
X1719131D2*
X1725115D1*
X1749052D2*
X1756155D1*
X1783255D2*
X1790942D1*
X1814014D2*
X1822360D1*
X1858896D2*
X1866611D1*
X1888186D2*
X1895324D1*
X1395060Y2260816D2*
X1401903D1*
X1438446D2*
X1446509D1*
X1475273D2*
X1497714D1*
X1506984D2*
X1515328D1*
X1545588D2*
X1568029D1*
X1577299D2*
X1585643D1*
X1607104D2*
X1654623D1*
X1673157D2*
X1681155D1*
X1717929D2*
X1726037D1*
X1746238D2*
X1793757D1*
X1813722D2*
X1827762D1*
X1858604D2*
X1866903D1*
X1886984D2*
X1895902D1*
X1394265Y2259320D2*
X1403143D1*
X1437651D2*
X1447079D1*
X1473892D2*
X1498910D1*
X1506115D2*
X1515898D1*
X1544207D2*
X1569225D1*
X1576430D2*
X1586213D1*
X1605005D2*
X1656722D1*
X1672600D2*
X1681950D1*
X1717060D2*
X1726832D1*
X1744139D2*
X1795856D1*
X1813152D2*
X1831401D1*
X1858034D2*
X1867473D1*
X1886115D2*
X1896462D1*
X1393590Y2257824D2*
X1404154D1*
X1436976D2*
X1447585D1*
X1472869D2*
X1499904D1*
X1505531D2*
X1516404D1*
X1543184D2*
X1570219D1*
X1575846D2*
X1586719D1*
X1603461D2*
X1658266D1*
X1672074D2*
X1682626D1*
X1716476D2*
X1727507D1*
X1742595D2*
X1797400D1*
X1812646D2*
X1833909D1*
X1857522D2*
X1867979D1*
X1885531D2*
X1896763D1*
X1393430Y2256328D2*
X1404440D1*
X1436816D2*
X1447878D1*
X1472617D2*
X1500188D1*
X1505514D2*
X1516697D1*
X1542932D2*
X1570503D1*
X1575829D2*
X1587012D1*
X1603033D2*
X1658718D1*
X1672220D2*
X1682785D1*
X1716459D2*
X1727667D1*
X1742167D2*
X1797851D1*
X1812353D2*
X1834808D1*
X1857212D2*
X1868271D1*
X1885514D2*
X1896836D1*
X1393925Y2254832D2*
X1403987D1*
X1437311D2*
X1447396D1*
X1472506D2*
X1499740D1*
X1506071D2*
X1516215D1*
X1542821D2*
X1570055D1*
X1576386D2*
X1586530D1*
X1603359D2*
X1658457D1*
X1672624D2*
X1682290D1*
X1717016D2*
X1727172D1*
X1742493D2*
X1797591D1*
X1812835D2*
X1835023D1*
X1857544D2*
X1867789D1*
X1886071D2*
X1896151D1*
X1394563Y2253336D2*
X1403371D1*
X1437949D2*
X1446765D1*
X1475364D2*
X1497927D1*
X1506743D2*
X1515584D1*
X1545679D2*
X1568242D1*
X1577058D2*
X1585899D1*
X1604376D2*
X1657931D1*
X1673111D2*
X1681652D1*
X1717687D2*
X1726534D1*
X1743510D2*
X1797065D1*
X1813466D2*
X1832269D1*
X1858104D2*
X1867159D1*
X1886743D2*
X1894529D1*
X1395123Y2251840D2*
X1402822D1*
X1438508D2*
X1446210D1*
X1479990D2*
X1495136D1*
X1507321D2*
X1515028D1*
X1550305D2*
X1565451D1*
X1577636D2*
X1585343D1*
X1605603D2*
X1657180D1*
X1673538D2*
X1681093D1*
X1718266D2*
X1725975D1*
X1744737D2*
X1796314D1*
X1814021D2*
X1827866D1*
X1858870D2*
X1866603D1*
X1887321D2*
X1892675D1*
X1394827Y2250344D2*
X1403119D1*
X1438213D2*
X1446506D1*
X1485745D2*
X1491730D1*
X1507029D2*
X1515325D1*
X1556060D2*
X1562045D1*
X1577344D2*
X1585640D1*
X1606927D2*
X1613142D1*
X1650375D2*
X1656297D1*
X1673338D2*
X1681388D1*
X1717974D2*
X1726270D1*
X1746060D2*
X1752276D1*
X1789509D2*
X1795430D1*
X1813725D2*
X1822360D1*
X1859761D2*
X1866900D1*
X1887029D2*
X1894108D1*
X1394249Y2248848D2*
X1403692D1*
X1437641D2*
X1447078D1*
X1484549D2*
X1492932D1*
X1506453D2*
X1515903D1*
X1554864D2*
X1563247D1*
X1576768D2*
X1586218D1*
X1605314D2*
X1613513D1*
X1649129D2*
X1657499D1*
X1672905D2*
X1681960D1*
X1717398D2*
X1726842D1*
X1744448D2*
X1752647D1*
X1788263D2*
X1796632D1*
X1813147D2*
X1822871D1*
X1858559D2*
X1867478D1*
X1886459D2*
X1895348D1*
X1393690Y2247352D2*
X1404198D1*
X1437129D2*
X1447584D1*
X1483555D2*
X1493801D1*
X1505895D2*
X1516462D1*
X1553870D2*
X1564116D1*
X1576210D2*
X1586777D1*
X1604090D2*
X1613894D1*
X1648247D2*
X1658368D1*
X1672404D2*
X1682472D1*
X1716840D2*
X1727354D1*
X1743224D2*
X1753028D1*
X1787381D2*
X1797502D1*
X1812588D2*
X1823310D1*
X1857690D2*
X1868037D1*
X1885947D2*
X1896359D1*
X1393383Y2245856D2*
X1404492D1*
X1436818D2*
X1447878D1*
X1483247D2*
X1494385D1*
X1505588D2*
X1516769D1*
X1553562D2*
X1564700D1*
X1575903D2*
X1587084D1*
X1603148D2*
X1614098D1*
X1647657D2*
X1658952D1*
X1671971D2*
X1682783D1*
X1716531D2*
X1727665D1*
X1742282D2*
X1753232D1*
X1786791D2*
X1798086D1*
X1812281D2*
X1823536D1*
X1857105D2*
X1868344D1*
X1885637D2*
X1896645D1*
X1393292Y2244360D2*
X1403941D1*
X1437151D2*
X1447396D1*
X1483503D2*
X1494292D1*
X1505497D2*
X1516860D1*
X1553817D2*
X1564607D1*
X1575812D2*
X1587175D1*
X1602918D2*
X1614127D1*
X1647640D2*
X1658969D1*
X1672125D2*
X1682499D1*
X1716436D2*
X1727381D1*
X1742051D2*
X1753261D1*
X1786774D2*
X1798103D1*
X1812190D2*
X1823574D1*
X1857089D2*
X1868435D1*
X1885969D2*
X1896267D1*
X1393922Y2242864D2*
X1403004D1*
X1437711D2*
X1446765D1*
X1483871D2*
X1493863D1*
X1506064D2*
X1516293D1*
X1554186D2*
X1564178D1*
X1576379D2*
X1586608D1*
X1603391D2*
X1613484D1*
X1648197D2*
X1658412D1*
X1672425D2*
X1682116D1*
X1716962D2*
X1726998D1*
X1742525D2*
X1752618D1*
X1787331D2*
X1797546D1*
X1812757D2*
X1822933D1*
X1857646D2*
X1867868D1*
X1886529D2*
X1895236D1*
X1394871Y2241367D2*
X1401791D1*
X1438477D2*
X1446210D1*
X1484249D2*
X1493226D1*
X1506740D2*
X1515617D1*
X1554564D2*
X1563541D1*
X1577055D2*
X1585932D1*
X1604018D2*
X1612529D1*
X1648869D2*
X1657740D1*
X1672753D2*
X1681730D1*
X1717635D2*
X1726612D1*
X1743152D2*
X1751663D1*
X1788002D2*
X1796874D1*
X1813433D2*
X1821977D1*
X1858317D2*
X1867192D1*
X1887295D2*
X1894002D1*
X1395982Y2239871D2*
X1400470D1*
X1439367D2*
X1446506D1*
X1507321D2*
X1515036D1*
X1577636D2*
X1585351D1*
X1604573D2*
X1611415D1*
X1649447D2*
X1657162D1*
X1743706D2*
X1750549D1*
X1788581D2*
X1796296D1*
X1814014D2*
X1820864D1*
X1858896D2*
X1866611D1*
X1888186D2*
X1892675D1*
X1394780Y2238375D2*
X1402082D1*
X1438165D2*
X1447084D1*
X1473777D2*
X1481257D1*
X1507029D2*
X1515328D1*
X1544092D2*
X1551572D1*
X1577344D2*
X1585643D1*
X1604276D2*
X1612336D1*
X1649155D2*
X1657454D1*
X1684722D2*
X1692202D1*
X1707163D2*
X1714643D1*
X1743410D2*
X1751470D1*
X1788289D2*
X1796588D1*
X1813722D2*
X1821785D1*
X1858604D2*
X1866903D1*
X1886984D2*
X1894567D1*
X1930076D2*
X1939052D1*
X1393910Y2236879D2*
X1403307D1*
X1437296D2*
X1447643D1*
X1473092D2*
X1482453D1*
X1506459D2*
X1515898D1*
X1543407D2*
X1552768D1*
X1576774D2*
X1586213D1*
X1603704D2*
X1613131D1*
X1648585D2*
X1658024D1*
X1684031D2*
X1693347D1*
X1706472D2*
X1715334D1*
X1742838D2*
X1752265D1*
X1787719D2*
X1797158D1*
X1813152D2*
X1822580D1*
X1858028D2*
X1867473D1*
X1886115D2*
X1896090D1*
X1929391D2*
X1939737D1*
X1393326Y2235383D2*
X1404248D1*
X1436712D2*
X1447952D1*
X1472721D2*
X1483447D1*
X1505947D2*
X1516410D1*
X1543036D2*
X1553762D1*
X1576262D2*
X1586725D1*
X1603192D2*
X1613683D1*
X1648073D2*
X1658536D1*
X1683613D2*
X1694234D1*
X1706054D2*
X1715752D1*
X1742326D2*
X1752817D1*
X1787207D2*
X1797669D1*
X1812646D2*
X1823132D1*
X1857470D2*
X1867984D1*
X1885531D2*
X1896717D1*
X1928897D2*
X1940231D1*
X1393419Y2233887D2*
X1404485D1*
X1436805D2*
X1448047D1*
X1472595D2*
X1483708D1*
X1505637D2*
X1516720D1*
X1542910D2*
X1554023D1*
X1575952D2*
X1587035D1*
X1602881D2*
X1613989D1*
X1647763D2*
X1658846D1*
X1683382D2*
X1694259D1*
X1705823D2*
X1715983D1*
X1742015D2*
X1753123D1*
X1786897D2*
X1797980D1*
X1812353D2*
X1823438D1*
X1857162D2*
X1868295D1*
X1885561D2*
X1896758D1*
X1928941D2*
X1940188D1*
X1393848Y2232391D2*
X1404060D1*
X1437234D2*
X1447521D1*
X1473218D2*
X1483157D1*
X1505969D2*
X1516388D1*
X1543533D2*
X1553472D1*
X1576284D2*
X1586702D1*
X1603214D2*
X1613644D1*
X1648095D2*
X1658513D1*
X1683661D2*
X1693493D1*
X1706102D2*
X1715703D1*
X1742347D2*
X1752778D1*
X1787229D2*
X1797647D1*
X1812904D2*
X1823093D1*
X1857072D2*
X1867962D1*
X1886410D2*
X1895934D1*
X1929794D2*
X1939334D1*
X1394486Y2230895D2*
X1403462D1*
X1437871D2*
X1446848D1*
X1474164D2*
X1481582D1*
X1506529D2*
X1515827D1*
X1544479D2*
X1551897D1*
X1576844D2*
X1586142D1*
X1603774D2*
X1613077D1*
X1648655D2*
X1657953D1*
X1684805D2*
X1692256D1*
X1707246D2*
X1714560D1*
X1742907D2*
X1752211D1*
X1787789D2*
X1797087D1*
X1813841D2*
X1822526D1*
X1857702D2*
X1867402D1*
X1888612D2*
X1893740D1*
X1931997D2*
X1937132D1*
X1475273Y2229399D2*
X1479761D1*
X1507295D2*
X1515062D1*
X1545588D2*
X1550076D1*
X1577610D2*
X1585376D1*
X1604540D2*
X1612308D1*
X1649421D2*
X1657188D1*
X1686218D2*
X1690706D1*
X1708659D2*
X1713147D1*
X1743673D2*
X1751441D1*
X1788555D2*
X1796321D1*
X1815054D2*
X1821756D1*
X1858651D2*
X1866636D1*
X1891178D2*
D3*
X1934564D2*
D3*
X1464801Y2227903D2*
X1469289D1*
X1508186D2*
X1514171D1*
X1535115D2*
X1539604D1*
X1578501D2*
X1584486D1*
X1605430D2*
X1611415D1*
X1650312D2*
X1656297D1*
X1696690D2*
X1702675D1*
X1744564D2*
X1750549D1*
X1789446D2*
X1795430D1*
X1816375D2*
X1820864D1*
X1859761D2*
X1865745D1*
X1406454Y2226407D2*
X1433383D1*
X1463419D2*
X1470670D1*
X1507265D2*
X1515373D1*
X1533734D2*
X1540985D1*
X1577580D2*
X1585688D1*
X1604509D2*
X1612336D1*
X1649110D2*
X1657218D1*
X1695488D2*
X1703877D1*
X1743643D2*
X1751470D1*
X1788244D2*
X1796352D1*
X1814942D2*
X1822066D1*
X1858559D2*
X1866667D1*
X1898659D2*
X1927084D1*
X1405258Y2224911D2*
X1434764D1*
X1462396D2*
X1471693D1*
X1506470D2*
X1516242D1*
X1532711D2*
X1542008D1*
X1576785D2*
X1586557D1*
X1603714D2*
X1613131D1*
X1648241D2*
X1658013D1*
X1694619D2*
X1704746D1*
X1742848D2*
X1752265D1*
X1787375D2*
X1797147D1*
X1813702D2*
X1822935D1*
X1857690D2*
X1867462D1*
X1897463D2*
X1927775D1*
X1404264Y2223415D2*
X1435787D1*
X1462096D2*
X1471993D1*
X1505794D2*
X1516826D1*
X1532411D2*
X1542308D1*
X1576109D2*
X1587141D1*
X1603039D2*
X1613807D1*
X1647657D2*
X1658689D1*
X1694035D2*
X1705330D1*
X1742172D2*
X1752940D1*
X1786790D2*
X1797822D1*
X1812691D2*
X1823519D1*
X1857105D2*
X1868137D1*
X1896469D2*
X1928193D1*
X1403980Y2221919D2*
X1436038D1*
X1462048D2*
X1472042D1*
X1505635D2*
X1516843D1*
X1532363D2*
X1542357D1*
X1575950D2*
X1587158D1*
X1602879D2*
X1613966D1*
X1647640D2*
X1658848D1*
X1694018D2*
X1705347D1*
X1742013D2*
X1753100D1*
X1786774D2*
X1797982D1*
X1812405D2*
X1823536D1*
X1857089D2*
X1868297D1*
X1896184D2*
X1928424D1*
X1404495Y2220423D2*
X1436100D1*
X1462231D2*
X1471858D1*
X1506193D2*
X1516223D1*
X1532546D2*
X1542173D1*
X1576508D2*
X1586538D1*
X1603437D2*
X1613408D1*
X1648260D2*
X1658290D1*
X1694638D2*
X1704727D1*
X1742571D2*
X1752542D1*
X1787394D2*
X1797424D1*
X1812921D2*
X1822916D1*
X1857709D2*
X1867739D1*
X1896700D2*
X1928144D1*
X1405383Y2218927D2*
X1435562D1*
X1463382D2*
X1470707D1*
X1507102D2*
X1515278D1*
X1533697D2*
X1541022D1*
X1577417D2*
X1585593D1*
X1604346D2*
X1612499D1*
X1649205D2*
X1657381D1*
X1695583D2*
X1703782D1*
X1743480D2*
X1751633D1*
X1788339D2*
X1796515D1*
X1813808D2*
X1821971D1*
X1858653D2*
X1866830D1*
X1897587D2*
X1927001D1*
X1406454Y2217430D2*
X1434879D1*
X1464801D2*
X1469289D1*
X1508186D2*
X1514171D1*
X1535115D2*
X1539604D1*
X1578501D2*
X1584486D1*
X1605430D2*
X1611415D1*
X1650312D2*
X1656297D1*
X1696690D2*
X1702675D1*
X1744564D2*
X1750549D1*
X1789446D2*
X1795430D1*
X1814879D2*
X1820864D1*
X1859761D2*
X1865745D1*
X1898659D2*
X1925588D1*
X2996299Y1453701D2*
X3092047D1*
X2986530Y1450709D2*
X3101817D1*
X2977936Y1447717D2*
X3110410D1*
X2970527Y1444724D2*
X3117820D1*
X2963969Y1441732D2*
X3124378D1*
X2958089Y1438740D2*
X3130257D1*
X2952825Y1435748D2*
X3135521D1*
X2948064Y1432756D2*
X3140282D1*
X2943802Y1429764D2*
X3144545D1*
X2940072Y1426772D2*
X3148275D1*
X2936728Y1423780D2*
X3053823D1*
X3074094D2*
X3151618D1*
X2933683Y1420787D2*
X3037945D1*
X3074094D2*
X3154664D1*
X2931020Y1417795D2*
X3027557D1*
X3074094D2*
X3157327D1*
X2928825Y1414803D2*
X3020452D1*
X3047165D2*
X3062126D1*
X3074094D2*
X3159521D1*
X2926985Y1411811D2*
X3017741D1*
X3026220D2*
X3038189D1*
X3047165D2*
X3062126D1*
X3074094D2*
X3161362D1*
X2925345Y1408819D2*
X3015655D1*
X3026220D2*
X3038189D1*
X3047165D2*
X3062126D1*
X3074083D2*
X3163002D1*
X2923894Y1405827D2*
X3014941D1*
X3026220D2*
X3038177D1*
X3047177D2*
X3062114D1*
X3073978D2*
X3164452D1*
X2922754Y1402835D2*
X3014656D1*
X3026220D2*
X3038063D1*
X3047291D2*
X3062000D1*
X3073585D2*
X3165593D1*
X2921968Y1399843D2*
X3014862D1*
X3026220D2*
X3037601D1*
X3047753D2*
X3061538D1*
X3072751D2*
X3166378D1*
X2921246Y1396850D2*
X3015531D1*
X3026220D2*
X3036578D1*
X3048776D2*
X3060515D1*
X3071486D2*
X3167101D1*
X2920378Y1393858D2*
X3016500D1*
X3026220D2*
X3035197D1*
X3050157D2*
X3059134D1*
X3069749D2*
X3167968D1*
X2919550Y1390866D2*
X3017939D1*
X3041181D2*
D3*
X3067492D2*
X3168796D1*
X2919005Y1387874D2*
X3020275D1*
X3039779D2*
X3044173D1*
X3064879D2*
X3169342D1*
X2918719Y1384882D2*
X3023228D1*
X3038189D2*
X3047165D1*
X3062126D2*
X3169627D1*
X2918589Y1381890D2*
X3169757D1*
X2918536Y1378898D2*
X3065130D1*
X3073495D2*
X3169811D1*
X2918515Y1375906D2*
X3059251D1*
X3072490D2*
X3169831D1*
X2918508Y1372913D2*
X3053648D1*
X3069873D2*
X3169839D1*
X2918505Y1369921D2*
X3048380D1*
X3066703D2*
X3169841D1*
X2918504Y1366929D2*
X3043163D1*
X3063636D2*
X3169842D1*
X2918504Y1363937D2*
X3037712D1*
X3061064D2*
X3169842D1*
X2918504Y1360945D2*
X3032122D1*
X3050157D2*
D3*
X3060071D2*
X3169842D1*
X2918504Y1357953D2*
X3026775D1*
X3044296D2*
X3050157D1*
X3059533D2*
X3169843D1*
X2918504Y1354961D2*
X3022187D1*
X3038776D2*
X3050157D1*
X3059290D2*
X3169843D1*
X2918504Y1351969D2*
X3018775D1*
X3033815D2*
X3050157D1*
X3059215D2*
X3169843D1*
X2918504Y1348976D2*
X3016271D1*
X3029213D2*
X3050157D1*
X3059423D2*
X3169843D1*
X2918504Y1345984D2*
X3015199D1*
X3038189D2*
X3050157D1*
X3060002D2*
X3169843D1*
X2918504Y1342992D2*
X3022238D1*
X3062939D2*
X3169843D1*
X2918504Y1340000D2*
X3031000D1*
X3066715D2*
X3169843D1*
X2918504Y1337008D2*
X3041483D1*
X3070109D2*
X3169843D1*
X2918504Y1334016D2*
X3053110D1*
X3072402D2*
X3169843D1*
X2918504Y1331024D2*
X3065118D1*
X3074094D2*
X3169843D1*
X2918504Y1328031D2*
X3169843D1*
X2918504Y1325039D2*
X3021412D1*
X3026220D2*
X3169843D1*
X2918504Y1322047D2*
X3017367D1*
X3026220D2*
X3169843D1*
X2918504Y1319055D2*
X3015772D1*
X3026220D2*
X3169843D1*
X2918504Y1316063D2*
X3014902D1*
X3026220D2*
X3069210D1*
X3073954D2*
X3169843D1*
X2918504Y1313071D2*
X3014508D1*
X3026220D2*
X3047373D1*
X3072727D2*
X3169843D1*
X2918504Y1310079D2*
X3014347D1*
X3026220D2*
D3*
X3066794D2*
X3169843D1*
X2918504Y1307087D2*
X3014285D1*
X3056612D2*
X3169843D1*
X2918504Y1304094D2*
X3014263D1*
X3042364D2*
X3169843D1*
X2918504Y1301102D2*
X3014256D1*
X3026220D2*
X3169843D1*
X2918504Y1298110D2*
X3014253D1*
X3026220D2*
X3169843D1*
X2918504Y1295118D2*
X3014252D1*
X3026220D2*
X3169843D1*
X2918504Y1292126D2*
X3014252D1*
X3026220D2*
X3169843D1*
X2918504Y1289134D2*
X3014252D1*
X3026220D2*
X3169843D1*
X2918504Y1286142D2*
X3014252D1*
X3026220D2*
X3169843D1*
X2918504Y1283150D2*
X3014252D1*
X3026220D2*
X3169843D1*
X2918504Y1280157D2*
X3014252D1*
X3026220D2*
X3169843D1*
X2918504Y1277165D2*
X3014252D1*
X3026220D2*
X3053150D1*
X3074094D2*
X3169843D1*
X2918504Y1274173D2*
X3014252D1*
X3026220D2*
X3029213D1*
X3074094D2*
X3169843D1*
X2918504Y1271181D2*
X3014252D1*
X3074094D2*
X3169843D1*
X2918504Y1268189D2*
X3014252D1*
X3055422D2*
X3169843D1*
X2918504Y1265197D2*
X3014252D1*
X3041572D2*
X3169843D1*
X2918504Y1262205D2*
X3014252D1*
X3031756D2*
X3169843D1*
X2918504Y1259213D2*
X3014252D1*
X3028307D2*
X3169843D1*
X2918504Y1256220D2*
X3014252D1*
X3027169D2*
X3169843D1*
X2918504Y1253228D2*
X3014252D1*
X3026576D2*
X3169843D1*
X2918504Y1250236D2*
X3014252D1*
X3026220D2*
X3169843D1*
X2918504Y1247244D2*
X3068750D1*
X3074094D2*
X3169843D1*
X2918504Y1244252D2*
X3050436D1*
X3074094D2*
X3169843D1*
X2918504Y1241260D2*
X3036171D1*
X3074094D2*
X3169843D1*
X2918504Y1238268D2*
X3026745D1*
X3074094D2*
X3169843D1*
X2918504Y1235276D2*
X3020222D1*
X3047165D2*
X3062126D1*
X3074094D2*
X3169843D1*
X2918504Y1232283D2*
X3017637D1*
X3026220D2*
X3038189D1*
X3047165D2*
X3062126D1*
X3074094D2*
X3169843D1*
X2918504Y1229291D2*
X3015628D1*
X3026220D2*
X3038189D1*
X3047165D2*
X3062126D1*
X3074094D2*
X3169843D1*
X2918504Y1226299D2*
X3014918D1*
X3026220D2*
X3038189D1*
X3047165D2*
X3062126D1*
X3074094D2*
X3169843D1*
X2918504Y1223307D2*
X3014535D1*
X3026220D2*
X3038189D1*
X3047165D2*
X3062126D1*
X3074094D2*
X3169843D1*
X2918504Y1220315D2*
X3014363D1*
X3026220D2*
X3038189D1*
X3047165D2*
X3062126D1*
X3074094D2*
X3169843D1*
X2918504Y1217323D2*
X3014293D1*
X3026220D2*
X3038189D1*
X3047165D2*
X3062126D1*
X3074094D2*
X3169843D1*
X2918504Y1214331D2*
X3014266D1*
X3026220D2*
X3038189D1*
X3047165D2*
X3062126D1*
X3074094D2*
X3169843D1*
X2918504Y1211339D2*
X3014257D1*
X3026220D2*
X3062126D1*
X3074094D2*
X3169843D1*
X2918504Y1208346D2*
X3014254D1*
X3026220D2*
X3169843D1*
X2918504Y1205354D2*
X3014252D1*
X3026220D2*
X3169843D1*
X2918504Y1202362D2*
X3169843D1*
X2918504Y1199370D2*
X3169843D1*
X2918504Y1196378D2*
X3054252D1*
X3074094D2*
X3169843D1*
X2918504Y1193386D2*
X3039648D1*
X3074094D2*
X3169843D1*
X2918504Y1190394D2*
X3028940D1*
X3074094D2*
X3169843D1*
X2918504Y1187402D2*
X3021180D1*
X3053150D2*
X3169843D1*
X2918504Y1184409D2*
X3018096D1*
X3029213D2*
X3041181D1*
X3053287D2*
X3169843D1*
X2918504Y1181417D2*
X3015762D1*
X3027831D2*
X3041181D1*
X3053605D2*
X3169843D1*
X2918504Y1178425D2*
X3014978D1*
X3026972D2*
X3041181D1*
X3055429D2*
X3169843D1*
X2918504Y1175433D2*
X3014570D1*
X3026549D2*
X3041158D1*
X3058287D2*
X3169843D1*
X2918504Y1172441D2*
X3014488D1*
X3026470D2*
X3040930D1*
X3061941D2*
X3169843D1*
X2918504Y1169449D2*
X3014806D1*
X3026854D2*
X3040386D1*
X3065847D2*
X3169843D1*
X2918504Y1166457D2*
X3015611D1*
X3027847D2*
X3038055D1*
X3050157D2*
X3053150D1*
X3069304D2*
X3169843D1*
X2918504Y1163465D2*
X3016865D1*
X3029213D2*
X3035197D1*
X3048424D2*
X3058584D1*
X3072097D2*
X3169843D1*
X2918504Y1160472D2*
X3018590D1*
X3045830D2*
X3063518D1*
X3073222D2*
X3169843D1*
X2918504Y1157480D2*
X3020795D1*
X3042271D2*
X3068110D1*
X3074094D2*
X3169843D1*
X2918504Y1154488D2*
X3023228D1*
X3038189D2*
X3169843D1*
X2918504Y1151496D2*
X3169843D1*
X2918504Y1148504D2*
X3169843D1*
X2918504Y1145512D2*
X3014629D1*
X3022764D2*
X3169843D1*
X2918504Y1142520D2*
X3015479D1*
X3030973D2*
X3169843D1*
X2918504Y1139528D2*
X3019476D1*
X3039051D2*
X3169843D1*
X2918504Y1136535D2*
X3024931D1*
X3047165D2*
X3065118D1*
X3073907D2*
X3169843D1*
X2918504Y1133543D2*
X3030803D1*
X3072458D2*
X3169843D1*
X2918504Y1130551D2*
X3036196D1*
X3067209D2*
X3169843D1*
X2918504Y1127559D2*
X3041181D1*
X3060224D2*
X3169843D1*
X2918504Y1124567D2*
X3035671D1*
X3052991D2*
X3169843D1*
X2918504Y1121575D2*
X3030545D1*
X3046642D2*
X3169843D1*
X2918504Y1118583D2*
X3025846D1*
X3041174D2*
X3169843D1*
X2918504Y1115591D2*
X3021714D1*
X3036246D2*
X3169843D1*
X2918504Y1112598D2*
X3018450D1*
X3031654D2*
X3169843D1*
X2918504Y1109606D2*
X3016101D1*
X3027344D2*
X3169843D1*
X2918504Y1106614D2*
X3014252D1*
X3023228D2*
X3169843D1*
X2918504Y1103622D2*
X3169843D1*
X2918504Y1100630D2*
X3169843D1*
X2918504Y1097638D2*
X3169843D1*
X2918504Y1094646D2*
X3169843D1*
X2918504Y1091654D2*
X3169843D1*
X2918504Y1088661D2*
X3169843D1*
X2918504Y1085669D2*
X3169843D1*
X2918504Y1082677D2*
X3169843D1*
X2918504Y1079685D2*
X3169843D1*
X2918504Y1076693D2*
X3022486D1*
X3065860D2*
X3169843D1*
X2918504Y1073701D2*
X3006244D1*
X3082103D2*
X3169843D1*
X2918504Y1070709D2*
X2993040D1*
X3095307D2*
X3169843D1*
X2918504Y1067717D2*
X2982567D1*
X3105779D2*
X3169843D1*
X2918504Y1064724D2*
X2974210D1*
X3114136D2*
X3169843D1*
X2918504Y1061732D2*
X2967137D1*
X3121209D2*
X3169843D1*
X2918504Y1058740D2*
X2960806D1*
X3127540D2*
X3169843D1*
X2918504Y1055748D2*
X2955139D1*
X3133207D2*
X3169843D1*
X2918504Y1052756D2*
X2950303D1*
X3138044D2*
X3169843D1*
X2918504Y1049764D2*
X2946277D1*
X3142070D2*
X3169843D1*
X2918504Y1046772D2*
X2942788D1*
X3038189D2*
X3050157D1*
X3145558D2*
X3169843D1*
X2918504Y1043780D2*
X2939582D1*
X3038189D2*
X3050157D1*
X3148764D2*
X3169843D1*
X2918504Y1040787D2*
X2936517D1*
X3038189D2*
X3050157D1*
X3151829D2*
X3169843D1*
X2918504Y1037795D2*
X2933599D1*
X3038189D2*
X3050157D1*
X3154748D2*
X3169843D1*
X2918504Y1034803D2*
X2930988D1*
X3038189D2*
X3050157D1*
X3157358D2*
X3169843D1*
X2918504Y1031811D2*
X2928826D1*
X3038189D2*
X3050157D1*
X3159521D2*
X3169843D1*
X2918504Y1028819D2*
X2927098D1*
X3038189D2*
X3050157D1*
X3161249D2*
X3169843D1*
X2918504Y1025827D2*
X2925830D1*
X3038189D2*
X3050157D1*
X3162516D2*
X3169843D1*
X2918504Y1022835D2*
X2924992D1*
X3038189D2*
X3050157D1*
X3163354D2*
X3169843D1*
X2918504Y1019843D2*
X2924249D1*
X3038189D2*
X3050157D1*
X3164097D2*
X3169843D1*
X2918504Y1016850D2*
X2923374D1*
X3038189D2*
X3050157D1*
X3164972D2*
X3169843D1*
X2918504Y1013858D2*
X2922543D1*
X3038189D2*
X3050157D1*
X3165803D2*
X3169843D1*
X2918504Y1010866D2*
X2921997D1*
X3038189D2*
X3050157D1*
X3166349D2*
X3169843D1*
X2918504Y1007874D2*
X2921711D1*
X3038189D2*
X3050157D1*
X3166635D2*
X3169843D1*
X2918504Y1004882D2*
X2921581D1*
X3002283D2*
X3086063D1*
X3166765D2*
X3169843D1*
X2918504Y1001890D2*
X2921528D1*
X3002283D2*
X3086063D1*
X3166818D2*
X3169843D1*
X2918504Y998898D2*
X2921507D1*
X3002283D2*
X3086063D1*
X3166839D2*
X3169843D1*
X2918504Y995906D2*
X2921500D1*
X3002283D2*
X3086063D1*
X3166846D2*
X3169843D1*
X2918504Y992913D2*
X2921497D1*
X3002283D2*
X3086063D1*
X3166849D2*
X3169843D1*
X2918504Y989921D2*
X2921496D1*
X3002283D2*
X3086063D1*
X3166850D2*
X3169843D1*
X2918504Y986929D2*
X2921496D1*
X3002283D2*
X3086063D1*
X3166850D2*
X3169843D1*
X2918504Y983937D2*
X2921496D1*
X3038189D2*
X3050157D1*
X3166850D2*
X3169843D1*
X2918504Y980945D2*
X2921496D1*
X3038189D2*
X3050157D1*
X3166850D2*
X3169843D1*
X2918504Y977953D2*
X2921496D1*
X3038189D2*
X3050157D1*
X3166850D2*
X3169843D1*
X2918504Y974961D2*
X2921496D1*
X3038189D2*
X3050157D1*
X3166850D2*
X3169843D1*
X2918504Y971969D2*
X2921496D1*
X3038189D2*
X3050157D1*
X3166850D2*
X3169843D1*
X2918504Y968976D2*
X2921496D1*
X3038189D2*
X3050157D1*
X3166850D2*
X3169843D1*
X2918504Y965984D2*
X2921496D1*
X3038189D2*
X3050157D1*
X3166850D2*
X3169843D1*
X2918504Y962992D2*
X2921496D1*
X3038189D2*
X3050157D1*
X3166850D2*
X3169843D1*
X2918504Y960000D2*
X2921496D1*
X3038189D2*
X3050157D1*
X3166850D2*
X3169843D1*
X2918504Y957008D2*
X2921496D1*
X3038189D2*
X3050157D1*
X3166850D2*
X3169843D1*
X2918504Y954016D2*
X2921496D1*
X3038189D2*
X3050157D1*
X3166850D2*
X3169843D1*
X2918504Y951024D2*
X2921496D1*
X3038189D2*
X3050157D1*
X3166850D2*
X3169843D1*
X2918504Y948031D2*
X2921496D1*
X3038189D2*
X3050157D1*
X3166850D2*
X3169843D1*
X2918504Y945039D2*
X2921496D1*
X3038189D2*
D3*
X3050157D2*
D3*
X3166850D2*
X3169843D1*
X2918504Y942047D2*
X2921496D1*
X3166850D2*
X3169843D1*
X2918504Y939055D2*
X2921496D1*
X3166850D2*
X3169843D1*
X2918504Y936063D2*
X2921496D1*
X3166850D2*
X3169843D1*
X2918504Y933071D2*
X2921496D1*
X3166850D2*
X3169843D1*
X2918504Y930079D2*
X2921496D1*
X3166850D2*
X3169843D1*
X2918504Y927087D2*
X2921496D1*
X3166850D2*
X3169843D1*
X2918504Y924094D2*
X2921496D1*
X3014252D2*
X3074094D1*
X3166850D2*
X3169843D1*
X2918504Y921102D2*
X2921496D1*
X3001502D2*
X3086844D1*
X3166850D2*
X3169843D1*
X2918504Y918110D2*
X2921496D1*
X2990033D2*
X3035168D1*
X3053178D2*
X3098313D1*
X3166850D2*
X3169843D1*
X2918504Y915118D2*
X2921496D1*
X2980118D2*
X3014684D1*
X3073662D2*
X3108228D1*
X3166850D2*
X3169843D1*
X2918504Y912126D2*
X2921496D1*
X2971689D2*
X2998690D1*
X3089657D2*
X3116657D1*
X3166850D2*
X3169843D1*
X2918504Y909134D2*
X2921496D1*
X2964524D2*
X2986628D1*
X3101719D2*
X3123823D1*
X3166850D2*
X3169843D1*
X2918504Y906142D2*
X2921496D1*
X2958424D2*
X2977296D1*
X3111050D2*
X3129922D1*
X3166850D2*
X3169843D1*
X2918504Y903150D2*
X2921496D1*
X2953297D2*
X2969581D1*
X3118765D2*
X3135050D1*
X3166850D2*
X3169843D1*
X2918504Y900157D2*
X2921496D1*
X2948814D2*
X2962980D1*
X3125367D2*
X3139532D1*
X3166850D2*
X3169843D1*
X2918504Y897165D2*
X2921496D1*
X2944581D2*
X2957134D1*
X3023228D2*
X3065118D1*
X3131213D2*
X3143766D1*
X3166850D2*
X3169843D1*
X2918504Y894173D2*
X2921496D1*
X2940610D2*
X2951810D1*
X3009211D2*
X3079135D1*
X3136536D2*
X3147737D1*
X3166850D2*
X3169843D1*
X2918504Y891181D2*
X2921496D1*
X2937112D2*
X2947162D1*
X2997278D2*
X3041255D1*
X3047092D2*
X3091068D1*
X3141184D2*
X3151234D1*
X3166850D2*
X3169843D1*
X2918504Y888189D2*
X2921496D1*
X2934193D2*
X2943225D1*
X2987751D2*
X3021049D1*
X3067298D2*
X3100596D1*
X3145122D2*
X3154153D1*
X3166850D2*
X3169843D1*
X2918504Y885197D2*
X2921496D1*
X2931804D2*
X2939785D1*
X2980278D2*
X3005402D1*
X3082944D2*
X3108069D1*
X3148561D2*
X3156542D1*
X3166850D2*
X3169843D1*
X2918504Y882205D2*
X2921496D1*
X2929645D2*
X2936699D1*
X2974272D2*
X2993496D1*
X3094850D2*
X3114074D1*
X3151647D2*
X3158702D1*
X3166850D2*
X3169843D1*
X2918504Y879213D2*
X2921496D1*
X2927480D2*
X2934020D1*
X2969211D2*
X2984312D1*
X3104034D2*
X3119135D1*
X3154326D2*
X3160866D1*
X3166850D2*
X3169843D1*
X2918504Y876220D2*
X2931820D1*
X2964932D2*
X2977187D1*
X3111160D2*
X3123414D1*
X3156526D2*
X3169843D1*
X2918504Y873228D2*
X2929978D1*
X2961551D2*
X2971700D1*
X3116658D2*
X3126796D1*
X3158369D2*
X3169843D1*
X2918504Y870236D2*
X2928337D1*
X2959001D2*
X2967504D1*
X3120947D2*
X3129345D1*
X3160009D2*
X3169843D1*
X2918504Y867244D2*
X2926875D1*
X2957005D2*
X2964303D1*
X3023228D2*
X3065118D1*
X3124425D2*
X3131341D1*
X3161471D2*
X3169843D1*
X2918504Y864252D2*
X2925641D1*
X2955303D2*
X2961891D1*
X3016577D2*
X3071770D1*
X3127183D2*
X3133044D1*
X3162706D2*
X3169843D1*
X2918504Y861260D2*
X2924579D1*
X2953829D2*
X2960066D1*
X3011476D2*
X3076871D1*
X3129173D2*
X3134518D1*
X3163767D2*
X3169843D1*
X2918504Y858268D2*
X2923533D1*
X2952691D2*
X2958774D1*
X3007681D2*
X3080665D1*
X3130685D2*
X3135655D1*
X3164813D2*
X3169843D1*
X2918516Y855276D2*
X2922720D1*
X2952020D2*
X2958029D1*
X3006428D2*
X3081919D1*
X3132233D2*
X3136327D1*
X3165626D2*
X3169831D1*
X2918621Y852283D2*
X2922275D1*
X2951783D2*
X2957675D1*
X3005760D2*
X3082586D1*
X3133937D2*
X3136564D1*
X3166072D2*
X3169726D1*
X2919002Y849291D2*
X2922873D1*
X2952024D2*
X2957632D1*
X3005463D2*
X3082883D1*
X3132430D2*
X3136322D1*
X3165473D2*
X3169344D1*
X2919719Y846299D2*
X2923563D1*
X2952785D2*
X2958066D1*
X3005344D2*
X3083002D1*
X3131070D2*
X3135561D1*
X3164784D2*
X3168628D1*
X2920498Y843307D2*
X2924146D1*
X2953922D2*
X2959256D1*
X3005300D2*
X3083047D1*
X3129420D2*
X3134425D1*
X3164201D2*
X3167849D1*
X2921125Y840315D2*
X2924798D1*
X2955269D2*
X2961241D1*
X3005284D2*
X3083063D1*
X3127234D2*
X3133078D1*
X3163548D2*
X3167222D1*
X2921795Y837323D2*
X2925751D1*
X2956821D2*
X2963859D1*
X3005278D2*
X3083068D1*
X3124535D2*
X3131526D1*
X3162595D2*
X3166551D1*
X2922744Y834331D2*
X2927067D1*
X2958788D2*
X2967138D1*
X3005276D2*
X3083070D1*
X3121226D2*
X3129558D1*
X3161280D2*
X3165603D1*
X2923957Y831339D2*
X2928823D1*
X2961493D2*
X2971272D1*
X3005276D2*
X3083071D1*
X3117080D2*
X3126854D1*
X3159524D2*
X3164390D1*
X2925332Y828346D2*
X2931089D1*
X2964977D2*
X2976296D1*
X3005276D2*
X3083071D1*
X3112052D2*
X3123369D1*
X3157257D2*
X3163014D1*
X2926882Y825354D2*
X2933723D1*
X2969084D2*
X2981929D1*
X3005276D2*
X3083071D1*
X3106418D2*
X3119263D1*
X3154624D2*
X3161464D1*
X2928748Y822362D2*
X2936569D1*
X2973751D2*
X2987420D1*
X3005276D2*
X3083071D1*
X3100926D2*
X3114595D1*
X3151778D2*
X3159598D1*
X2931061Y819370D2*
X2939603D1*
X2978977D2*
X2992280D1*
X3005276D2*
X3083071D1*
X3096067D2*
X3109369D1*
X3148744D2*
X3157285D1*
X2933724Y816378D2*
X2942964D1*
X2984573D2*
X2994526D1*
X3005276D2*
X3083071D1*
X3093820D2*
X3103773D1*
X3145383D2*
X3154622D1*
X2936671Y813386D2*
X2946781D1*
X2990315D2*
X2996299D1*
X3005276D2*
X3083071D1*
X3092047D2*
X3098031D1*
X3141566D2*
X3151676D1*
X2939995Y810394D2*
X2951035D1*
X3005287D2*
X3083059D1*
X3137311D2*
X3148352D1*
X2943797Y807402D2*
X2955775D1*
X3005416D2*
X3082931D1*
X3132572D2*
X3144549D1*
X2948046Y804409D2*
X2961143D1*
X3005731D2*
X3082615D1*
X3127203D2*
X3140300D1*
X2952772Y801417D2*
X2967276D1*
X3007292D2*
X3081055D1*
X3121071D2*
X3135574D1*
X2958034Y798425D2*
X2974480D1*
X3011667D2*
X3076680D1*
X3113866D2*
X3130312D1*
X2963785Y795433D2*
X2983336D1*
X3018391D2*
X3069955D1*
X3105011D2*
X3124561D1*
X2970223Y792441D2*
X2994853D1*
X3027633D2*
X3060714D1*
X3093494D2*
X3118124D1*
X2977810Y789449D2*
X3009607D1*
X3038189D2*
X3050157D1*
X3078740D2*
X3110537D1*
X2986706Y786457D2*
X3026220D1*
X3062126D2*
X3101641D1*
X2996299Y783465D2*
X3092047D1*
X1406454Y2295226D2*
X1405252Y2293730D1*
X1404241Y2292234D1*
X1403822Y2290738D1*
X1403974Y2289241D1*
X1405073Y2287745D1*
X1406454Y2286249D1*
X1434879Y2295226D2*
X1435570Y2293730D1*
X1435988Y2292234D1*
X1436219Y2290738D1*
X1435940Y2289241D1*
X1434796Y2287745D1*
X1433383Y2286249D1*
X1475273Y2295226D2*
X1474077Y2293730D1*
X1473083Y2292234D1*
X1472798Y2290738D1*
X1473314Y2289241D1*
X1474201Y2287745D1*
X1475273Y2286249D1*
X1514171Y2295226D2*
X1515367Y2293730D1*
X1516361Y2292234D1*
X1516669Y2290738D1*
X1516365Y2289241D1*
X1515819Y2287745D1*
X1515059Y2286249D1*
X1514171Y2284753D1*
X1515092Y2283257D1*
X1515887Y2281761D1*
X1516563Y2280265D1*
X1516722Y2278769D1*
X1516227Y2277273D1*
X1515589Y2275777D1*
X1515030Y2274281D1*
X1515325Y2272785D1*
X1515903Y2271289D1*
X1516462Y2269793D1*
X1516769Y2268297D1*
X1516860Y2266801D1*
X1516293Y2265304D1*
X1515617Y2263808D1*
X1515036Y2262312D1*
X1515328Y2260816D1*
X1515898Y2259320D1*
X1516404Y2257824D1*
X1516697Y2256328D1*
X1516215Y2254832D1*
X1515584Y2253336D1*
X1515028Y2251840D1*
X1515325Y2250344D1*
X1515903Y2248848D1*
X1516462Y2247352D1*
X1516769Y2245856D1*
X1516860Y2244360D1*
X1516293Y2242864D1*
X1515617Y2241367D1*
X1515036Y2239871D1*
X1515328Y2238375D1*
X1515898Y2236879D1*
X1516410Y2235383D1*
X1516720Y2233887D1*
X1516388Y2232391D1*
X1515827Y2230895D1*
X1515062Y2229399D1*
X1514171Y2227903D1*
X1515373Y2226407D1*
X1516242Y2224911D1*
X1516826Y2223415D1*
X1516843Y2221919D1*
X1516223Y2220423D1*
X1515278Y2218927D1*
X1514171Y2217430D1*
X1545588Y2295226D2*
X1544392Y2293730D1*
X1543398Y2292234D1*
X1543113Y2290738D1*
X1543629Y2289241D1*
X1544516Y2287745D1*
X1545588Y2286249D1*
X1584486Y2295226D2*
X1585682Y2293730D1*
X1586676Y2292234D1*
X1586984Y2290738D1*
X1586680Y2289241D1*
X1586134Y2287745D1*
X1585373Y2286249D1*
X1584486Y2284753D1*
X1585407Y2283257D1*
X1586202Y2281761D1*
X1586877Y2280265D1*
X1587037Y2278769D1*
X1586542Y2277273D1*
X1585904Y2275777D1*
X1585345Y2274281D1*
X1585640Y2272785D1*
X1586218Y2271289D1*
X1586777Y2269793D1*
X1587084Y2268297D1*
X1587175Y2266801D1*
X1586608Y2265304D1*
X1585932Y2263808D1*
X1585351Y2262312D1*
X1585643Y2260816D1*
X1586213Y2259320D1*
X1586719Y2257824D1*
X1587012Y2256328D1*
X1586530Y2254832D1*
X1585899Y2253336D1*
X1585343Y2251840D1*
X1585640Y2250344D1*
X1586218Y2248848D1*
X1586777Y2247352D1*
X1587084Y2245856D1*
X1587175Y2244360D1*
X1586608Y2242864D1*
X1585932Y2241367D1*
X1585351Y2239871D1*
X1585643Y2238375D1*
X1586213Y2236879D1*
X1586725Y2235383D1*
X1587035Y2233887D1*
X1586702Y2232391D1*
X1586142Y2230895D1*
X1585376Y2229399D1*
X1584486Y2227903D1*
X1585688Y2226407D1*
X1586557Y2224911D1*
X1587141Y2223415D1*
X1587158Y2221919D1*
X1586538Y2220423D1*
X1585593Y2218927D1*
X1584486Y2217430D1*
X1627871Y2295226D2*
X1626669Y2293730D1*
X1625800Y2292234D1*
X1625216Y2290738D1*
X1625222Y2289241D1*
X1625897Y2287745D1*
X1627515Y2286249D1*
X1629367Y2284753D1*
X1633856Y2295226D2*
X1635058Y2293730D1*
X1635927Y2292234D1*
X1636511Y2290738D1*
X1636505Y2289241D1*
X1635830Y2287745D1*
X1634212Y2286249D1*
X1632360Y2284753D1*
X1674249Y2295226D2*
X1673053Y2293730D1*
X1672059Y2292234D1*
X1671751Y2290738D1*
X1672055Y2289241D1*
X1672601Y2287745D1*
X1673361Y2286249D1*
X1674249Y2284753D1*
X1673328Y2283257D1*
X1672533Y2281761D1*
X1671857Y2280265D1*
X1671698Y2278769D1*
X1672193Y2277273D1*
X1672831Y2275777D1*
X1673390Y2274281D1*
X1673095Y2272785D1*
X1672523Y2271289D1*
X1672011Y2269793D1*
X1671700Y2268297D1*
X1672028Y2266801D1*
X1672538Y2265304D1*
X1673071Y2263808D1*
X1673506Y2262312D1*
X1673157Y2260816D1*
X1672600Y2259320D1*
X1672074Y2257824D1*
X1672220Y2256328D1*
X1672624Y2254832D1*
X1673111Y2253336D1*
X1673538Y2251840D1*
X1673338Y2250344D1*
X1672905Y2248848D1*
X1672404Y2247352D1*
X1671971Y2245856D1*
X1672125Y2244360D1*
X1672425Y2242864D1*
X1672753Y2241367D1*
X1680234Y2295226D2*
X1681436Y2293730D1*
X1682305Y2292234D1*
X1682889Y2290738D1*
X1682906Y2289241D1*
X1682286Y2287745D1*
X1681341Y2286249D1*
X1680234Y2284753D1*
X1681436Y2283257D1*
X1682305Y2281761D1*
X1682889Y2280265D1*
X1682906Y2278769D1*
X1682349Y2277273D1*
X1681677Y2275777D1*
X1681099Y2274281D1*
X1681391Y2272785D1*
X1681967Y2271289D1*
X1682525Y2269793D1*
X1682832Y2268297D1*
X1682923Y2266801D1*
X1682293Y2265304D1*
X1681344Y2263808D1*
X1680234Y2262312D1*
X1681155Y2260816D1*
X1681950Y2259320D1*
X1682626Y2257824D1*
X1682785Y2256328D1*
X1682290Y2254832D1*
X1681652Y2253336D1*
X1681093Y2251840D1*
X1681388Y2250344D1*
X1681960Y2248848D1*
X1682472Y2247352D1*
X1682783Y2245856D1*
X1682499Y2244360D1*
X1682116Y2242864D1*
X1681730Y2241367D1*
X1719131Y2295226D2*
X1717935Y2293730D1*
X1716941Y2292234D1*
X1716633Y2290738D1*
X1716937Y2289241D1*
X1717483Y2287745D1*
X1718243Y2286249D1*
X1719131Y2284753D1*
X1717929Y2283257D1*
X1717060Y2281761D1*
X1716476Y2280265D1*
X1716459Y2278769D1*
X1717016Y2277273D1*
X1717687Y2275777D1*
X1718266Y2274281D1*
X1717974Y2272785D1*
X1717398Y2271289D1*
X1716840Y2269793D1*
X1716532Y2268297D1*
X1716442Y2266801D1*
X1717072Y2265304D1*
X1718021Y2263808D1*
X1719131Y2262312D1*
X1717929Y2260816D1*
X1717060Y2259320D1*
X1716476Y2257824D1*
X1716459Y2256328D1*
X1717016Y2254832D1*
X1717687Y2253336D1*
X1718266Y2251840D1*
X1717974Y2250344D1*
X1717398Y2248848D1*
X1716840Y2247352D1*
X1716531Y2245856D1*
X1716436Y2244360D1*
X1716962Y2242864D1*
X1717635Y2241367D1*
X1725115Y2295226D2*
X1726312Y2293730D1*
X1727306Y2292234D1*
X1727613Y2290738D1*
X1727310Y2289241D1*
X1726764Y2287745D1*
X1726003Y2286249D1*
X1725115Y2284753D1*
X1726037Y2283257D1*
X1726832Y2281761D1*
X1727507Y2280265D1*
X1727667Y2278769D1*
X1727172Y2277273D1*
X1726534Y2275777D1*
X1725975Y2274281D1*
X1726270Y2272785D1*
X1726842Y2271289D1*
X1727354Y2269793D1*
X1727665Y2268297D1*
X1727332Y2266801D1*
X1726772Y2265304D1*
X1726006Y2263808D1*
X1725115Y2262312D1*
X1726037Y2260816D1*
X1726832Y2259320D1*
X1727507Y2257824D1*
X1727667Y2256328D1*
X1727172Y2254832D1*
X1726534Y2253336D1*
X1725975Y2251840D1*
X1726270Y2250344D1*
X1726842Y2248848D1*
X1727354Y2247352D1*
X1727665Y2245856D1*
X1727381Y2244360D1*
X1726998Y2242864D1*
X1726612Y2241367D1*
X1767005Y2295226D2*
X1765803Y2293730D1*
X1764934Y2292234D1*
X1764350Y2290738D1*
X1764356Y2289241D1*
X1765030Y2287745D1*
X1766649Y2286249D1*
X1768501Y2284753D1*
X1772990Y2295226D2*
X1774192Y2293730D1*
X1775061Y2292234D1*
X1775645Y2290738D1*
X1775638Y2289241D1*
X1774964Y2287745D1*
X1773346Y2286249D1*
X1771493Y2284753D1*
X1814879Y2295226D2*
X1813677Y2293730D1*
X1812808Y2292234D1*
X1812224Y2290738D1*
X1812230Y2289241D1*
X1812904Y2287745D1*
X1814523Y2286249D1*
X1816375Y2284753D1*
X1814942Y2283257D1*
X1813702Y2281761D1*
X1812691Y2280265D1*
X1812405Y2278769D1*
X1812858Y2277273D1*
X1813475Y2275777D1*
X1814023Y2274281D1*
X1813726Y2272785D1*
X1813147Y2271289D1*
X1812588Y2269793D1*
X1812281Y2268297D1*
X1812190Y2266801D1*
X1812757Y2265304D1*
X1813433Y2263808D1*
X1814014Y2262312D1*
X1813722Y2260816D1*
X1813152Y2259320D1*
X1812646Y2257824D1*
X1812353Y2256328D1*
X1812835Y2254832D1*
X1813466Y2253336D1*
X1814021Y2251840D1*
X1813725Y2250344D1*
X1813147Y2248848D1*
X1812588Y2247352D1*
X1812281Y2245856D1*
X1812190Y2244360D1*
X1812757Y2242864D1*
X1813433Y2241367D1*
X1814014Y2239871D1*
X1813722Y2238375D1*
X1813152Y2236879D1*
X1812646Y2235383D1*
X1812353Y2233887D1*
X1812904Y2232391D1*
X1813841Y2230895D1*
X1815054Y2229399D1*
X1816375Y2227903D1*
X1814942Y2226407D1*
X1813702Y2224911D1*
X1812691Y2223415D1*
X1812405Y2221919D1*
X1812921Y2220423D1*
X1813808Y2218927D1*
X1814879Y2217430D1*
X1820864Y2295226D2*
X1822066Y2293730D1*
X1822935Y2292234D1*
X1823519Y2290738D1*
X1823536Y2289241D1*
X1822916Y2287745D1*
X1821971Y2286249D1*
X1820864Y2284753D1*
X1821785Y2283257D1*
X1822580Y2281761D1*
X1823132Y2280265D1*
X1823438Y2278769D1*
X1823093Y2277273D1*
X1822526Y2275777D1*
X1821756Y2274281D1*
X1820864Y2272785D1*
X1822066Y2271289D1*
X1822935Y2269793D1*
X1823519Y2268297D1*
X1823468Y2266801D1*
X1823177Y2265304D1*
X1822769Y2263808D1*
X1822360Y2262312D1*
X1827762Y2260816D1*
X1831401Y2259320D1*
X1833909Y2257824D1*
X1834808Y2256328D1*
X1835023Y2254832D1*
X1832269Y2253336D1*
X1827866Y2251840D1*
X1822360Y2250344D1*
X1822871Y2248848D1*
X1823310Y2247352D1*
X1823536Y2245856D1*
X1823574Y2244360D1*
X1822933Y2242864D1*
X1821977Y2241367D1*
X1820864Y2239871D1*
X1821785Y2238375D1*
X1822580Y2236879D1*
X1823132Y2235383D1*
X1823438Y2233887D1*
X1823093Y2232391D1*
X1822526Y2230895D1*
X1821756Y2229399D1*
X1820864Y2227903D1*
X1822066Y2226407D1*
X1822935Y2224911D1*
X1823519Y2223415D1*
X1823536Y2221919D1*
X1822916Y2220423D1*
X1821971Y2218927D1*
X1820864Y2217430D1*
X1861257Y2295226D2*
X1859365Y2293730D1*
X1857842Y2292234D1*
X1857215Y2290738D1*
X1857206Y2289241D1*
X1857467Y2287745D1*
X1857863Y2286249D1*
X1858265Y2284753D1*
X1852919Y2283257D1*
X1848839Y2281761D1*
X1847268Y2280265D1*
X1846665Y2278769D1*
X1846781Y2277273D1*
X1848504Y2275777D1*
X1853621Y2274281D1*
X1859761Y2272785D1*
X1858559Y2271289D1*
X1857690Y2269793D1*
X1857105Y2268297D1*
X1857089Y2266801D1*
X1857646Y2265304D1*
X1858317Y2263808D1*
X1858896Y2262312D1*
X1858604Y2260816D1*
X1858034Y2259320D1*
X1857522Y2257824D1*
X1857212Y2256328D1*
X1857544Y2254832D1*
X1858104Y2253336D1*
X1858870Y2251840D1*
X1859761Y2250344D1*
X1858559Y2248848D1*
X1857690Y2247352D1*
X1857105Y2245856D1*
X1857089Y2244360D1*
X1857646Y2242864D1*
X1858317Y2241367D1*
X1858896Y2239871D1*
X1858604Y2238375D1*
X1858028Y2236879D1*
X1857470Y2235383D1*
X1857162Y2233887D1*
X1857072Y2232391D1*
X1857702Y2230895D1*
X1858651Y2229399D1*
X1859761Y2227903D1*
X1858559Y2226407D1*
X1857690Y2224911D1*
X1857105Y2223415D1*
X1857089Y2221919D1*
X1857709Y2220423D1*
X1858653Y2218927D1*
X1859761Y2217430D1*
X1865745Y2295226D2*
X1866947Y2293730D1*
X1867817Y2292234D1*
X1868401Y2290738D1*
X1868418Y2289241D1*
X1867798Y2287745D1*
X1866853Y2286249D1*
X1865745Y2284753D1*
X1866667Y2283257D1*
X1867462Y2281761D1*
X1868137Y2280265D1*
X1868297Y2278769D1*
X1867802Y2277273D1*
X1867164Y2275777D1*
X1866605Y2274281D1*
X1866900Y2272785D1*
X1867478Y2271289D1*
X1868037Y2269793D1*
X1868344Y2268297D1*
X1868435Y2266801D1*
X1867868Y2265304D1*
X1867192Y2263808D1*
X1866611Y2262312D1*
X1866903Y2260816D1*
X1867473Y2259320D1*
X1867979Y2257824D1*
X1868271Y2256328D1*
X1867789Y2254832D1*
X1867159Y2253336D1*
X1866603Y2251840D1*
X1866900Y2250344D1*
X1867478Y2248848D1*
X1868037Y2247352D1*
X1868344Y2245856D1*
X1868435Y2244360D1*
X1867868Y2242864D1*
X1867192Y2241367D1*
X1866611Y2239871D1*
X1866903Y2238375D1*
X1867473Y2236879D1*
X1867984Y2235383D1*
X1868295Y2233887D1*
X1867962Y2232391D1*
X1867402Y2230895D1*
X1866636Y2229399D1*
X1865745Y2227903D1*
X1866667Y2226407D1*
X1867462Y2224911D1*
X1868137Y2223415D1*
X1868297Y2221919D1*
X1867739Y2220423D1*
X1866830Y2218927D1*
X1865745Y2217430D1*
X1888186Y2295226D2*
X1886990Y2293730D1*
X1885996Y2292234D1*
X1885688Y2290738D1*
X1885992Y2289241D1*
X1886538Y2287745D1*
X1887298Y2286249D1*
X1888186Y2284753D1*
X1886984Y2283257D1*
X1886115Y2281761D1*
X1885531Y2280265D1*
X1885514Y2278769D1*
X1886071Y2277273D1*
X1886743Y2275777D1*
X1887321Y2274281D1*
X1887029Y2272785D1*
X1886459Y2271289D1*
X1885947Y2269793D1*
X1885637Y2268297D1*
X1885969Y2266801D1*
X1886529Y2265304D1*
X1887295Y2263808D1*
X1888186Y2262312D1*
X1886984Y2260816D1*
X1886115Y2259320D1*
X1885531Y2257824D1*
X1885514Y2256328D1*
X1886071Y2254832D1*
X1886743Y2253336D1*
X1887321Y2251840D1*
X1887029Y2250344D1*
X1886459Y2248848D1*
X1885947Y2247352D1*
X1885637Y2245856D1*
X1885969Y2244360D1*
X1886529Y2242864D1*
X1887295Y2241367D1*
X1888186Y2239871D1*
X1886984Y2238375D1*
X1886115Y2236879D1*
X1885531Y2235383D1*
X1885561Y2233887D1*
X1886410Y2232391D1*
X1888612Y2230895D1*
X1891178Y2229399D1*
X1921100Y2295226D2*
X1922296Y2293730D1*
X1923290Y2292234D1*
X1923574Y2290738D1*
X1923058Y2289241D1*
X1922171Y2287745D1*
X1921100Y2286249D1*
X1509682D2*
X1508249Y2284753D1*
X1507003Y2283257D1*
X1506121Y2281761D1*
X1505531Y2280265D1*
X1505514Y2278769D1*
X1506071Y2277273D1*
X1506743Y2275777D1*
X1507321Y2274281D1*
X1507029Y2272785D1*
X1506459Y2271289D1*
X1505947Y2269793D1*
X1505637Y2268297D1*
X1505969Y2266801D1*
X1506529Y2265304D1*
X1507295Y2263808D1*
X1508186Y2262312D1*
X1506984Y2260816D1*
X1506115Y2259320D1*
X1505531Y2257824D1*
X1505514Y2256328D1*
X1506071Y2254832D1*
X1506743Y2253336D1*
X1507321Y2251840D1*
X1507029Y2250344D1*
X1506453Y2248848D1*
X1505895Y2247352D1*
X1505588Y2245856D1*
X1505497Y2244360D1*
X1506064Y2242864D1*
X1506740Y2241367D1*
X1507321Y2239871D1*
X1507029Y2238375D1*
X1506459Y2236879D1*
X1505947Y2235383D1*
X1505637Y2233887D1*
X1505969Y2232391D1*
X1506529Y2230895D1*
X1507295Y2229399D1*
X1508186Y2227903D1*
X1507265Y2226407D1*
X1506470Y2224911D1*
X1505794Y2223415D1*
X1505635Y2221919D1*
X1506193Y2220423D1*
X1507102Y2218927D1*
X1508186Y2217430D1*
X1579997Y2286249D2*
X1578564Y2284753D1*
X1577318Y2283257D1*
X1576436Y2281761D1*
X1575846Y2280265D1*
X1575829Y2278769D1*
X1576386Y2277273D1*
X1577058Y2275777D1*
X1577636Y2274281D1*
X1577344Y2272785D1*
X1576774Y2271289D1*
X1576262Y2269793D1*
X1575952Y2268297D1*
X1576284Y2266801D1*
X1576844Y2265304D1*
X1577610Y2263808D1*
X1578501Y2262312D1*
X1577299Y2260816D1*
X1576430Y2259320D1*
X1575846Y2257824D1*
X1575829Y2256328D1*
X1576386Y2254832D1*
X1577058Y2253336D1*
X1577636Y2251840D1*
X1577344Y2250344D1*
X1576768Y2248848D1*
X1576210Y2247352D1*
X1575903Y2245856D1*
X1575812Y2244360D1*
X1576379Y2242864D1*
X1577055Y2241367D1*
X1577636Y2239871D1*
X1577344Y2238375D1*
X1576774Y2236879D1*
X1576262Y2235383D1*
X1575952Y2233887D1*
X1576284Y2232391D1*
X1576844Y2230895D1*
X1577610Y2229399D1*
X1578501Y2227903D1*
X1577580Y2226407D1*
X1576785Y2224911D1*
X1576109Y2223415D1*
X1575950Y2221919D1*
X1576508Y2220423D1*
X1577417Y2218927D1*
X1578501Y2217430D1*
X1892675Y2286249D2*
X1894108Y2284753D1*
X1895348Y2283257D1*
X1896359Y2281761D1*
X1896668Y2280265D1*
X1896303Y2278769D1*
X1895695Y2277273D1*
X1894296Y2275777D1*
X1892675Y2274281D1*
X1894108Y2272785D1*
X1895348Y2271289D1*
X1896359Y2269793D1*
X1896645Y2268297D1*
X1896192Y2266801D1*
X1895575Y2265304D1*
X1895027Y2263808D1*
X1895324Y2262312D1*
X1895902Y2260816D1*
X1896462Y2259320D1*
X1896763Y2257824D1*
X1896836Y2256328D1*
X1896151Y2254832D1*
X1894529Y2253336D1*
X1892675Y2251840D1*
X1894108Y2250344D1*
X1895348Y2248848D1*
X1896359Y2247352D1*
X1896645Y2245856D1*
X1896267Y2244360D1*
X1895236Y2242864D1*
X1894002Y2241367D1*
X1892675Y2239871D1*
X1894567Y2238375D1*
X1896090Y2236879D1*
X1896717Y2235383D1*
X1896758Y2233887D1*
X1895934Y2232391D1*
X1893740Y2230895D1*
X1891178Y2229399D1*
X1395982Y2283257D2*
X1394780Y2281761D1*
X1393910Y2280265D1*
X1393326Y2278769D1*
X1393309Y2277273D1*
X1393929Y2275777D1*
X1394874Y2274281D1*
X1395982Y2272785D1*
X1394780Y2271289D1*
X1393910Y2269793D1*
X1393326Y2268297D1*
X1393309Y2266801D1*
X1393929Y2265304D1*
X1394874Y2263808D1*
X1395982Y2262312D1*
X1395060Y2260816D1*
X1394265Y2259320D1*
X1393590Y2257824D1*
X1393430Y2256328D1*
X1393925Y2254832D1*
X1394563Y2253336D1*
X1395123Y2251840D1*
X1394827Y2250344D1*
X1394249Y2248848D1*
X1393690Y2247352D1*
X1393383Y2245856D1*
X1393292Y2244360D1*
X1393922Y2242864D1*
X1394871Y2241367D1*
X1395982Y2239871D1*
X1394780Y2238375D1*
X1393910Y2236879D1*
X1393326Y2235383D1*
X1393419Y2233887D1*
X1393848Y2232391D1*
X1394486Y2230895D1*
X1401966Y2283257D2*
X1403162Y2281761D1*
X1404156Y2280265D1*
X1404440Y2278769D1*
X1404063Y2277273D1*
X1403031Y2275777D1*
X1401797Y2274281D1*
X1400470Y2272785D1*
X1402082Y2271289D1*
X1403307Y2269793D1*
X1404248Y2268297D1*
X1404455Y2266801D1*
X1403880Y2265304D1*
X1402297Y2263808D1*
X1400470Y2262312D1*
X1401903Y2260816D1*
X1403143Y2259320D1*
X1404154Y2257824D1*
X1404440Y2256328D1*
X1403987Y2254832D1*
X1403371Y2253336D1*
X1402822Y2251840D1*
X1403119Y2250344D1*
X1403692Y2248848D1*
X1404198Y2247352D1*
X1404492Y2245856D1*
X1403941Y2244360D1*
X1403004Y2242864D1*
X1401791Y2241367D1*
X1400470Y2239871D1*
X1402082Y2238375D1*
X1403307Y2236879D1*
X1404248Y2235383D1*
X1404485Y2233887D1*
X1404060Y2232391D1*
X1403462Y2230895D1*
X1439367Y2283257D2*
X1438171Y2281761D1*
X1437177Y2280265D1*
X1436870Y2278769D1*
X1437173Y2277273D1*
X1437719Y2275777D1*
X1438480Y2274281D1*
X1439367Y2272785D1*
X1438165Y2271289D1*
X1437296Y2269793D1*
X1436712Y2268297D1*
X1436695Y2266801D1*
X1437315Y2265304D1*
X1438260Y2263808D1*
X1439367Y2262312D1*
X1438446Y2260816D1*
X1437651Y2259320D1*
X1436976Y2257824D1*
X1436816Y2256328D1*
X1437311Y2254832D1*
X1437949Y2253336D1*
X1438508Y2251840D1*
X1438213Y2250344D1*
X1437641Y2248848D1*
X1437129Y2247352D1*
X1436818Y2245856D1*
X1437151Y2244360D1*
X1437711Y2242864D1*
X1438477Y2241367D1*
X1439367Y2239871D1*
X1438165Y2238375D1*
X1437296Y2236879D1*
X1436712Y2235383D1*
X1436805Y2233887D1*
X1437234Y2232391D1*
X1437871Y2230895D1*
X1445352Y2283257D2*
X1446548Y2281761D1*
X1447542Y2280265D1*
X1447826Y2278769D1*
X1447373Y2277273D1*
X1446756Y2275777D1*
X1446208Y2274281D1*
X1446505Y2272785D1*
X1447084Y2271289D1*
X1447643Y2269793D1*
X1447950Y2268297D1*
X1448041Y2266801D1*
X1447474Y2265304D1*
X1446798Y2263808D1*
X1446217Y2262312D1*
X1446509Y2260816D1*
X1447079Y2259320D1*
X1447585Y2257824D1*
X1447878Y2256328D1*
X1447396Y2254832D1*
X1446765Y2253336D1*
X1446210Y2251840D1*
X1446506Y2250344D1*
X1447078Y2248848D1*
X1447584Y2247352D1*
X1447878Y2245856D1*
X1447396Y2244360D1*
X1446765Y2242864D1*
X1446210Y2241367D1*
X1446506Y2239871D1*
X1447084Y2238375D1*
X1447643Y2236879D1*
X1447952Y2235383D1*
X1448047Y2233887D1*
X1447521Y2232391D1*
X1446848Y2230895D1*
X1464801Y2283257D2*
X1463419Y2281761D1*
X1462396Y2280265D1*
X1462147Y2278769D1*
X1462090Y2277273D1*
X1462730Y2275777D1*
X1463686Y2274281D1*
X1464801Y2272785D1*
X1463598Y2271289D1*
X1462724Y2269793D1*
X1462234Y2268297D1*
X1461970Y2266801D1*
X1462246Y2265304D1*
X1463388Y2263808D1*
X1464801Y2262312D1*
X1469289Y2283257D2*
X1470670Y2281761D1*
X1471693Y2280265D1*
X1471942Y2278769D1*
X1472000Y2277273D1*
X1471359Y2275777D1*
X1470403Y2274281D1*
X1469289Y2272785D1*
X1470491Y2271289D1*
X1471360Y2269793D1*
X1471944Y2268297D1*
X1471938Y2266801D1*
X1471264Y2265304D1*
X1469645Y2263808D1*
X1467793Y2262312D1*
X1535115Y2283257D2*
X1533734Y2281761D1*
X1532711Y2280265D1*
X1532462Y2278769D1*
X1532405Y2277273D1*
X1533045Y2275777D1*
X1534001Y2274281D1*
X1535115Y2272785D1*
X1533913Y2271289D1*
X1533038Y2269793D1*
X1532549Y2268297D1*
X1532285Y2266801D1*
X1532561Y2265304D1*
X1533703Y2263808D1*
X1535115Y2262312D1*
X1539604Y2283257D2*
X1540985Y2281761D1*
X1542008Y2280265D1*
X1542257Y2278769D1*
X1542315Y2277273D1*
X1541674Y2275777D1*
X1540718Y2274281D1*
X1539604Y2272785D1*
X1540806Y2271289D1*
X1541675Y2269793D1*
X1542259Y2268297D1*
X1542253Y2266801D1*
X1541579Y2265304D1*
X1539960Y2263808D1*
X1538108Y2262312D1*
X1618895Y2283257D2*
X1617699Y2281761D1*
X1616705Y2280265D1*
X1616420Y2278769D1*
X1616936Y2277273D1*
X1617823Y2275777D1*
X1618895Y2274281D1*
X1624879Y2283257D2*
X1626260Y2281761D1*
X1627283Y2280265D1*
X1627534Y2278769D1*
X1627596Y2277273D1*
X1627058Y2275777D1*
X1626375Y2274281D1*
X1636848Y2283257D2*
X1635646Y2281761D1*
X1634634Y2280265D1*
X1634215Y2278769D1*
X1634368Y2277273D1*
X1635467Y2275777D1*
X1636848Y2274281D1*
X1642832Y2283257D2*
X1644028Y2281761D1*
X1645022Y2280265D1*
X1645307Y2278769D1*
X1644791Y2277273D1*
X1643904Y2275777D1*
X1642832Y2274281D1*
X1758029Y2283257D2*
X1756833Y2281761D1*
X1755839Y2280265D1*
X1755554Y2278769D1*
X1756070Y2277273D1*
X1756957Y2275777D1*
X1758029Y2274281D1*
X1764013Y2283257D2*
X1765394Y2281761D1*
X1766417Y2280265D1*
X1766668Y2278769D1*
X1766730Y2277273D1*
X1766192Y2275777D1*
X1765509Y2274281D1*
X1775982Y2283257D2*
X1774780Y2281761D1*
X1773768Y2280265D1*
X1773349Y2278769D1*
X1773502Y2277273D1*
X1774601Y2275777D1*
X1775982Y2274281D1*
X1781966Y2283257D2*
X1783162Y2281761D1*
X1784156Y2280265D1*
X1784440Y2278769D1*
X1783925Y2277273D1*
X1783037Y2275777D1*
X1781966Y2274281D1*
X1612911Y2272785D2*
X1610614Y2271289D1*
X1608754Y2269793D1*
X1607904Y2268297D1*
X1607839Y2266801D1*
X1608342Y2265304D1*
X1609061Y2263808D1*
X1609919Y2262312D1*
X1607104Y2260816D1*
X1605005Y2259320D1*
X1603461Y2257824D1*
X1603033Y2256328D1*
X1603359Y2254832D1*
X1604376Y2253336D1*
X1605603Y2251840D1*
X1606927Y2250344D1*
X1605314Y2248848D1*
X1604090Y2247352D1*
X1603148Y2245856D1*
X1602918Y2244360D1*
X1603391Y2242864D1*
X1604018Y2241367D1*
X1604573Y2239871D1*
X1604276Y2238375D1*
X1603704Y2236879D1*
X1603192Y2235383D1*
X1602881Y2233887D1*
X1603214Y2232391D1*
X1603774Y2230895D1*
X1604540Y2229399D1*
X1605430Y2227903D1*
X1604509Y2226407D1*
X1603714Y2224911D1*
X1603039Y2223415D1*
X1602879Y2221919D1*
X1603437Y2220423D1*
X1604346Y2218927D1*
X1605430Y2217430D1*
X1614407Y2272785D2*
X1616299Y2271289D1*
X1617822Y2269793D1*
X1618371Y2268297D1*
X1618611Y2266801D1*
X1618638Y2265304D1*
X1617984Y2263808D1*
X1617021Y2262312D1*
X1615903Y2260816D1*
X1647320Y2272785D2*
X1645428Y2271289D1*
X1643905Y2269793D1*
X1643278Y2268297D1*
X1643268Y2266801D1*
X1643517Y2265304D1*
X1643856Y2263808D1*
X1644121Y2262312D1*
X1644328Y2260816D1*
X1650312Y2272785D2*
X1651919Y2271289D1*
X1653097Y2269793D1*
X1653933Y2268297D1*
X1653814Y2266801D1*
X1653374Y2265304D1*
X1652665Y2263808D1*
X1651808Y2262312D1*
X1654623Y2260816D1*
X1656722Y2259320D1*
X1658266Y2257824D1*
X1658718Y2256328D1*
X1658457Y2254832D1*
X1657931Y2253336D1*
X1657180Y2251840D1*
X1656297Y2250344D1*
X1657499Y2248848D1*
X1658368Y2247352D1*
X1658952Y2245856D1*
X1658969Y2244360D1*
X1658412Y2242864D1*
X1657740Y2241367D1*
X1657162Y2239871D1*
X1657454Y2238375D1*
X1658024Y2236879D1*
X1658536Y2235383D1*
X1658846Y2233887D1*
X1658513Y2232391D1*
X1657953Y2230895D1*
X1657188Y2229399D1*
X1656297Y2227903D1*
X1657218Y2226407D1*
X1658013Y2224911D1*
X1658689Y2223415D1*
X1658848Y2221919D1*
X1658290Y2220423D1*
X1657381Y2218927D1*
X1656297Y2217430D1*
X1752045Y2272785D2*
X1749747Y2271289D1*
X1747888Y2269793D1*
X1747038Y2268297D1*
X1746972Y2266801D1*
X1747476Y2265304D1*
X1748195Y2263808D1*
X1749052Y2262312D1*
X1746238Y2260816D1*
X1744139Y2259320D1*
X1742595Y2257824D1*
X1742167Y2256328D1*
X1742493Y2254832D1*
X1743510Y2253336D1*
X1744737Y2251840D1*
X1746060Y2250344D1*
X1744448Y2248848D1*
X1743224Y2247352D1*
X1742282Y2245856D1*
X1742051Y2244360D1*
X1742525Y2242864D1*
X1743152Y2241367D1*
X1743706Y2239871D1*
X1743410Y2238375D1*
X1742838Y2236879D1*
X1742326Y2235383D1*
X1742015Y2233887D1*
X1742347Y2232391D1*
X1742907Y2230895D1*
X1743673Y2229399D1*
X1744564Y2227903D1*
X1743643Y2226407D1*
X1742848Y2224911D1*
X1742172Y2223415D1*
X1742013Y2221919D1*
X1742571Y2220423D1*
X1743480Y2218927D1*
X1744564Y2217430D1*
X1753541Y2272785D2*
X1755433Y2271289D1*
X1756956Y2269793D1*
X1757505Y2268297D1*
X1757745Y2266801D1*
X1757772Y2265304D1*
X1757118Y2263808D1*
X1756155Y2262312D1*
X1755037Y2260816D1*
X1786454Y2272785D2*
X1784561Y2271289D1*
X1783039Y2269793D1*
X1782412Y2268297D1*
X1782402Y2266801D1*
X1782651Y2265304D1*
X1782990Y2263808D1*
X1783255Y2262312D1*
X1783462Y2260816D1*
X1789446Y2272785D2*
X1791053Y2271289D1*
X1792230Y2269793D1*
X1793067Y2268297D1*
X1792948Y2266801D1*
X1792508Y2265304D1*
X1791799Y2263808D1*
X1790942Y2262312D1*
X1793757Y2260816D1*
X1795856Y2259320D1*
X1797400Y2257824D1*
X1797851Y2256328D1*
X1797591Y2254832D1*
X1797065Y2253336D1*
X1796314Y2251840D1*
X1795430Y2250344D1*
X1796632Y2248848D1*
X1797502Y2247352D1*
X1798086Y2245856D1*
X1798103Y2244360D1*
X1797546Y2242864D1*
X1796874Y2241367D1*
X1796296Y2239871D1*
X1796588Y2238375D1*
X1797158Y2236879D1*
X1797669Y2235383D1*
X1797980Y2233887D1*
X1797647Y2232391D1*
X1797087Y2230895D1*
X1796321Y2229399D1*
X1795430Y2227903D1*
X1796352Y2226407D1*
X1797147Y2224911D1*
X1797822Y2223415D1*
X1797982Y2221919D1*
X1797424Y2220423D1*
X1796515Y2218927D1*
X1795430Y2217430D1*
X1837320Y2272785D2*
X1836118Y2271289D1*
X1835249Y2269793D1*
X1834664Y2268297D1*
X1834758Y2266801D1*
X1835187Y2265304D1*
X1835824Y2263808D1*
X1843304Y2272785D2*
X1844506Y2271289D1*
X1845376Y2269793D1*
X1845960Y2268297D1*
X1845867Y2266801D1*
X1845438Y2265304D1*
X1844801Y2263808D1*
X1475273Y2260816D2*
X1473892Y2259320D1*
X1472869Y2257824D1*
X1472617Y2256328D1*
X1472506Y2254832D1*
X1475364Y2253336D1*
X1479990Y2251840D1*
X1485745Y2250344D1*
X1484549Y2248848D1*
X1483555Y2247352D1*
X1483247Y2245856D1*
X1483503Y2244360D1*
X1483871Y2242864D1*
X1484249Y2241367D1*
X1497714Y2260816D2*
X1498910Y2259320D1*
X1499904Y2257824D1*
X1500188Y2256328D1*
X1499740Y2254832D1*
X1497927Y2253336D1*
X1495136Y2251840D1*
X1491730Y2250344D1*
X1492932Y2248848D1*
X1493801Y2247352D1*
X1494385Y2245856D1*
X1494292Y2244360D1*
X1493863Y2242864D1*
X1493226Y2241367D1*
X1545588Y2260816D2*
X1544207Y2259320D1*
X1543184Y2257824D1*
X1542932Y2256328D1*
X1542821Y2254832D1*
X1545679Y2253336D1*
X1550305Y2251840D1*
X1556060Y2250344D1*
X1554864Y2248848D1*
X1553870Y2247352D1*
X1553562Y2245856D1*
X1553817Y2244360D1*
X1554186Y2242864D1*
X1554564Y2241367D1*
X1568029Y2260816D2*
X1569225Y2259320D1*
X1570219Y2257824D1*
X1570503Y2256328D1*
X1570055Y2254832D1*
X1568242Y2253336D1*
X1565451Y2251840D1*
X1562045Y2250344D1*
X1563247Y2248848D1*
X1564116Y2247352D1*
X1564700Y2245856D1*
X1564607Y2244360D1*
X1564178Y2242864D1*
X1563541Y2241367D1*
X1612911Y2251840D2*
X1613142Y2250344D1*
X1613513Y2248848D1*
X1613894Y2247352D1*
X1614098Y2245856D1*
X1614127Y2244360D1*
X1613484Y2242864D1*
X1612529Y2241367D1*
X1611415Y2239871D1*
X1612336Y2238375D1*
X1613131Y2236879D1*
X1613683Y2235383D1*
X1613989Y2233887D1*
X1613644Y2232391D1*
X1613077Y2230895D1*
X1612308Y2229399D1*
X1611415Y2227903D1*
X1612336Y2226407D1*
X1613131Y2224911D1*
X1613807Y2223415D1*
X1613966Y2221919D1*
X1613408Y2220423D1*
X1612499Y2218927D1*
X1611415Y2217430D1*
X1651808Y2251840D2*
X1650375Y2250344D1*
X1649129Y2248848D1*
X1648247Y2247352D1*
X1647657Y2245856D1*
X1647640Y2244360D1*
X1648197Y2242864D1*
X1648869Y2241367D1*
X1649447Y2239871D1*
X1649155Y2238375D1*
X1648585Y2236879D1*
X1648073Y2235383D1*
X1647763Y2233887D1*
X1648095Y2232391D1*
X1648655Y2230895D1*
X1649421Y2229399D1*
X1650312Y2227903D1*
X1649110Y2226407D1*
X1648241Y2224911D1*
X1647657Y2223415D1*
X1647640Y2221919D1*
X1648260Y2220423D1*
X1649205Y2218927D1*
X1650312Y2217430D1*
X1752045Y2251840D2*
X1752276Y2250344D1*
X1752647Y2248848D1*
X1753028Y2247352D1*
X1753232Y2245856D1*
X1753261Y2244360D1*
X1752618Y2242864D1*
X1751663Y2241367D1*
X1750549Y2239871D1*
X1751470Y2238375D1*
X1752265Y2236879D1*
X1752817Y2235383D1*
X1753123Y2233887D1*
X1752778Y2232391D1*
X1752211Y2230895D1*
X1751441Y2229399D1*
X1750549Y2227903D1*
X1751470Y2226407D1*
X1752265Y2224911D1*
X1752940Y2223415D1*
X1753100Y2221919D1*
X1752542Y2220423D1*
X1751633Y2218927D1*
X1750549Y2217430D1*
X1790942Y2251840D2*
X1789509Y2250344D1*
X1788263Y2248848D1*
X1787381Y2247352D1*
X1786791Y2245856D1*
X1786774Y2244360D1*
X1787331Y2242864D1*
X1788002Y2241367D1*
X1788581Y2239871D1*
X1788289Y2238375D1*
X1787719Y2236879D1*
X1787207Y2235383D1*
X1786897Y2233887D1*
X1787229Y2232391D1*
X1787789Y2230895D1*
X1788555Y2229399D1*
X1789446Y2227903D1*
X1788244Y2226407D1*
X1787375Y2224911D1*
X1786790Y2223415D1*
X1786774Y2221919D1*
X1787394Y2220423D1*
X1788339Y2218927D1*
X1789446Y2217430D1*
X1473777Y2238375D2*
X1473092Y2236879D1*
X1472721Y2235383D1*
X1472595Y2233887D1*
X1473218Y2232391D1*
X1474164Y2230895D1*
X1475273Y2229399D1*
X1481257Y2238375D2*
X1482453Y2236879D1*
X1483447Y2235383D1*
X1483708Y2233887D1*
X1483157Y2232391D1*
X1481582Y2230895D1*
X1479761Y2229399D1*
X1544092Y2238375D2*
X1543407Y2236879D1*
X1543036Y2235383D1*
X1542910Y2233887D1*
X1543533Y2232391D1*
X1544479Y2230895D1*
X1545588Y2229399D1*
X1551572Y2238375D2*
X1552768Y2236879D1*
X1553762Y2235383D1*
X1554023Y2233887D1*
X1553472Y2232391D1*
X1551897Y2230895D1*
X1550076Y2229399D1*
X1684722Y2238375D2*
X1684031Y2236879D1*
X1683613Y2235383D1*
X1683382Y2233887D1*
X1683661Y2232391D1*
X1684805Y2230895D1*
X1686218Y2229399D1*
X1692202Y2238375D2*
X1693347Y2236879D1*
X1694234Y2235383D1*
X1694259Y2233887D1*
X1693493Y2232391D1*
X1692256Y2230895D1*
X1690706Y2229399D1*
X1707163Y2238375D2*
X1706472Y2236879D1*
X1706054Y2235383D1*
X1705823Y2233887D1*
X1706102Y2232391D1*
X1707246Y2230895D1*
X1708659Y2229399D1*
X1714643Y2238375D2*
X1715334Y2236879D1*
X1715752Y2235383D1*
X1715983Y2233887D1*
X1715703Y2232391D1*
X1714560Y2230895D1*
X1713147Y2229399D1*
X1930076Y2238375D2*
X1929391Y2236879D1*
X1928897Y2235383D1*
X1928941Y2233887D1*
X1929794Y2232391D1*
X1931997Y2230895D1*
X1934564Y2229399D1*
X1939052Y2238375D2*
X1939737Y2236879D1*
X1940231Y2235383D1*
X1940188Y2233887D1*
X1939334Y2232391D1*
X1937132Y2230895D1*
X1934564Y2229399D1*
X1464801Y2227903D2*
X1463419Y2226407D1*
X1462396Y2224911D1*
X1462096Y2223415D1*
X1462048Y2221919D1*
X1462231Y2220423D1*
X1463382Y2218927D1*
X1464801Y2217430D1*
X1469289Y2227903D2*
X1470670Y2226407D1*
X1471693Y2224911D1*
X1471993Y2223415D1*
X1472042Y2221919D1*
X1471858Y2220423D1*
X1470707Y2218927D1*
X1469289Y2217430D1*
X1535115Y2227903D2*
X1533734Y2226407D1*
X1532711Y2224911D1*
X1532411Y2223415D1*
X1532363Y2221919D1*
X1532546Y2220423D1*
X1533697Y2218927D1*
X1535115Y2217430D1*
X1539604Y2227903D2*
X1540985Y2226407D1*
X1542008Y2224911D1*
X1542308Y2223415D1*
X1542357Y2221919D1*
X1542173Y2220423D1*
X1541022Y2218927D1*
X1539604Y2217430D1*
X1696690Y2227903D2*
X1695488Y2226407D1*
X1694619Y2224911D1*
X1694035Y2223415D1*
X1694018Y2221919D1*
X1694638Y2220423D1*
X1695583Y2218927D1*
X1696690Y2217430D1*
X1702675Y2227903D2*
X1703877Y2226407D1*
X1704746Y2224911D1*
X1705330Y2223415D1*
X1705347Y2221919D1*
X1704727Y2220423D1*
X1703782Y2218927D1*
X1702675Y2217430D1*
X1406454Y2226407D2*
X1405258Y2224911D1*
X1404264Y2223415D1*
X1403980Y2221919D1*
X1404495Y2220423D1*
X1405383Y2218927D1*
X1406454Y2217430D1*
X1433383Y2226407D2*
X1434764Y2224911D1*
X1435787Y2223415D1*
X1436038Y2221919D1*
X1436100Y2220423D1*
X1435562Y2218927D1*
X1434879Y2217430D1*
X1898659Y2226407D2*
X1897463Y2224911D1*
X1896469Y2223415D1*
X1896184Y2221919D1*
X1896700Y2220423D1*
X1897587Y2218927D1*
X1898659Y2217430D1*
X1927084Y2226407D2*
X1927775Y2224911D1*
X1928193Y2223415D1*
X1928424Y2221919D1*
X1928144Y2220423D1*
X1927001Y2218927D1*
X1925588Y2217430D1*
X2996299Y1453701D2*
X2986530Y1450709D1*
X2977936Y1447717D1*
X2970527Y1444724D1*
X2963969Y1441732D1*
X2958089Y1438740D1*
X2952825Y1435748D1*
X2948064Y1432756D1*
X2943802Y1429764D1*
X2940072Y1426772D1*
X2936728Y1423780D1*
X2933683Y1420787D1*
X2931020Y1417795D1*
X2928825Y1414803D1*
X2926985Y1411811D1*
X2925345Y1408819D1*
X2923894Y1405827D1*
X2922754Y1402835D1*
X2921968Y1399843D1*
X2921246Y1396850D1*
X2920378Y1393858D1*
X2919550Y1390866D1*
X2919005Y1387874D1*
X2918719Y1384882D1*
X2918589Y1381890D1*
X2918536Y1378898D1*
X2918515Y1375906D1*
X2918508Y1372913D1*
X2918505Y1369921D1*
X2918504Y1366929D1*
Y1363937D1*
Y1360945D1*
Y1357953D1*
Y1354961D1*
Y1351969D1*
Y1348976D1*
Y1345984D1*
Y1342992D1*
Y1340000D1*
Y1337008D1*
Y1334016D1*
Y1331024D1*
Y1328031D1*
Y1325039D1*
Y1322047D1*
Y1319055D1*
Y1316063D1*
Y1313071D1*
Y1310079D1*
Y1307087D1*
Y1304094D1*
Y1301102D1*
Y1298110D1*
Y1295118D1*
Y1292126D1*
Y1289134D1*
Y1286142D1*
Y1283150D1*
Y1280157D1*
Y1277165D1*
Y1274173D1*
Y1271181D1*
Y1268189D1*
Y1265197D1*
Y1262205D1*
Y1259213D1*
Y1256220D1*
Y1253228D1*
Y1250236D1*
Y1247244D1*
Y1244252D1*
Y1241260D1*
Y1238268D1*
Y1235276D1*
Y1232283D1*
Y1229291D1*
Y1226299D1*
Y1223307D1*
Y1220315D1*
Y1217323D1*
Y1214331D1*
Y1211339D1*
Y1208346D1*
Y1205354D1*
Y1202362D1*
Y1199370D1*
Y1196378D1*
Y1193386D1*
Y1190394D1*
Y1187402D1*
Y1184409D1*
Y1181417D1*
Y1178425D1*
Y1175433D1*
Y1172441D1*
Y1169449D1*
Y1166457D1*
Y1163465D1*
Y1160472D1*
Y1157480D1*
Y1154488D1*
Y1151496D1*
Y1148504D1*
Y1145512D1*
Y1142520D1*
Y1139528D1*
Y1136535D1*
Y1133543D1*
Y1130551D1*
Y1127559D1*
Y1124567D1*
Y1121575D1*
Y1118583D1*
Y1115591D1*
Y1112598D1*
Y1109606D1*
Y1106614D1*
Y1103622D1*
Y1100630D1*
Y1097638D1*
Y1094646D1*
Y1091654D1*
Y1088661D1*
Y1085669D1*
Y1082677D1*
Y1079685D1*
Y1076693D1*
Y1073701D1*
Y1070709D1*
Y1067717D1*
Y1064724D1*
Y1061732D1*
Y1058740D1*
Y1055748D1*
Y1052756D1*
Y1049764D1*
Y1046772D1*
Y1043780D1*
Y1040787D1*
Y1037795D1*
Y1034803D1*
Y1031811D1*
Y1028819D1*
Y1025827D1*
Y1022835D1*
Y1019843D1*
Y1016850D1*
Y1013858D1*
Y1010866D1*
Y1007874D1*
Y1004882D1*
Y1001890D1*
Y998898D1*
Y995906D1*
Y992913D1*
Y989921D1*
Y986929D1*
Y983937D1*
Y980945D1*
Y977953D1*
Y974961D1*
Y971969D1*
Y968976D1*
Y965984D1*
Y962992D1*
Y960000D1*
Y957008D1*
Y954016D1*
Y951024D1*
Y948031D1*
Y945039D1*
Y942047D1*
Y939055D1*
Y936063D1*
Y933071D1*
Y930079D1*
Y927087D1*
Y924094D1*
Y921102D1*
Y918110D1*
Y915118D1*
Y912126D1*
Y909134D1*
Y906142D1*
Y903150D1*
Y900157D1*
Y897165D1*
Y894173D1*
Y891181D1*
Y888189D1*
Y885197D1*
Y882205D1*
Y879213D1*
Y876220D1*
Y873228D1*
Y870236D1*
Y867244D1*
Y864252D1*
Y861260D1*
Y858268D1*
X2918516Y855276D1*
X2918621Y852283D1*
X2919002Y849291D1*
X2919719Y846299D1*
X2920498Y843307D1*
X2921125Y840315D1*
X2921795Y837323D1*
X2922744Y834331D1*
X2923957Y831339D1*
X2925332Y828346D1*
X2926882Y825354D1*
X2928748Y822362D1*
X2931061Y819370D1*
X2933724Y816378D1*
X2936671Y813386D1*
X2939995Y810394D1*
X2943797Y807402D1*
X2948046Y804409D1*
X2952772Y801417D1*
X2958034Y798425D1*
X2963785Y795433D1*
X2970223Y792441D1*
X2977810Y789449D1*
X2986706Y786457D1*
X2996299Y783465D1*
X3092047Y1453701D2*
X3101817Y1450709D1*
X3110410Y1447717D1*
X3117820Y1444724D1*
X3124378Y1441732D1*
X3130257Y1438740D1*
X3135521Y1435748D1*
X3140282Y1432756D1*
X3144545Y1429764D1*
X3148275Y1426772D1*
X3151618Y1423780D1*
X3154664Y1420787D1*
X3157327Y1417795D1*
X3159521Y1414803D1*
X3161362Y1411811D1*
X3163002Y1408819D1*
X3164452Y1405827D1*
X3165593Y1402835D1*
X3166378Y1399843D1*
X3167101Y1396850D1*
X3167968Y1393858D1*
X3168796Y1390866D1*
X3169342Y1387874D1*
X3169627Y1384882D1*
X3169757Y1381890D1*
X3169811Y1378898D1*
X3169831Y1375906D1*
X3169839Y1372913D1*
X3169841Y1369921D1*
X3169842Y1366929D1*
Y1363937D1*
Y1360945D1*
X3169843Y1357953D1*
Y1354961D1*
Y1351969D1*
Y1348976D1*
Y1345984D1*
Y1342992D1*
Y1340000D1*
Y1337008D1*
Y1334016D1*
Y1331024D1*
Y1328031D1*
Y1325039D1*
Y1322047D1*
Y1319055D1*
Y1316063D1*
Y1313071D1*
Y1310079D1*
Y1307087D1*
Y1304094D1*
Y1301102D1*
Y1298110D1*
Y1295118D1*
Y1292126D1*
Y1289134D1*
Y1286142D1*
Y1283150D1*
Y1280157D1*
Y1277165D1*
Y1274173D1*
Y1271181D1*
Y1268189D1*
Y1265197D1*
Y1262205D1*
Y1259213D1*
Y1256220D1*
Y1253228D1*
Y1250236D1*
Y1247244D1*
Y1244252D1*
Y1241260D1*
Y1238268D1*
Y1235276D1*
Y1232283D1*
Y1229291D1*
Y1226299D1*
Y1223307D1*
Y1220315D1*
Y1217323D1*
Y1214331D1*
Y1211339D1*
Y1208346D1*
Y1205354D1*
Y1202362D1*
Y1199370D1*
Y1196378D1*
Y1193386D1*
Y1190394D1*
Y1187402D1*
Y1184409D1*
Y1181417D1*
Y1178425D1*
Y1175433D1*
Y1172441D1*
Y1169449D1*
Y1166457D1*
Y1163465D1*
Y1160472D1*
Y1157480D1*
Y1154488D1*
Y1151496D1*
Y1148504D1*
Y1145512D1*
Y1142520D1*
Y1139528D1*
Y1136535D1*
Y1133543D1*
Y1130551D1*
Y1127559D1*
Y1124567D1*
Y1121575D1*
Y1118583D1*
Y1115591D1*
Y1112598D1*
Y1109606D1*
Y1106614D1*
Y1103622D1*
Y1100630D1*
Y1097638D1*
Y1094646D1*
Y1091654D1*
Y1088661D1*
Y1085669D1*
Y1082677D1*
Y1079685D1*
Y1076693D1*
Y1073701D1*
Y1070709D1*
Y1067717D1*
Y1064724D1*
Y1061732D1*
Y1058740D1*
Y1055748D1*
Y1052756D1*
Y1049764D1*
Y1046772D1*
Y1043780D1*
Y1040787D1*
Y1037795D1*
Y1034803D1*
Y1031811D1*
Y1028819D1*
Y1025827D1*
Y1022835D1*
Y1019843D1*
Y1016850D1*
Y1013858D1*
Y1010866D1*
Y1007874D1*
Y1004882D1*
Y1001890D1*
Y998898D1*
Y995906D1*
Y992913D1*
Y989921D1*
Y986929D1*
Y983937D1*
Y980945D1*
Y977953D1*
Y974961D1*
Y971969D1*
Y968976D1*
Y965984D1*
Y962992D1*
Y960000D1*
Y957008D1*
Y954016D1*
Y951024D1*
Y948031D1*
Y945039D1*
Y942047D1*
Y939055D1*
Y936063D1*
Y933071D1*
Y930079D1*
Y927087D1*
Y924094D1*
Y921102D1*
Y918110D1*
Y915118D1*
Y912126D1*
Y909134D1*
Y906142D1*
Y903150D1*
Y900157D1*
Y897165D1*
Y894173D1*
Y891181D1*
Y888189D1*
Y885197D1*
Y882205D1*
Y879213D1*
Y876220D1*
Y873228D1*
Y870236D1*
Y867244D1*
Y864252D1*
Y861260D1*
Y858268D1*
X3169831Y855276D1*
X3169726Y852283D1*
X3169344Y849291D1*
X3168628Y846299D1*
X3167849Y843307D1*
X3167222Y840315D1*
X3166551Y837323D1*
X3165603Y834331D1*
X3164390Y831339D1*
X3163014Y828346D1*
X3161464Y825354D1*
X3159598Y822362D1*
X3157285Y819370D1*
X3154622Y816378D1*
X3151676Y813386D1*
X3148352Y810394D1*
X3144549Y807402D1*
X3140300Y804409D1*
X3135574Y801417D1*
X3130312Y798425D1*
X3124561Y795433D1*
X3118124Y792441D1*
X3110537Y789449D1*
X3101641Y786457D1*
X3092047Y783465D1*
X3074094Y1426772D2*
X3053823Y1423780D1*
X3037945Y1420787D1*
X3027557Y1417795D1*
X3020452Y1414803D1*
X3017741Y1411811D1*
X3015655Y1408819D1*
X3014941Y1405827D1*
X3014656Y1402835D1*
X3014862Y1399843D1*
X3015531Y1396850D1*
X3016500Y1393858D1*
X3017939Y1390866D1*
X3020275Y1387874D1*
X3023228Y1384882D1*
X3074094Y1426772D2*
Y1423780D1*
Y1420787D1*
Y1417795D1*
Y1414803D1*
Y1411811D1*
X3074083Y1408819D1*
X3073978Y1405827D1*
X3073585Y1402835D1*
X3072751Y1399843D1*
X3071486Y1396850D1*
X3069749Y1393858D1*
X3067492Y1390866D1*
X3064879Y1387874D1*
X3062126Y1384882D1*
X3047165Y1414803D2*
Y1411811D1*
Y1408819D1*
X3047177Y1405827D1*
X3047291Y1402835D1*
X3047753Y1399843D1*
X3048776Y1396850D1*
X3050157Y1393858D1*
X3062126Y1414803D2*
Y1411811D1*
Y1408819D1*
X3062114Y1405827D1*
X3062000Y1402835D1*
X3061538Y1399843D1*
X3060515Y1396850D1*
X3059134Y1393858D1*
X3026220Y1411811D2*
Y1408819D1*
Y1405827D1*
Y1402835D1*
Y1399843D1*
Y1396850D1*
Y1393858D1*
X3038189Y1411811D2*
Y1408819D1*
X3038177Y1405827D1*
X3038063Y1402835D1*
X3037601Y1399843D1*
X3036578Y1396850D1*
X3035197Y1393858D1*
X3041181Y1390866D2*
X3039779Y1387874D1*
X3038189Y1384882D1*
X3044173Y1387874D2*
X3047165Y1384882D1*
X3071102Y1381890D2*
X3065130Y1378898D1*
X3059251Y1375906D1*
X3053648Y1372913D1*
X3048380Y1369921D1*
X3043163Y1366929D1*
X3037712Y1363937D1*
X3032122Y1360945D1*
X3026775Y1357953D1*
X3022187Y1354961D1*
X3018775Y1351969D1*
X3016271Y1348976D1*
X3015199Y1345984D1*
X3022238Y1342992D1*
X3031000Y1340000D1*
X3041483Y1337008D1*
X3053110Y1334016D1*
X3065118Y1331024D1*
X3074094Y1381890D2*
X3073495Y1378898D1*
X3072490Y1375906D1*
X3069873Y1372913D1*
X3066703Y1369921D1*
X3063636Y1366929D1*
X3061064Y1363937D1*
X3060071Y1360945D1*
X3059533Y1357953D1*
X3059290Y1354961D1*
X3059215Y1351969D1*
X3059423Y1348976D1*
X3060002Y1345984D1*
X3062939Y1342992D1*
X3066715Y1340000D1*
X3070109Y1337008D1*
X3072402Y1334016D1*
X3074094Y1331024D1*
X3050157Y1360945D2*
X3044296Y1357953D1*
X3038776Y1354961D1*
X3033815Y1351969D1*
X3029213Y1348976D1*
X3038189Y1345984D1*
X3050157Y1357953D2*
Y1354961D1*
Y1351969D1*
Y1348976D1*
Y1345984D1*
X3026220Y1328031D2*
X3021412Y1325039D1*
X3017367Y1322047D1*
X3015772Y1319055D1*
X3014902Y1316063D1*
X3014508Y1313071D1*
X3014347Y1310079D1*
X3014285Y1307087D1*
X3014263Y1304094D1*
X3014256Y1301102D1*
X3014253Y1298110D1*
X3014252Y1295118D1*
Y1292126D1*
Y1289134D1*
Y1286142D1*
Y1283150D1*
Y1280157D1*
Y1277165D1*
Y1274173D1*
Y1271181D1*
Y1268189D1*
Y1265197D1*
Y1262205D1*
Y1259213D1*
Y1256220D1*
Y1253228D1*
Y1250236D1*
X3026220Y1328031D2*
Y1325039D1*
Y1322047D1*
Y1319055D1*
Y1316063D1*
Y1313071D1*
Y1310079D1*
X3092047Y1319055D2*
X3069210Y1316063D1*
X3047373Y1313071D1*
X3026220Y1310079D1*
X3074094Y1319055D2*
X3073954Y1316063D1*
X3072727Y1313071D1*
X3066794Y1310079D1*
X3056612Y1307087D1*
X3042364Y1304094D1*
X3026220Y1301102D1*
Y1298110D1*
Y1295118D1*
Y1292126D1*
Y1289134D1*
Y1286142D1*
Y1283150D1*
Y1280157D1*
Y1277165D1*
Y1274173D1*
X3077087Y1280157D2*
X3053150Y1277165D1*
X3029213Y1274173D1*
X3074094Y1280157D2*
Y1277165D1*
Y1274173D1*
Y1271181D1*
X3055422Y1268189D1*
X3041572Y1265197D1*
X3031756Y1262205D1*
X3028307Y1259213D1*
X3027169Y1256220D1*
X3026576Y1253228D1*
X3026220Y1250236D1*
X3089055D2*
X3068750Y1247244D1*
X3050436Y1244252D1*
X3036171Y1241260D1*
X3026745Y1238268D1*
X3020222Y1235276D1*
X3017637Y1232283D1*
X3015628Y1229291D1*
X3014918Y1226299D1*
X3014535Y1223307D1*
X3014363Y1220315D1*
X3014293Y1217323D1*
X3014266Y1214331D1*
X3014257Y1211339D1*
X3014254Y1208346D1*
X3014252Y1205354D1*
X3074094Y1250236D2*
Y1247244D1*
Y1244252D1*
Y1241260D1*
Y1238268D1*
Y1235276D1*
Y1232283D1*
Y1229291D1*
Y1226299D1*
Y1223307D1*
Y1220315D1*
Y1217323D1*
Y1214331D1*
Y1211339D1*
X3047165Y1235276D2*
Y1232283D1*
Y1229291D1*
Y1226299D1*
Y1223307D1*
Y1220315D1*
Y1217323D1*
Y1214331D1*
X3062126Y1235276D2*
Y1232283D1*
Y1229291D1*
Y1226299D1*
Y1223307D1*
Y1220315D1*
Y1217323D1*
Y1214331D1*
Y1211339D1*
X3026220Y1232283D2*
Y1229291D1*
Y1226299D1*
Y1223307D1*
Y1220315D1*
Y1217323D1*
Y1214331D1*
Y1211339D1*
Y1208346D1*
Y1205354D1*
X3038189Y1232283D2*
Y1229291D1*
Y1226299D1*
Y1223307D1*
Y1220315D1*
Y1217323D1*
Y1214331D1*
X3071102Y1199370D2*
X3054252Y1196378D1*
X3039648Y1193386D1*
X3028940Y1190394D1*
X3021180Y1187402D1*
X3018096Y1184409D1*
X3015762Y1181417D1*
X3014978Y1178425D1*
X3014570Y1175433D1*
X3014488Y1172441D1*
X3014806Y1169449D1*
X3015611Y1166457D1*
X3016865Y1163465D1*
X3018590Y1160472D1*
X3020795Y1157480D1*
X3023228Y1154488D1*
X3074094Y1199370D2*
Y1196378D1*
Y1193386D1*
Y1190394D1*
Y1187402D1*
X3053150D1*
X3053287Y1184409D1*
X3053605Y1181417D1*
X3055429Y1178425D1*
X3058287Y1175433D1*
X3061941Y1172441D1*
X3065847Y1169449D1*
X3069304Y1166457D1*
X3072097Y1163465D1*
X3073222Y1160472D1*
X3074094Y1157480D1*
X3029213Y1184409D2*
X3027831Y1181417D1*
X3026972Y1178425D1*
X3026549Y1175433D1*
X3026470Y1172441D1*
X3026854Y1169449D1*
X3027847Y1166457D1*
X3029213Y1163465D1*
X3041181Y1184409D2*
Y1181417D1*
Y1178425D1*
X3041158Y1175433D1*
X3040930Y1172441D1*
X3040386Y1169449D1*
X3038055Y1166457D1*
X3035197Y1163465D1*
X3050157Y1166457D2*
X3048424Y1163465D1*
X3045830Y1160472D1*
X3042271Y1157480D1*
X3038189Y1154488D1*
X3053150Y1166457D2*
X3058584Y1163465D1*
X3063518Y1160472D1*
X3068110Y1157480D1*
X3014252Y1148504D2*
X3014629Y1145512D1*
X3015479Y1142520D1*
X3019476Y1139528D1*
X3024931Y1136535D1*
X3030803Y1133543D1*
X3036196Y1130551D1*
X3041181Y1127559D1*
X3035671Y1124567D1*
X3030545Y1121575D1*
X3025846Y1118583D1*
X3021714Y1115591D1*
X3018450Y1112598D1*
X3016101Y1109606D1*
X3014252Y1106614D1*
Y1148504D2*
X3022764Y1145512D1*
X3030973Y1142520D1*
X3039051Y1139528D1*
X3047165Y1136535D1*
X3068110Y1139528D2*
X3065118Y1136535D1*
X3074094Y1139528D2*
X3073907Y1136535D1*
X3072458Y1133543D1*
X3067209Y1130551D1*
X3060224Y1127559D1*
X3052991Y1124567D1*
X3046642Y1121575D1*
X3041174Y1118583D1*
X3036246Y1115591D1*
X3031654Y1112598D1*
X3027344Y1109606D1*
X3023228Y1106614D1*
X3041181Y1079685D2*
X3022486Y1076693D1*
X3006244Y1073701D1*
X2993040Y1070709D1*
X2982567Y1067717D1*
X2974210Y1064724D1*
X2967137Y1061732D1*
X2960806Y1058740D1*
X2955139Y1055748D1*
X2950303Y1052756D1*
X2946277Y1049764D1*
X2942788Y1046772D1*
X2939582Y1043780D1*
X2936517Y1040787D1*
X2933599Y1037795D1*
X2930988Y1034803D1*
X2928826Y1031811D1*
X2927098Y1028819D1*
X2925830Y1025827D1*
X2924992Y1022835D1*
X2924249Y1019843D1*
X2923374Y1016850D1*
X2922543Y1013858D1*
X2921997Y1010866D1*
X2921711Y1007874D1*
X2921581Y1004882D1*
X2921528Y1001890D1*
X2921507Y998898D1*
X2921500Y995906D1*
X2921497Y992913D1*
X2921496Y989921D1*
Y986929D1*
Y983937D1*
Y980945D1*
Y977953D1*
Y974961D1*
Y971969D1*
Y968976D1*
Y965984D1*
Y962992D1*
Y960000D1*
Y957008D1*
Y954016D1*
Y951024D1*
Y948031D1*
Y945039D1*
Y942047D1*
Y939055D1*
Y936063D1*
Y933071D1*
Y930079D1*
Y927087D1*
Y924094D1*
Y921102D1*
Y918110D1*
Y915118D1*
Y912126D1*
Y909134D1*
Y906142D1*
Y903150D1*
Y900157D1*
Y897165D1*
Y894173D1*
Y891181D1*
Y888189D1*
Y885197D1*
Y882205D1*
Y879213D1*
X3047165Y1079685D2*
X3065860Y1076693D1*
X3082103Y1073701D1*
X3095307Y1070709D1*
X3105779Y1067717D1*
X3114136Y1064724D1*
X3121209Y1061732D1*
X3127540Y1058740D1*
X3133207Y1055748D1*
X3138044Y1052756D1*
X3142070Y1049764D1*
X3145558Y1046772D1*
X3148764Y1043780D1*
X3151829Y1040787D1*
X3154748Y1037795D1*
X3157358Y1034803D1*
X3159521Y1031811D1*
X3161249Y1028819D1*
X3162516Y1025827D1*
X3163354Y1022835D1*
X3164097Y1019843D1*
X3164972Y1016850D1*
X3165803Y1013858D1*
X3166349Y1010866D1*
X3166635Y1007874D1*
X3166765Y1004882D1*
X3166818Y1001890D1*
X3166839Y998898D1*
X3166846Y995906D1*
X3166849Y992913D1*
X3166850Y989921D1*
Y986929D1*
Y983937D1*
Y980945D1*
Y977953D1*
Y974961D1*
Y971969D1*
Y968976D1*
Y965984D1*
Y962992D1*
Y960000D1*
Y957008D1*
Y954016D1*
Y951024D1*
Y948031D1*
Y945039D1*
Y942047D1*
Y939055D1*
Y936063D1*
Y933071D1*
Y930079D1*
Y927087D1*
Y924094D1*
Y921102D1*
Y918110D1*
Y915118D1*
Y912126D1*
Y909134D1*
Y906142D1*
Y903150D1*
Y900157D1*
Y897165D1*
Y894173D1*
Y891181D1*
Y888189D1*
Y885197D1*
Y882205D1*
Y879213D1*
X3038189Y1046772D2*
Y1043780D1*
Y1040787D1*
Y1037795D1*
Y1034803D1*
Y1031811D1*
Y1028819D1*
Y1025827D1*
Y1022835D1*
Y1019843D1*
Y1016850D1*
Y1013858D1*
Y1010866D1*
Y1007874D1*
Y1004882D1*
X3050157Y1046772D2*
Y1043780D1*
Y1040787D1*
Y1037795D1*
Y1034803D1*
Y1031811D1*
Y1028819D1*
Y1025827D1*
Y1022835D1*
Y1019843D1*
Y1016850D1*
Y1013858D1*
Y1010866D1*
Y1007874D1*
Y1004882D1*
X3002283D2*
Y1001890D1*
Y998898D1*
Y995906D1*
Y992913D1*
Y989921D1*
Y986929D1*
X3086063Y1004882D2*
Y1001890D1*
Y998898D1*
Y995906D1*
Y992913D1*
Y989921D1*
Y986929D1*
X3038189D2*
Y983937D1*
Y980945D1*
Y977953D1*
Y974961D1*
Y971969D1*
Y968976D1*
Y965984D1*
Y962992D1*
Y960000D1*
Y957008D1*
Y954016D1*
Y951024D1*
Y948031D1*
Y945039D1*
X3050157Y986929D2*
Y983937D1*
Y980945D1*
Y977953D1*
Y974961D1*
Y971969D1*
Y968976D1*
Y965984D1*
Y962992D1*
Y960000D1*
Y957008D1*
Y954016D1*
Y951024D1*
Y948031D1*
Y945039D1*
X3014252Y924094D2*
X3001502Y921102D1*
X2990033Y918110D1*
X2980118Y915118D1*
X2971689Y912126D1*
X2964524Y909134D1*
X2958424Y906142D1*
X2953297Y903150D1*
X2948814Y900157D1*
X2944581Y897165D1*
X2940610Y894173D1*
X2937112Y891181D1*
X2934193Y888189D1*
X2931804Y885197D1*
X2929645Y882205D1*
X2927480Y879213D1*
X3074094Y924094D2*
X3086844Y921102D1*
X3098313Y918110D1*
X3108228Y915118D1*
X3116657Y912126D1*
X3123823Y909134D1*
X3129922Y906142D1*
X3135050Y903150D1*
X3139532Y900157D1*
X3143766Y897165D1*
X3147737Y894173D1*
X3151234Y891181D1*
X3154153Y888189D1*
X3156542Y885197D1*
X3158702Y882205D1*
X3160866Y879213D1*
X3059134Y921102D2*
X3035168Y918110D1*
X3014684Y915118D1*
X2998690Y912126D1*
X2986628Y909134D1*
X2977296Y906142D1*
X2969581Y903150D1*
X2962980Y900157D1*
X2957134Y897165D1*
X2951810Y894173D1*
X2947162Y891181D1*
X2943225Y888189D1*
X2939785Y885197D1*
X2936699Y882205D1*
X2934020Y879213D1*
X2931820Y876220D1*
X2929978Y873228D1*
X2928337Y870236D1*
X2926875Y867244D1*
X2925641Y864252D1*
X2924579Y861260D1*
X2923533Y858268D1*
X2922720Y855276D1*
X2922275Y852283D1*
X2922873Y849291D1*
X2923563Y846299D1*
X2924146Y843307D1*
X2924798Y840315D1*
X2925751Y837323D1*
X2927067Y834331D1*
X2928823Y831339D1*
X2931089Y828346D1*
X2933723Y825354D1*
X2936569Y822362D1*
X2939603Y819370D1*
X2942964Y816378D1*
X2946781Y813386D1*
X2951035Y810394D1*
X2955775Y807402D1*
X2961143Y804409D1*
X2967276Y801417D1*
X2974480Y798425D1*
X2983336Y795433D1*
X2994853Y792441D1*
X3009607Y789449D1*
X3026220Y786457D1*
X3029213Y921102D2*
X3053178Y918110D1*
X3073662Y915118D1*
X3089657Y912126D1*
X3101719Y909134D1*
X3111050Y906142D1*
X3118765Y903150D1*
X3125367Y900157D1*
X3131213Y897165D1*
X3136536Y894173D1*
X3141184Y891181D1*
X3145122Y888189D1*
X3148561Y885197D1*
X3151647Y882205D1*
X3154326Y879213D1*
X3156526Y876220D1*
X3158369Y873228D1*
X3160009Y870236D1*
X3161471Y867244D1*
X3162706Y864252D1*
X3163767Y861260D1*
X3164813Y858268D1*
X3165626Y855276D1*
X3166072Y852283D1*
X3165473Y849291D1*
X3164784Y846299D1*
X3164201Y843307D1*
X3163548Y840315D1*
X3162595Y837323D1*
X3161280Y834331D1*
X3159524Y831339D1*
X3157257Y828346D1*
X3154624Y825354D1*
X3151778Y822362D1*
X3148744Y819370D1*
X3145383Y816378D1*
X3141566Y813386D1*
X3137311Y810394D1*
X3132572Y807402D1*
X3127203Y804409D1*
X3121071Y801417D1*
X3113866Y798425D1*
X3105011Y795433D1*
X3093494Y792441D1*
X3078740Y789449D1*
X3062126Y786457D1*
X3023228Y897165D2*
X3009211Y894173D1*
X2997278Y891181D1*
X2987751Y888189D1*
X2980278Y885197D1*
X2974272Y882205D1*
X2969211Y879213D1*
X2964932Y876220D1*
X2961551Y873228D1*
X2959001Y870236D1*
X2957005Y867244D1*
X2955303Y864252D1*
X2953829Y861260D1*
X2952691Y858268D1*
X2952020Y855276D1*
X2951783Y852283D1*
X2952024Y849291D1*
X2952785Y846299D1*
X2953922Y843307D1*
X2955269Y840315D1*
X2956821Y837323D1*
X2958788Y834331D1*
X2961493Y831339D1*
X2964977Y828346D1*
X2969084Y825354D1*
X2973751Y822362D1*
X2978977Y819370D1*
X2984573Y816378D1*
X2990315Y813386D1*
X3065118Y897165D2*
X3079135Y894173D1*
X3091068Y891181D1*
X3100596Y888189D1*
X3108069Y885197D1*
X3114074Y882205D1*
X3119135Y879213D1*
X3123414Y876220D1*
X3126796Y873228D1*
X3129345Y870236D1*
X3131341Y867244D1*
X3133044Y864252D1*
X3134518Y861260D1*
X3135655Y858268D1*
X3136327Y855276D1*
X3136564Y852283D1*
X3136322Y849291D1*
X3135561Y846299D1*
X3134425Y843307D1*
X3133078Y840315D1*
X3131526Y837323D1*
X3129558Y834331D1*
X3126854Y831339D1*
X3123369Y828346D1*
X3119263Y825354D1*
X3114595Y822362D1*
X3109369Y819370D1*
X3103773Y816378D1*
X3098031Y813386D1*
X3065118Y894173D2*
X3041255Y891181D1*
X3021049Y888189D1*
X3005402Y885197D1*
X2993496Y882205D1*
X2984312Y879213D1*
X2977187Y876220D1*
X2971700Y873228D1*
X2967504Y870236D1*
X2964303Y867244D1*
X2961891Y864252D1*
X2960066Y861260D1*
X2958774Y858268D1*
X2958029Y855276D1*
X2957675Y852283D1*
X2957632Y849291D1*
X2958066Y846299D1*
X2959256Y843307D1*
X2961241Y840315D1*
X2963859Y837323D1*
X2967138Y834331D1*
X2971272Y831339D1*
X2976296Y828346D1*
X2981929Y825354D1*
X2987420Y822362D1*
X2992280Y819370D1*
X2994526Y816378D1*
X2996299Y813386D1*
X3023228Y894173D2*
X3047092Y891181D1*
X3067298Y888189D1*
X3082944Y885197D1*
X3094850Y882205D1*
X3104034Y879213D1*
X3111160Y876220D1*
X3116658Y873228D1*
X3120947Y870236D1*
X3124425Y867244D1*
X3127183Y864252D1*
X3129173Y861260D1*
X3130685Y858268D1*
X3132233Y855276D1*
X3133937Y852283D1*
X3132430Y849291D1*
X3131070Y846299D1*
X3129420Y843307D1*
X3127234Y840315D1*
X3124535Y837323D1*
X3121226Y834331D1*
X3117080Y831339D1*
X3112052Y828346D1*
X3106418Y825354D1*
X3100926Y822362D1*
X3096067Y819370D1*
X3093820Y816378D1*
X3092047Y813386D1*
X3023228Y867244D2*
X3016577Y864252D1*
X3011476Y861260D1*
X3007681Y858268D1*
X3006428Y855276D1*
X3005760Y852283D1*
X3005463Y849291D1*
X3005344Y846299D1*
X3005300Y843307D1*
X3005284Y840315D1*
X3005278Y837323D1*
X3005276Y834331D1*
Y831339D1*
Y828346D1*
Y825354D1*
Y822362D1*
Y819370D1*
Y816378D1*
Y813386D1*
X3005287Y810394D1*
X3005416Y807402D1*
X3005731Y804409D1*
X3007292Y801417D1*
X3011667Y798425D1*
X3018391Y795433D1*
X3027633Y792441D1*
X3038189Y789449D1*
X3065118Y867244D2*
X3071770Y864252D1*
X3076871Y861260D1*
X3080665Y858268D1*
X3081919Y855276D1*
X3082586Y852283D1*
X3082883Y849291D1*
X3083002Y846299D1*
X3083047Y843307D1*
X3083063Y840315D1*
X3083068Y837323D1*
X3083070Y834331D1*
X3083071Y831339D1*
Y828346D1*
Y825354D1*
Y822362D1*
Y819370D1*
Y816378D1*
Y813386D1*
X3083059Y810394D1*
X3082931Y807402D1*
X3082615Y804409D1*
X3081055Y801417D1*
X3076680Y798425D1*
X3069955Y795433D1*
X3060714Y792441D1*
X3050157Y789449D1*
X2837979Y1139341D2*
D132*
X2868123D1*
Y1126408D1*
X2866664Y1122097D1*
X2865238Y1120671D1*
X2862386Y1119245D1*
X2858075D1*
X2855190Y1120671D1*
X2853764Y1122097D1*
X2852338Y1126408D1*
X2850879Y1122097D1*
X2849453Y1120671D1*
X2846601Y1119245D1*
X2843716D1*
X2840864Y1120671D1*
X2839405Y1122097D1*
X2837979Y1126408D1*
Y1139341D1*
X2852338D2*
Y1126408D1*
X2843749Y1109981D2*
X2842290Y1107096D1*
X2838012Y1102785D1*
X2868123D1*
X1095119Y1483679D2*
X1092267Y1485105D1*
X1089382Y1487990D1*
X1087956Y1490842D1*
Y1496579D1*
X1089382Y1499464D1*
X1092267Y1502316D1*
X1095119Y1503775D1*
X1099430Y1505201D1*
X1106626D1*
X1110904Y1503775D1*
X1113789Y1502316D1*
X1116641Y1499464D1*
X1118100Y1496579D1*
Y1490842D1*
X1116641Y1487990D1*
X1113789Y1485105D1*
X1110904Y1483679D1*
X1093726Y1474415D2*
X1092267Y1471530D1*
X1087989Y1467219D1*
X1118100D1*
X977009Y1490129D2*
X974157Y1491555D1*
X971272Y1494440D1*
X969846Y1497292D1*
Y1503029D1*
X971272Y1505914D1*
X974157Y1508766D1*
X977009Y1510225D1*
X981320Y1511651D1*
X988516D1*
X992794Y1510225D1*
X995679Y1508766D1*
X998531Y1505914D1*
X999990Y1503029D1*
Y1497292D1*
X998531Y1494440D1*
X995679Y1491555D1*
X992794Y1490129D1*
X977042Y1479406D2*
X975616D1*
X972731Y1477980D1*
X971305Y1476554D1*
X969879Y1473669D1*
Y1467932D1*
X971305Y1465080D1*
X972731Y1463654D1*
X975616Y1462195D1*
X978468D1*
X981353Y1463654D1*
X985631Y1466506D1*
X999990Y1480865D1*
Y1460769D1*
X3831339Y1413169D2*
X3828487Y1414595D1*
X3825602Y1417480D1*
X3824176Y1420331D1*
Y1426068D1*
X3825602Y1428954D1*
X3828487Y1431805D1*
X3831339Y1433265D1*
X3835650Y1434690D1*
X3842846D1*
X3847124Y1433264D1*
X3850009Y1431805D1*
X3852861Y1428953D1*
X3854320Y1426068D1*
Y1420331D1*
X3852861Y1417480D1*
X3850009Y1414594D1*
X3847124Y1413169D1*
X3829947Y1403905D2*
X3828487Y1401020D1*
X3824210Y1396709D1*
X3854320D1*
X3829947Y1387445D2*
X3828487Y1384560D1*
X3824210Y1380249D1*
X3854320D1*
X3417954Y1360584D2*
X3415102Y1362010D1*
X3412217Y1364895D1*
X3410791Y1367747D1*
Y1373484D1*
X3412217Y1376369D1*
X3415102Y1379221D1*
X3417954Y1380680D1*
X3422265Y1382106D1*
X3429461D1*
X3433739Y1380680D1*
X3436624Y1379221D1*
X3439475Y1376369D1*
X3440935Y1373484D1*
Y1367747D1*
X3439475Y1364895D1*
X3436624Y1362010D1*
X3433739Y1360584D1*
X3416561Y1351321D2*
X3415102Y1348436D1*
X3410824Y1344125D1*
X3440935D1*
X3417987Y1333402D2*
X3416561D1*
X3413676Y1331976D1*
X3412250Y1330550D1*
X3410824Y1327665D1*
Y1321928D1*
X3412250Y1319076D1*
X3413676Y1317650D1*
X3416561Y1316191D1*
X3419413D1*
X3422298Y1317650D1*
X3426576Y1320502D1*
X3440935Y1334861D1*
Y1314765D1*
X3971232Y1473085D2*
X4001376D1*
X3975543D2*
X3972691Y1470199D1*
X3971232Y1467348D1*
Y1463037D1*
X3972691Y1460151D1*
X3975543Y1457300D1*
X3979854Y1455840D1*
X3982739D1*
X3987017Y1457300D1*
X3989902Y1460151D1*
X3991328Y1463037D1*
Y1467348D1*
X3989902Y1470199D1*
X3987017Y1473085D1*
X3961184Y1446577D2*
X3962610Y1445151D1*
X3961184Y1443692D1*
X3959725Y1445151D1*
X3961184Y1446577D1*
X3971232Y1445151D2*
X3991328D1*
X3975543Y1417184D2*
X3972658Y1420069D1*
X3971232Y1422954D1*
Y1427232D1*
X3972658Y1430117D1*
X3975543Y1432969D1*
X3979854Y1434428D1*
X3982706D1*
X3987017Y1432969D1*
X3989869Y1430117D1*
X3991328Y1427232D1*
Y1422954D1*
X3989869Y1420069D1*
X3987017Y1417184D1*
X3961184Y1407921D2*
X3991328D1*
X3971232Y1393562D2*
X3985591Y1407921D1*
X3979854Y1402184D2*
X3991328Y1392136D1*
X3961184Y1382872D2*
X3962610Y1381446D1*
X3961184Y1379987D1*
X3959725Y1381446D1*
X3961184Y1382872D1*
X3971232Y1381446D2*
X3991328D1*
X3961184Y1366412D2*
X3985591D1*
X3989869Y1364987D1*
X3991328Y1362101D1*
Y1359250D1*
X3971232Y1370723D2*
Y1360675D1*
X3996303Y1349986D2*
Y1322727D1*
X3961184Y1313464D2*
X3991328D1*
X3976969D2*
X3972658Y1309152D1*
X3971232Y1306267D1*
Y1301956D1*
X3972658Y1299104D1*
X3976969Y1297679D1*
X3991328D1*
X3979854Y1288415D2*
Y1271204D1*
X3976969D1*
X3974084Y1272630D1*
X3972658Y1274056D1*
X3971232Y1276941D1*
Y1281252D1*
X3972658Y1284104D1*
X3975543Y1286989D1*
X3979854Y1288415D1*
X3982706D1*
X3987017Y1286989D1*
X3989869Y1284104D1*
X3991328Y1281252D1*
Y1276941D1*
X3989869Y1274056D1*
X3987017Y1271204D1*
X3971232Y1244730D2*
X3991328D1*
X3975543D2*
X3972658Y1247581D1*
X3971232Y1250467D1*
Y1254744D1*
X3972658Y1257629D1*
X3975543Y1260481D1*
X3979854Y1261941D1*
X3982706D1*
X3987017Y1260481D1*
X3989869Y1257629D1*
X3991328Y1254744D1*
Y1250467D1*
X3989869Y1247581D1*
X3987017Y1244730D1*
X3961184Y1218255D2*
X3991328D1*
X3975543D2*
X3972658Y1221107D1*
X3971232Y1223992D1*
Y1228303D1*
X3972658Y1231155D1*
X3975543Y1234040D1*
X3979854Y1235466D1*
X3982706D1*
X3987017Y1234040D1*
X3989869Y1231155D1*
X3991328Y1228303D1*
Y1223992D1*
X3989869Y1221107D1*
X3987017Y1218255D1*
X3979854Y1208992D2*
Y1191781D1*
X3976969D1*
X3974084Y1193207D1*
X3972658Y1194633D1*
X3971232Y1197518D1*
Y1201829D1*
X3972658Y1204681D1*
X3975543Y1207566D1*
X3979854Y1208992D1*
X3982706D1*
X3987017Y1207566D1*
X3989869Y1204681D1*
X3991328Y1201829D1*
Y1197518D1*
X3989869Y1194633D1*
X3987017Y1191781D1*
X3971232Y1182517D2*
X3991328D1*
X3979854D2*
X3975543Y1181058D1*
X3972658Y1178206D1*
X3971232Y1175321D1*
Y1171010D1*
X1239638Y876939D2*
Y864039D1*
X1238179Y859728D1*
X1236753Y858269D1*
X1233901Y856843D1*
X1231016D1*
X1228164Y858269D1*
X1226705Y859728D1*
X1225279Y864039D1*
Y876939D1*
X1255423D1*
X1239638Y866891D2*
X1255423Y856843D1*
X1231049Y847580D2*
X1229590Y844695D1*
X1225312Y840384D1*
X1255423D1*
X1141213Y627484D2*
Y614584D1*
X1139754Y610273D1*
X1138328Y608814D1*
X1135476Y607388D1*
X1132591D1*
X1129739Y608814D1*
X1128280Y610273D1*
X1126854Y614584D1*
Y627484D1*
X1156998D1*
X1141213Y617436D2*
X1156998Y607388D1*
X1134050Y596665D2*
X1132624D1*
X1129739Y595239D1*
X1128313Y593813D1*
X1126887Y590928D1*
Y585191D1*
X1128313Y582339D1*
X1129739Y580913D1*
X1132624Y579454D1*
X1135476D1*
X1138361Y580913D1*
X1142639Y583765D1*
X1156998Y598124D1*
Y578028D1*
X1831814Y1179181D2*
X1818914D1*
X1814603Y1180640D1*
X1813144Y1182066D1*
X1811718Y1184918D1*
Y1187803D1*
X1813144Y1190655D1*
X1814603Y1192114D1*
X1818914Y1193540D1*
X1831814D1*
Y1163396D1*
X1821766Y1179181D2*
X1811718Y1163396D1*
X1799570Y1193507D2*
X1783818D1*
X1792407Y1182033D1*
X1788096D1*
X1785244Y1180607D1*
X1783818Y1179181D1*
X1782359Y1174870D1*
Y1172018D1*
X1783818Y1167707D1*
X1786670Y1164822D1*
X1790981Y1163396D1*
X1795292D1*
X1799570Y1164822D1*
X1800996Y1166281D1*
X1802455Y1169133D1*
X1834496Y1063039D2*
X1821596D1*
X1817285Y1064499D1*
X1815826Y1065924D1*
X1814400Y1068776D1*
Y1071661D1*
X1815826Y1074513D1*
X1817285Y1075972D1*
X1821596Y1077398D1*
X1834496D1*
Y1047254D1*
X1824448Y1063039D2*
X1814400Y1047254D1*
X1790777D2*
Y1077365D1*
X1805136Y1057302D1*
X1783614D1*
X1833783Y944929D2*
X1820883D1*
X1816572Y946388D1*
X1815113Y947814D1*
X1813687Y950666D1*
Y953551D1*
X1815113Y956403D1*
X1816572Y957862D1*
X1820883Y959288D1*
X1833783D1*
Y929144D1*
X1823735Y944929D2*
X1813687Y929144D1*
X1787212Y959255D2*
X1801538D1*
X1802964Y946355D1*
X1801538Y947781D1*
X1797227Y949240D1*
X1792949D1*
X1788638Y947781D1*
X1785753Y944929D1*
X1784327Y940618D1*
Y937766D1*
X1785753Y933455D1*
X1788638Y930570D1*
X1792949Y929144D1*
X1797227D1*
X1801538Y930570D1*
X1802964Y932029D1*
X1804423Y934881D1*
X1535386Y1459038D2*
Y1446138D1*
X1533927Y1441827D1*
X1532501Y1440368D1*
X1529649Y1438942D1*
X1526764D1*
X1523912Y1440368D1*
X1522453Y1441827D1*
X1521027Y1446138D1*
Y1459038D1*
X1551171D1*
X1535386Y1448990D2*
X1551171Y1438942D1*
X1525338Y1412467D2*
X1522486Y1413893D1*
X1521060Y1418204D1*
Y1421056D1*
X1522486Y1425367D1*
X1526797Y1428252D1*
X1533960Y1429678D1*
X1541123D1*
X1546860Y1428252D1*
X1549745Y1425367D1*
X1551171Y1421056D1*
Y1419630D1*
X1549745Y1415352D1*
X1546860Y1412467D1*
X1542549Y1411041D1*
X1541123D1*
X1536812Y1412467D1*
X1533960Y1415352D1*
X1532534Y1419630D1*
Y1421056D1*
X1533960Y1425367D1*
X1536812Y1428252D1*
X1541123Y1429678D1*
X1417276Y1459767D2*
Y1446867D1*
X1415817Y1442556D1*
X1414391Y1441097D1*
X1411539Y1439671D1*
X1408654D1*
X1405802Y1441097D1*
X1404343Y1442556D1*
X1402917Y1446867D1*
Y1459767D1*
X1433061D1*
X1417276Y1449719D2*
X1433061Y1439671D1*
Y1424671D2*
X1402950Y1410312D1*
Y1430408D1*
X1594441Y1306207D2*
Y1293307D1*
X1592982Y1288996D1*
X1591556Y1287537D1*
X1588704Y1286111D1*
X1585819D1*
X1582967Y1287537D1*
X1581508Y1288996D1*
X1580082Y1293307D1*
Y1306207D1*
X1610226D1*
X1594441Y1296159D2*
X1610226Y1286111D1*
X1580115Y1269685D2*
X1581541Y1273963D1*
X1584393Y1275422D1*
X1587278D1*
X1590130Y1273963D1*
X1591589Y1271111D1*
X1593015Y1265374D1*
X1594441Y1261063D1*
X1597326Y1258211D1*
X1600178Y1256785D1*
X1604489D1*
X1607341Y1258211D1*
X1608800Y1259637D1*
X1610226Y1263948D1*
Y1269685D1*
X1608800Y1273963D1*
X1607341Y1275422D1*
X1604489Y1276848D1*
X1600178D1*
X1597326Y1275422D1*
X1594441Y1272537D1*
X1593015Y1268259D1*
X1591589Y1262522D1*
X1590130Y1259637D1*
X1587278Y1258211D1*
X1584393D1*
X1581541Y1259637D1*
X1580115Y1263948D1*
Y1269685D1*
X1850346Y1600786D2*
X1850347Y1587887D1*
X1848887Y1583576D1*
X1847461Y1582116D1*
X1844610Y1580691D1*
X1841724D1*
X1838873Y1582116D1*
X1837413Y1583576D1*
X1835987Y1587887D1*
Y1600787D1*
X1866131Y1600786D1*
X1850347Y1590738D2*
X1866131Y1580690D1*
X1846035Y1552757D2*
X1850346Y1554216D1*
X1853232Y1557068D1*
X1854658Y1561379D1*
Y1562805D1*
X1853232Y1567116D1*
X1850346Y1569968D1*
X1846035Y1571427D1*
X1844610D1*
X1840298Y1569968D1*
X1837447Y1567116D1*
X1836021Y1562805D1*
Y1561379D1*
X1837447Y1557068D1*
X1840298Y1554216D1*
X1846035Y1552757D1*
X1853232D1*
X1860394Y1554216D1*
X1864706Y1557068D1*
X1866131Y1561379D1*
Y1564231D1*
X1864706Y1568542D1*
X1861820Y1569968D1*
X1351855Y1277606D2*
X1338955D1*
X1334644Y1279065D1*
X1333185Y1280491D1*
X1331759Y1283343D1*
Y1286228D1*
X1333185Y1289080D1*
X1334644Y1290539D1*
X1338955Y1291965D1*
X1351855D1*
Y1261821D1*
X1341807Y1277606D2*
X1331759Y1261821D1*
X1322496Y1286195D2*
X1319611Y1287654D1*
X1315300Y1291932D1*
Y1261821D1*
X1297414Y1291932D2*
X1301725Y1290506D1*
X1304610Y1286195D1*
X1306036Y1279032D1*
Y1274721D1*
X1304610Y1267558D1*
X1301725Y1263247D1*
X1297414Y1261821D1*
X1294562D1*
X1290251Y1263247D1*
X1287399Y1267558D1*
X1285940Y1274721D1*
Y1279032D1*
X1287399Y1286195D1*
X1290251Y1290506D1*
X1294562Y1291932D1*
X1297414D1*
X1287399Y1286195D2*
X1304610Y1267558D1*
X1710583Y1306035D2*
Y1293135D1*
X1709124Y1288824D1*
X1707698Y1287365D1*
X1704846Y1285939D1*
X1701961D1*
X1699109Y1287365D1*
X1697650Y1288824D1*
X1696224Y1293135D1*
Y1306035D1*
X1726368D1*
X1710583Y1295987D2*
X1726368Y1285939D1*
X1701994Y1276676D2*
X1700535Y1273791D1*
X1696257Y1269480D1*
X1726368D1*
X1701994Y1260216D2*
X1700535Y1257331D1*
X1696257Y1253020D1*
X1726368D1*
X1590044Y728394D2*
X1577144D1*
X1572833Y729853D1*
X1571374Y731279D1*
X1569948Y734131D1*
Y737016D1*
X1571374Y739868D1*
X1572833Y741327D1*
X1577144Y742753D1*
X1590044D1*
Y712609D1*
X1579996Y728394D2*
X1569948Y712609D1*
X1560685Y736983D2*
X1557800Y738442D1*
X1553489Y742720D1*
Y712609D1*
X1541340Y742720D2*
X1525588D1*
X1534177Y731246D1*
X1529866D1*
X1527014Y729820D1*
X1525588Y728394D1*
X1524129Y724083D1*
Y721231D1*
X1525588Y716920D1*
X1528440Y714035D1*
X1532751Y712609D1*
X1537062D1*
X1541340Y714035D1*
X1542766Y715494D1*
X1544225Y718346D1*
X1588076Y848472D2*
X1575176D1*
X1570865Y849932D1*
X1569406Y851358D1*
X1567980Y854209D1*
Y857095D1*
X1569406Y859946D1*
X1570865Y861406D1*
X1575176Y862831D1*
X1588076D1*
Y832687D1*
X1578028Y848472D2*
X1567980Y832687D1*
X1558716Y857061D2*
X1555831Y858520D1*
X1551520Y862798D1*
Y832687D1*
X1525046Y862798D2*
X1539371D1*
X1540797Y849898D1*
X1539371Y851324D1*
X1535060Y852783D1*
X1530783D1*
X1526472Y851324D1*
X1523586Y848472D1*
X1522161Y844161D1*
Y841310D1*
X1523586Y836999D1*
X1526472Y834113D1*
X1530783Y832687D1*
X1535060D1*
X1539371Y834113D1*
X1540797Y835573D1*
X1542257Y838424D1*
X3602315Y1809093D2*
Y1796193D1*
X3600856Y1791882D1*
X3599430Y1790423D1*
X3596578Y1788997D1*
X3593693D1*
X3590841Y1790423D1*
X3589382Y1791882D1*
X3587956Y1796193D1*
Y1809093D1*
X3618100D1*
X3602315Y1799045D2*
X3618100Y1788997D1*
X3595152Y1778274D2*
X3593726D1*
X3590841Y1776848D1*
X3589415Y1775422D1*
X3587989Y1772537D1*
Y1766800D1*
X3589415Y1763948D1*
X3590841Y1762522D1*
X3593726Y1761063D1*
X3596578D1*
X3599463Y1762522D1*
X3603741Y1765374D1*
X3618100Y1779733D1*
Y1759637D1*
X3595152Y1748914D2*
X3593726D1*
X3590841Y1747489D1*
X3589415Y1746063D1*
X3587989Y1743178D1*
Y1737441D1*
X3589415Y1734589D1*
X3590841Y1733163D1*
X3593726Y1731704D1*
X3596578D1*
X3599463Y1733163D1*
X3603741Y1736015D1*
X3618100Y1750374D1*
Y1730278D1*
X3720425Y1809093D2*
Y1796193D1*
X3718966Y1791882D1*
X3717540Y1790423D1*
X3714688Y1788997D1*
X3711803D1*
X3708951Y1790423D1*
X3707492Y1791882D1*
X3706066Y1796193D1*
Y1809093D1*
X3736210D1*
X3720425Y1799045D2*
X3736210Y1788997D1*
X3713262Y1778274D2*
X3711836D1*
X3708951Y1776848D1*
X3707525Y1775422D1*
X3706099Y1772537D1*
Y1766800D1*
X3707525Y1763948D1*
X3708951Y1762522D1*
X3711836Y1761063D1*
X3714688D1*
X3717573Y1762522D1*
X3721851Y1765374D1*
X3736210Y1779733D1*
Y1759637D1*
X3706099Y1747489D2*
Y1731737D1*
X3717573Y1740326D1*
Y1736015D1*
X3718999Y1733163D1*
X3720425Y1731737D1*
X3724736Y1730278D1*
X3727588D1*
X3731899Y1731737D1*
X3734784Y1734589D1*
X3736210Y1738900D1*
Y1743211D1*
X3734784Y1747488D1*
X3733325Y1748914D1*
X3730473Y1750374D1*
X3838535Y1186688D2*
Y1173788D1*
X3837076Y1169477D1*
X3835650Y1168018D1*
X3832799Y1166592D1*
X3829913D1*
X3827062Y1168018D1*
X3825602Y1169477D1*
X3824176Y1173788D1*
Y1186688D1*
X3854320D1*
X3838535Y1176640D2*
X3854320Y1166592D1*
X3834224Y1157328D2*
X3864368D1*
X3838535D2*
X3835684Y1154443D1*
X3834224Y1151591D1*
Y1147280D1*
X3835684Y1144395D1*
X3838535Y1141543D1*
X3842846Y1140084D1*
X3845732D1*
X3850009Y1141543D1*
X3852894Y1144395D1*
X3854320Y1147280D1*
Y1151591D1*
X3852895Y1154443D1*
X3850009Y1157328D1*
M02*
