M48
INCH
T01C0.0157
T02C0.0197
T03C0.022
T04C0.0315
T05C0.0354
T06C0.0433
T07C0.0472
T08C0.061
T09C0.1181
%
T01
X+034646Y+007598
X+035433Y+007598
X+036220Y+007598
X+037008Y+007598
X+037795Y+007598
X+038583Y+007598
X+039370Y+007598
X+040157Y+007598
X+040945Y+007598
X+040945Y+008386
X+040157Y+008386
X+039370Y+008386
X+038583Y+008386
X+037795Y+008386
X+037008Y+008386
X+035433Y+008661
X+034646Y+008661
X+034646Y+009449
X+034646Y+010236
X+035433Y+010236
X+036220Y+010236
X+037008Y+010236
X+037795Y+010236
X+038583Y+010236
X+039370Y+010236
X+039370Y+009449
X+038583Y+009449
X+037992Y+011614
X+038976Y+012795
X+039488Y+013228
X+037795Y+013189
X+036614Y+013386
X+034843Y+014764
X+032283Y+017323
X+031693Y+017323
X+033071Y+019882
X+036614Y+018504
X+037795Y+018504
X+040354Y+019882
X+038189Y+023228
X+031102Y+014173
X+029921Y+014173
X+029921Y+012992
X+030512Y+012205
X+031102Y+012992
X+028740Y+012402
X+026378Y+012402
X+024606Y+011508
X+022835Y+010433
X+022244Y+010433
X+021654Y+010433
X+021063Y+010433
X+019094Y+010039
X+019094Y+008858
X+018701Y+007677
X+017126Y+007677
X+016772Y+006693
X+014567Y+006693
X+014567Y+007283
X+015157Y+009252
X+015748Y+009252
X+015945Y+010039
X+015354Y+010984
X+015354Y+011378
X+014961Y+011378
X+014961Y+010984
X+015945Y+012008
X+015551Y+012795
X+015157Y+013189
X+014173Y+012795
X+013583Y+011614
X+013583Y+010433
X+018504Y+012402
X+019094Y+011220
X+022835Y+007874
X+022835Y+006890
X+022835Y+005512
X+024331Y+008504
X+025000Y+009449
X+025661Y+008480
X+025657Y+008051
X+026772Y+007874
X+027165Y+008071
X+026772Y+007087
X+026181Y+005315
X+028346Y+005315
X+029331Y+005906
X+029528Y+007087
X+029528Y+007874
X+029528Y+009055
X+032283Y+009449
X+032283Y+008661
X+032283Y+007480
X+032283Y+006693
X+033071Y+006693
X+033071Y+005906
X+033858Y+005906
X+033858Y+006693
X+034646Y+006693
X+034646Y+005906
X+033465Y+009449
X+033858Y+010236
X+030512Y+005512
X+019488Y+004724
X+016142Y+004331
X+014961Y+004331
X+015354Y+015551
X+016142Y+016535
X+041535Y+010630
X+041929Y+011024
T02
X+020276Y+019882
X+020276Y+020669
X+020276Y+021457
X+020276Y+022244
X+023622Y+022244
X+023622Y+021457
X+023622Y+020669
X+023622Y+019882
X+026969Y+019882
X+026969Y+020669
X+026969Y+021457
X+026969Y+022244
X+030315Y+022244
X+030315Y+021457
X+030315Y+020669
X+030315Y+019882
X+033661Y+022047
X+034449Y+022047
X+035236Y+022047
X+036024Y+022047
T03
X+012992Y+007087
X+012008Y+007528
X+012992Y+010087
X+012008Y+004528
X+019217Y+014248
X+019217Y+017248
T04
X+012760Y+017913
X+012744Y+020118
T05
X+011811Y+012008
X+011811Y+013583
X+012811Y+013583
X+013811Y+013583
X+013976Y+007874
X+012976Y+007874
X+017413Y+004724
X+018413Y+004724
X+020472Y+004724
X+021472Y+004724
X+022472Y+004724
X+023472Y+004724
X+024472Y+004724
X+025472Y+004724
X+026472Y+004724
X+027472Y+004724
X+028472Y+004724
X+029472Y+004724
X+030472Y+004724
X+031472Y+004724
X+021457Y+006102
X+021457Y+007102
X+019685Y+009843
X+019685Y+010843
X+020472Y+018110
X+021472Y+018110
X+022472Y+018110
X+023472Y+018110
X+024472Y+018110
X+025472Y+018110
X+026472Y+018110
X+027472Y+018110
X+028472Y+018110
X+029472Y+018110
X+030472Y+018110
X+031472Y+018110
X+041535Y+018157
X+041535Y+017157
X+041535Y+016157
X+041535Y+015157
X+007835Y+012008
X+006299Y+012008
X+006299Y+008031
T06
X+008661Y+014764
X+008661Y+017717
T07
X+013606Y+019016
T08
X+009843Y+009843
X+009843Y+007874
X+009843Y+005906
T09
X+004921Y+013780
X+004921Y+019291
X+004921Y+008268
X+042323Y+008268
X+042323Y+013780
X+042323Y+019291
T00
M30
