G04 DipTrace 3.1.0.0*
G04 TopAssy.gbr*
%MOIN*%
G04 #@! TF.FileFunction,Drawing,Top*
G04 #@! TF.Part,Single*
%ADD134C,0.015439*%
%FSLAX26Y26*%
G04*
G70*
G90*
G75*
G01*
G04 TopAssy*
%LPD*%
X3752843Y501106D2*
D134*
X3748090Y510613D1*
X3738473Y520230D1*
X3728966Y524983D1*
X3709843D1*
X3700226Y520230D1*
X3690720Y510613D1*
X3685856Y501106D1*
X3681103Y486736D1*
Y462749D1*
X3685856Y448490D1*
X3690720Y438873D1*
X3700226Y429367D1*
X3709843Y424503D1*
X3728966D1*
X3738473Y429367D1*
X3748090Y438873D1*
X3752843Y448490D1*
X3783721Y524983D2*
Y424503D1*
Y472366D2*
X3798091Y486736D1*
X3807708Y491490D1*
X3822078D1*
X3831585Y486736D1*
X3836338Y472366D1*
Y424503D1*
X3924586Y491490D2*
Y424503D1*
Y477119D2*
X3915080Y486736D1*
X3905463Y491490D1*
X3891203D1*
X3881586Y486736D1*
X3872080Y477119D1*
X3867216Y462749D1*
Y453243D1*
X3872080Y438873D1*
X3881586Y429367D1*
X3891203Y424503D1*
X3905463D1*
X3915080Y429367D1*
X3924586Y438873D1*
X3955465Y491490D2*
Y424503D1*
Y472366D2*
X3969835Y486736D1*
X3979452Y491490D1*
X3993711D1*
X4003328Y486736D1*
X4008081Y472366D1*
Y424503D1*
X4096329Y486736D2*
Y410133D1*
X4091576Y395873D1*
X4086823Y391010D1*
X4077206Y386256D1*
X4062836D1*
X4053330Y391010D1*
X4096329Y472366D2*
X4086823Y481873D1*
X4077206Y486736D1*
X4062836D1*
X4053330Y481873D1*
X4043713Y472366D1*
X4038960Y457996D1*
Y448379D1*
X4043713Y434120D1*
X4053330Y424503D1*
X4062836Y419750D1*
X4077206D1*
X4086823Y424503D1*
X4096329Y434120D1*
X4127208Y462749D2*
X4184578D1*
Y472366D1*
X4179824Y481983D1*
X4175071Y486736D1*
X4165454Y491490D1*
X4151084D1*
X4141578Y486736D1*
X4131961Y477119D1*
X4127208Y462749D1*
Y453243D1*
X4131961Y438873D1*
X4141578Y429367D1*
X4151084Y424503D1*
X4165454D1*
X4175071Y429367D1*
X4184578Y438873D1*
X4312658Y477119D2*
X4355658D1*
X4370028Y481983D1*
X4374892Y486736D1*
X4379645Y496243D1*
Y505860D1*
X4374892Y515366D1*
X4370028Y520230D1*
X4355658Y524983D1*
X4312658D1*
Y424503D1*
X4346151Y477119D2*
X4379645Y424503D1*
X4477510Y524983D2*
Y424503D1*
X4410523Y524983D1*
Y424503D1*
X4513252Y500996D2*
Y505749D1*
X4518005Y515366D1*
X4522759Y520119D1*
X4532375Y524872D1*
X4551499D1*
X4561005Y520119D1*
X4565758Y515366D1*
X4570622Y505749D1*
Y496243D1*
X4565758Y486626D1*
X4556252Y472366D1*
X4508388Y424503D1*
X4575375D1*
X4668487Y491490D2*
X4663623Y477119D1*
X4654117Y467503D1*
X4639747Y462749D1*
X4634994D1*
X4620624Y467503D1*
X4611117Y477119D1*
X4606254Y491490D1*
Y496243D1*
X4611117Y510613D1*
X4620624Y520119D1*
X4634994Y524872D1*
X4639747D1*
X4654117Y520119D1*
X4663623Y510613D1*
X4668487Y491490D1*
Y467503D1*
X4663623Y443626D1*
X4654117Y429256D1*
X4639747Y424503D1*
X4630241D1*
X4615870Y429256D1*
X4611117Y438873D1*
X4728106Y524872D2*
X4713736Y520119D1*
X4704119Y505749D1*
X4699366Y481873D1*
Y467503D1*
X4704119Y443626D1*
X4713736Y429256D1*
X4728106Y424503D1*
X4737612D1*
X4751982Y429256D1*
X4761489Y443626D1*
X4766352Y467503D1*
Y481873D1*
X4761489Y505749D1*
X4751982Y520119D1*
X4737612Y524872D1*
X4728106D1*
X4761489Y505749D2*
X4704119Y443626D1*
X4806848Y524872D2*
X4859354D1*
X4830724Y486626D1*
X4845094D1*
X4854601Y481873D1*
X4859354Y477119D1*
X4864217Y462749D1*
Y453243D1*
X4859354Y438873D1*
X4849847Y429256D1*
X4835477Y424503D1*
X4821107D1*
X4806848Y429256D1*
X4802094Y434120D1*
X4797231Y443626D1*
X4992298Y491490D2*
Y391010D1*
Y477119D2*
X5001915Y486626D1*
X5011421Y491490D1*
X5025791D1*
X5035408Y486626D1*
X5044914Y477119D1*
X5049778Y462749D1*
Y453132D1*
X5044914Y438873D1*
X5035408Y429256D1*
X5025791Y424503D1*
X5011421D1*
X5001915Y429256D1*
X4992298Y438873D1*
X5138026Y491490D2*
Y424503D1*
Y477119D2*
X5128520Y486736D1*
X5118903Y491490D1*
X5104644D1*
X5095027Y486736D1*
X5085520Y477119D1*
X5080657Y462749D1*
Y453243D1*
X5085520Y438873D1*
X5095027Y429367D1*
X5104644Y424503D1*
X5118903D1*
X5128520Y429367D1*
X5138026Y438873D1*
X5226275Y524983D2*
Y424503D1*
Y477119D2*
X5216768Y486736D1*
X5207151Y491490D1*
X5192781D1*
X5183275Y486736D1*
X5173658Y477119D1*
X5168905Y462749D1*
Y453243D1*
X5173658Y438873D1*
X5183275Y429367D1*
X5192781Y424503D1*
X5207151D1*
X5216768Y429367D1*
X5226275Y438873D1*
X5354355Y491490D2*
X5373478Y424503D1*
X5392602Y491490D1*
X5411725Y424503D1*
X5430848Y491490D1*
X5461727Y524983D2*
X5466480Y520230D1*
X5471344Y524983D1*
X5466480Y529847D1*
X5461727Y524983D1*
X5466480Y491490D2*
Y424503D1*
X5559592Y524983D2*
Y424503D1*
Y477119D2*
X5550085Y486736D1*
X5540469Y491490D1*
X5526098D1*
X5516592Y486736D1*
X5506975Y477119D1*
X5502222Y462749D1*
Y453243D1*
X5506975Y438873D1*
X5516592Y429367D1*
X5526098Y424503D1*
X5540469D1*
X5550085Y429367D1*
X5559592Y438873D1*
X5604840Y524983D2*
Y443626D1*
X5609594Y429367D1*
X5619210Y424503D1*
X5628717D1*
X5590470Y491490D2*
X5623964D1*
X5659595Y524983D2*
Y424503D1*
Y472366D2*
X5673965Y486736D1*
X5683582Y491490D1*
X5697952D1*
X5707459Y486736D1*
X5712212Y472366D1*
Y424503D1*
X5854662Y524983D2*
Y443626D1*
X5859416Y429367D1*
X5869033Y424503D1*
X5878539D1*
X5840292Y491490D2*
X5873786D1*
X5933294D2*
X5923787Y486736D1*
X5914171Y477119D1*
X5909417Y462749D1*
Y453243D1*
X5914171Y438873D1*
X5923787Y429367D1*
X5933294Y424503D1*
X5947664D1*
X5957281Y429367D1*
X5966787Y438873D1*
X5971651Y453243D1*
Y462749D1*
X5966787Y477119D1*
X5957281Y486736D1*
X5947664Y491490D1*
X5933294D1*
X6128471Y524872D2*
X6114101Y520119D1*
X6104484Y505749D1*
X6099731Y481873D1*
Y467503D1*
X6104484Y443626D1*
X6114101Y429256D1*
X6128471Y424503D1*
X6137978D1*
X6152348Y429256D1*
X6161854Y443626D1*
X6166718Y467503D1*
Y481873D1*
X6161854Y505749D1*
X6152348Y520119D1*
X6137978Y524872D1*
X6128471D1*
X6161854Y505749D2*
X6104484Y443626D1*
X6202350Y434120D2*
X6197596Y429256D1*
X6202350Y424503D1*
X6207213Y429256D1*
X6202350Y434120D1*
X6300325Y491490D2*
X6295462Y477119D1*
X6285955Y467503D1*
X6271585Y462749D1*
X6266832D1*
X6252462Y467503D1*
X6242956Y477119D1*
X6238092Y491490D1*
Y496243D1*
X6242956Y510613D1*
X6252462Y520119D1*
X6266832Y524872D1*
X6271585D1*
X6285955Y520119D1*
X6295462Y510613D1*
X6300325Y491490D1*
Y467503D1*
X6295462Y443626D1*
X6285955Y429256D1*
X6271585Y424503D1*
X6262079D1*
X6247709Y429256D1*
X6242956Y438873D1*
X6331204Y491490D2*
Y424503D1*
Y472366D2*
X6345574Y486736D1*
X6355191Y491490D1*
X6369450D1*
X6379067Y486736D1*
X6383820Y472366D1*
Y424503D1*
Y472366D2*
X6398191Y486736D1*
X6407807Y491490D1*
X6422067D1*
X6431684Y486736D1*
X6436548Y472366D1*
Y424503D1*
X6467426Y491490D2*
Y424503D1*
Y472366D2*
X6481796Y486736D1*
X6491413Y491490D1*
X6505673D1*
X6515289Y486736D1*
X6520043Y472366D1*
Y424503D1*
Y472366D2*
X6534413Y486736D1*
X6544030Y491490D1*
X6558289D1*
X6567906Y486736D1*
X6572770Y472366D1*
Y424503D1*
M02*
