G04 DipTrace 3.1.0.0*
G04 TopPaste.gbr*
%MOIN*%
G04 #@! TF.FileFunction,Paste,Top*
G04 #@! TF.Part,Single*
%ADD76R,0.080709X0.035433*%
%ADD78R,0.035433X0.033465*%
%ADD80R,0.027559X0.081654*%
%ADD82R,0.081654X0.027559*%
%ADD84R,0.052362X0.07874*%
%ADD86R,0.035433X0.00189*%
%ADD88R,0.076772X0.120079*%
%ADD90R,0.076772X0.029528*%
%ADD92R,0.097638X0.097638*%
%ADD94O,0.055118X0.003937*%
%ADD96O,0.003937X0.055118*%
%ADD98R,0.059055X0.023622*%
%ADD109R,0.070866X0.007874*%
%ADD111R,0.051181X0.125984*%
%ADD113R,0.031496X0.129921*%
%ADD115R,0.062992X0.055118*%
%ADD119R,0.043307X0.051181*%
%ADD121R,0.098425X0.055118*%
%ADD125R,0.051181X0.043307*%
%FSLAX26Y26*%
G04*
G70*
G90*
G75*
G01*
G04 TopPaste*
%LPD*%
D125*
X1633858Y570866D3*
Y496063D3*
X1515748Y570866D3*
Y496063D3*
X2125984Y866142D3*
Y940945D3*
X2244094Y866142D3*
Y940945D3*
X2362205Y866142D3*
Y940945D3*
D121*
X2637795Y1023622D3*
Y1133858D3*
D119*
X2438976Y1041339D3*
X2364173D3*
X2753937Y1316929D3*
X2679134D3*
D125*
X2856299Y1379921D3*
Y1454724D3*
D119*
X1318898Y1555118D3*
X1244094D3*
X1318898Y1673228D3*
X1244094D3*
D125*
X3877953Y2244094D3*
Y2169291D3*
X3759843Y2244094D3*
Y2169291D3*
D119*
X1771654Y1122047D3*
X1846457D3*
X1771654Y1003937D3*
X1846457D3*
X1771654Y885827D3*
X1846457D3*
D115*
X767717Y925197D3*
Y1035433D3*
D113*
X1692913Y1515748D3*
X1614173D3*
D111*
X1785362Y1734142D3*
X1521583D3*
D109*
X1279528Y1850394D3*
Y1875984D3*
Y1901575D3*
Y1927165D3*
Y1952756D3*
D119*
X1517717Y671260D3*
X1592520D3*
X1517717Y789370D3*
X1592520D3*
D125*
X2874016Y708661D3*
Y783465D3*
Y905512D3*
Y980315D3*
Y1102362D3*
Y1177165D3*
X3110236Y1555118D3*
Y1480315D3*
X2992126Y1555118D3*
Y1480315D3*
D119*
X2716535Y590551D3*
X2791339D3*
D98*
X4232283Y1043307D3*
Y1177165D3*
D96*
X1476378Y1023622D3*
X1496063D3*
X1515748D3*
X1535433D3*
X1555118D3*
D94*
X1610236Y1078740D3*
Y1098425D3*
Y1118110D3*
Y1137795D3*
Y1157480D3*
D96*
X1555118Y1212598D3*
X1535433D3*
X1515748D3*
X1496063D3*
X1476378D3*
D94*
X1421260Y1157480D3*
Y1137795D3*
Y1118110D3*
Y1098425D3*
Y1078740D3*
D92*
X1515354Y1118092D3*
D90*
X1791339Y767717D3*
Y677165D3*
Y586614D3*
D88*
X2019685Y677165D3*
D86*
X2500000Y866142D3*
Y846457D3*
Y826772D3*
Y807087D3*
Y787402D3*
X2629921D3*
Y807087D3*
Y826772D3*
Y846457D3*
Y866142D3*
D84*
X2564961Y826772D3*
D82*
X3307087Y1929134D3*
Y1879134D3*
Y1829134D3*
Y1779134D3*
Y1729134D3*
Y1679134D3*
Y1629134D3*
Y1579134D3*
Y1529134D3*
Y1479134D3*
Y1429134D3*
Y1379134D3*
Y1329134D3*
Y1279134D3*
Y1229134D3*
Y1179134D3*
Y1129134D3*
Y1079134D3*
Y1029134D3*
Y979134D3*
D80*
X3521850Y914370D3*
X3571850D3*
X3621850D3*
X3671850D3*
X3721850D3*
X3771850D3*
X3821850D3*
D82*
X4036614Y979134D3*
Y1029134D3*
Y1079134D3*
Y1129134D3*
Y1179134D3*
Y1229134D3*
Y1279134D3*
Y1329134D3*
Y1379134D3*
Y1429134D3*
Y1479134D3*
Y1529134D3*
Y1579134D3*
Y1629134D3*
Y1679134D3*
Y1729134D3*
Y1779134D3*
Y1829134D3*
Y1879134D3*
Y1929134D3*
D78*
X3425197Y807087D3*
X3307087D3*
D76*
X3366142Y866142D3*
Y748031D3*
M02*
